<?xml version="1.0" standalone="no"?>
<!DOCTYPE svg PUBLIC "-//W3C//DTD SVG 20010904//EN"
 "http://www.w3.org/TR/2001/REC-SVG-20010904/DTD/svg10.dtd">
<svg version="1.0" xmlns="http://www.w3.org/2000/svg"
 width="512.000000pt" height="512.000000pt" viewBox="0 0 512.000000 512.000000"
 preserveAspectRatio="xMidYMid meet">
<metadata>
Created by potrace 1.16, written by Peter Selinger 2001-2019
</metadata>
<g transform="translate(0.000000,512.000000) scale(0.100000,-0.100000)"
fill="#000000" stroke="none">
<path d="M0 2560 l0 -2560 2560 0 2560 0 0 2560 0 2560 -2560 0 -2560 0 0
-2560z m2571 2390 c33 0 41 -4 49 -25 13 -34 1 -115 -18 -122 -8 -4 -23 -1
-33 5 -25 16 -27 15 -22 -11 4 -18 -4 -29 -34 -50 -22 -15 -48 -27 -59 -27
-26 0 -53 -58 -33 -71 8 -5 17 -9 21 -9 4 0 15 -13 24 -29 10 -16 26 -32 36
-34 10 -3 18 -13 18 -22 0 -23 -38 -75 -56 -75 -14 0 -18 -10 -15 -43 3 -23
-27 -33 -52 -18 -14 9 -22 10 -30 2 -6 -6 -19 -11 -29 -11 -16 0 -17 -3 -8
-21 15 -28 5 -53 -19 -46 -17 4 -18 1 -9 -27 5 -17 12 -41 15 -53 6 -26 41
-60 68 -65 35 -6 30 -37 -8 -53 -19 -8 -37 -22 -41 -30 -4 -12 -13 -15 -33
-11 -25 6 -30 2 -41 -26 -23 -57 -28 -63 -58 -66 -18 -3 -32 2 -41 14 -11 15
-13 15 -13 2 0 -8 7 -21 15 -28 8 -7 15 -18 15 -25 0 -10 8 -11 36 -2 31 9 38
9 49 -6 8 -11 28 -19 51 -20 l39 -2 -4 -50 c-1 -27 -5 -53 -8 -57 -6 -12 -51
-10 -58 2 -4 6 -11 8 -16 5 -12 -8 -12 -62 1 -70 6 -3 10 -19 10 -36 0 -16 4
-29 9 -29 6 0 16 -12 23 -27 9 -19 22 -29 41 -31 35 -4 38 -13 29 -82 -6 -44
-12 -57 -32 -67 -17 -8 -28 -26 -36 -55 -10 -40 -13 -43 -42 -42 -29 2 -32 -1
-32 -27 0 -17 -6 -32 -14 -35 -8 -3 -18 -19 -21 -36 -8 -34 -29 -46 -51 -28
-11 10 -18 10 -26 2 -7 -7 -29 -12 -49 -12 -36 0 -37 -1 -42 -42 -3 -24 -9
-58 -13 -77 -7 -34 -7 -34 16 -18 17 12 35 15 66 10 25 -3 56 -1 73 7 24 10
33 9 55 -5 15 -10 26 -27 26 -40 0 -12 7 -36 15 -51 20 -38 19 -51 -4 -63 -26
-15 -37 -78 -17 -100 23 -25 20 -38 -11 -53 -19 -9 -28 -21 -28 -38 0 -35 -34
-38 -72 -6 l-29 24 -13 -28 c-13 -30 -6 -100 11 -111 9 -6 78 13 125 34 16 7
31 7 49 -2 24 -11 26 -15 19 -49 -9 -40 -15 -138 -14 -242 0 -71 -12 -114 -41
-145 -16 -17 -18 -27 -9 -65 5 -25 15 -56 21 -69 11 -20 10 -25 -7 -37 -15
-11 -20 -27 -20 -57 0 -38 2 -42 24 -42 20 0 27 -7 35 -34 8 -28 7 -36 -7 -46
-9 -7 -17 -25 -17 -40 0 -18 -6 -28 -20 -32 -23 -6 -28 -48 -6 -56 20 -8 29
-115 11 -140 -12 -17 -11 -22 7 -37 14 -11 22 -30 24 -56 1 -21 5 -47 9 -57 4
-9 5 -29 2 -42 -2 -14 0 -28 4 -31 13 -8 11 -61 -3 -84 -9 -15 -9 -24 0 -42
11 -19 10 -30 -3 -61 -9 -21 -13 -47 -10 -58 4 -10 3 -24 -2 -31 -17 -28 -9
-83 16 -111 21 -23 23 -31 13 -45 -30 -42 -43 -76 -45 -113 -2 -22 0 -42 4
-45 12 -7 8 -100 -5 -126 -9 -16 -12 -43 -9 -72 3 -25 2 -53 -2 -63 -4 -10 -8
-45 -9 -78 -1 -55 -3 -60 -24 -63 -22 -3 -23 -5 -7 -28 9 -14 14 -33 11 -42
-7 -20 3 -36 26 -45 19 -7 33 -49 25 -72 -4 -10 -20 -14 -51 -12 -34 1 -49 -3
-59 -17 -18 -25 -51 -14 -44 14 7 27 -14 31 -34 6 -25 -30 -68 -13 -84 34 -11
32 -12 33 -18 11 -4 -15 -11 -22 -24 -19 -10 2 -23 -3 -29 -10 -9 -12 -17 -13
-47 -3 -21 7 -42 21 -47 32 -9 15 -14 17 -29 7 -20 -12 -40 -6 -166 46 -92 38
-293 144 -382 202 -540 352 -923 914 -1042 1531 -11 54 -25 130 -32 168 -18
96 -19 513 -1 620 66 394 148 626 329 932 388 657 1104 1099 1863 1150 47 3
87 7 90 10 3 2 18 2 34 -1 16 -3 46 -6 67 -6z m-266 -940 c0 -16 -6 -26 -18
-28 -19 -4 -32 20 -23 44 9 25 41 13 41 -16z"/>
<path d="M2277 4544 c-4 -4 -4 -10 -2 -14 6 -10 45 0 45 11 0 10 -33 12 -43 3z"/>
<path d="M1863 2998 c-12 -19 -33 -60 -33 -64 0 -14 31 1 54 25 27 29 28 29 8
40 -16 8 -23 8 -29 -1z"/>
<path d="M2140 320 c-24 -8 -23 -8 8 -9 17 -1 32 4 32 9 0 11 -5 11 -40 0z"/>
<path d="M2050 296 c0 -2 11 -6 25 -8 14 -3 25 -1 25 3 0 5 -11 9 -25 9 -14 0
-25 -2 -25 -4z"/>
</g>
</svg>
