<?xml version="1.0" standalone="no"?>
<!DOCTYPE svg PUBLIC "-//W3C//DTD SVG 20010904//EN"
 "http://www.w3.org/TR/2001/REC-SVG-20010904/DTD/svg10.dtd">
<svg version="1.0" xmlns="http://www.w3.org/2000/svg"
 width="512.000000pt" height="512.000000pt" viewBox="0 0 512.000000 512.000000"
 preserveAspectRatio="xMidYMid meet">
<metadata>
Created by potrace 1.16, written by Peter Selinger 2001-2019
</metadata>
<g transform="translate(0.000000,512.000000) scale(0.100000,-0.100000)"
fill="#000000" stroke="none">
<path d="M0 2560 l0 -2560 2560 0 2560 0 0 2560 0 2560 -2560 0 -2560 0 0
-2560z m2474 2369 l14 -21 18 21 c22 25 72 28 81 5 5 -15 7 -15 15 0 24 43
390 -1 648 -79 175 -52 346 -129 536 -240 299 -176 615 -490 801 -797 431
-709 471 -1590 105 -2323 -155 -312 -342 -551 -607 -776 -209 -178 -431 -308
-692 -405 -79 -29 -166 -57 -195 -63 -29 -5 -65 -14 -80 -20 -53 -20 -149 -33
-163 -21 -8 7 -16 7 -19 1 -3 -5 -22 -9 -41 -9 -19 0 -57 -3 -85 -7 -47 -6
-52 -5 -57 14 -4 16 -13 21 -39 21 -18 0 -37 6 -41 13 -12 20 -53 28 -53 11 0
-8 -6 -17 -14 -20 -18 -7 -66 24 -66 42 0 8 -10 14 -25 14 -14 0 -28 7 -31 15
-4 8 -15 15 -25 15 -12 0 -23 10 -29 25 -7 18 -17 25 -35 25 -30 0 -43 24 -25
45 13 16 7 20 -35 27 -12 2 -23 16 -30 38 -15 49 -37 92 -57 112 -10 10 -18
25 -18 34 0 9 -11 25 -25 36 -18 14 -25 29 -25 53 0 20 -8 42 -18 52 -11 10
-27 33 -38 51 -15 27 -16 36 -6 52 11 18 7 24 -28 56 -29 27 -40 44 -40 65 0
16 -5 38 -12 48 -13 22 3 51 28 51 10 0 14 14 14 49 0 45 -2 50 -30 60 -36 12
-41 45 -9 62 17 9 20 17 15 47 -4 21 -7 46 -9 57 -1 11 -17 30 -35 43 -35 25
-40 54 -9 60 10 2 28 -5 39 -15 24 -21 23 -17 -14 53 -14 27 -34 56 -42 63
-24 20 -19 42 19 84 28 31 33 42 24 53 -7 9 -9 31 -4 62 5 39 3 50 -9 55 -11
5 -14 23 -13 90 1 64 -3 90 -16 110 -9 15 -17 34 -17 43 0 9 -7 22 -16 28 -12
9 -16 34 -18 107 -3 104 -23 157 -78 209 -22 20 -29 38 -33 85 -9 83 -12 90
-30 75 -26 -22 -47 -4 -43 37 3 35 6 38 32 38 16 0 31 5 33 10 2 6 -12 10 -29
10 -31 0 -33 3 -35 35 -3 53 -27 148 -41 162 -6 6 -12 25 -12 41 0 22 7 31 33
42 44 18 63 40 43 48 -11 4 -15 19 -13 54 2 51 0 49 90 68 24 5 27 10 27 46 0
32 4 42 20 46 11 3 20 13 20 22 0 9 3 26 6 39 4 12 2 22 -4 22 -5 0 -12 -9
-15 -21 -7 -28 -41 -21 -45 9 -2 14 3 24 15 29 25 9 38 32 38 73 0 30 4 36 25
39 33 4 40 17 40 73 0 26 5 50 10 53 7 4 7 12 0 25 -15 27 -12 93 5 126 9 19
11 32 5 38 -15 15 -12 76 4 82 8 3 12 13 9 25 -3 11 1 27 9 37 31 35 27 125
-8 194 -28 52 -11 150 34 198 42 45 16 90 -37 64 -14 -7 -38 -16 -53 -19 -37
-9 -48 17 -21 48 11 12 27 34 36 50 12 18 26 27 42 27 24 0 30 9 25 39 -1 8 6
21 15 27 21 15 27 90 9 105 -14 12 -17 96 -3 105 6 3 7 15 4 25 -9 27 10 47
49 55 24 4 32 11 32 26 -1 24 58 62 85 55 10 -3 27 5 40 19 14 15 34 24 53 24
17 1 45 7 61 15 44 20 72 18 89 -6z m-502 -3107 c-8 -113 -36 -142 -81 -81
-19 26 -22 36 -12 50 6 10 11 24 11 31 0 21 44 59 65 56 18 -3 20 -9 17 -56z"/>
</g>
</svg>
