<?xml version="1.0" standalone="no"?>
<!DOCTYPE svg PUBLIC "-//W3C//DTD SVG 20010904//EN"
 "http://www.w3.org/TR/2001/REC-SVG-20010904/DTD/svg10.dtd">
<svg version="1.0" xmlns="http://www.w3.org/2000/svg"
 width="512.000000pt" height="512.000000pt" viewBox="0 0 512.000000 512.000000"
 preserveAspectRatio="xMidYMid meet">
<metadata>
Created by potrace 1.16, written by Peter Selinger 2001-2019
</metadata>
<g transform="translate(0.000000,512.000000) scale(0.100000,-0.100000)"
fill="#000000" stroke="none">
<path d="M0 2560 l0 -2560 2560 0 2560 0 0 2560 0 2560 -2560 0 -2560 0 0
-2560z m2770 2384 c67 -6 280 -107 288 -136 2 -10 12 -18 22 -18 10 0 23 -7
30 -15 7 -8 17 -15 23 -15 18 0 57 -42 57 -62 0 -10 -6 -21 -14 -24 -46 -18
112 -176 177 -178 30 -1 32 -4 44 -56 7 -30 10 -61 8 -68 -3 -7 16 -27 40 -44
43 -31 55 -51 36 -62 -28 -18 -13 -196 17 -196 8 0 16 -9 19 -19 3 -14 17 -22
46 -26 32 -5 51 -17 80 -48 23 -25 36 -48 34 -59 -3 -9 1 -22 9 -29 8 -6 14
-22 14 -35 0 -12 4 -25 8 -28 5 -3 14 -31 21 -63 7 -32 18 -69 24 -82 10 -19
8 -25 -8 -37 -11 -8 -30 -12 -41 -10 -26 7 -34 -9 -34 -65 0 -43 -16 -57 -47
-40 -17 9 -19 6 -19 -27 1 -20 5 -43 9 -50 13 -19 -1 -82 -19 -89 -8 -3 -25 3
-37 14 -12 11 -28 18 -34 16 -7 -3 -26 5 -42 16 -16 12 -32 21 -35 21 -10 0
-7 -48 3 -55 5 -3 9 -20 9 -37 -1 -22 5 -36 20 -46 27 -18 28 -34 2 -57 -10
-9 -24 -33 -31 -53 -10 -30 -9 -36 5 -44 9 -5 16 -20 16 -33 0 -14 5 -25 11
-25 19 0 42 -71 30 -96 -9 -20 -4 -28 45 -71 30 -26 56 -55 59 -63 3 -9 18
-21 35 -27 16 -6 30 -18 30 -26 0 -8 16 -27 35 -41 19 -15 35 -35 35 -45 0
-10 3 -21 7 -25 26 -26 44 -178 22 -191 -5 -3 -5 -13 0 -23 44 -90 44 -91 37
-159 -4 -37 -12 -73 -17 -80 -6 -7 -31 -12 -56 -11 -47 1 -64 -12 -56 -41 4
-15 26 -28 75 -44 11 -4 17 -16 16 -34 0 -15 2 -41 6 -58 10 -40 -14 -75 -41
-59 -12 8 -18 25 -19 55 -1 24 -2 50 -3 57 -1 9 -11 6 -32 -10 -58 -44 -72
-63 -73 -104 -1 -33 5 -45 42 -81 l42 -42 -10 -48 c-6 -26 -15 -52 -21 -59 -8
-10 -19 -152 -19 -250 0 -18 -8 -39 -20 -49 -11 -10 -20 -28 -20 -40 0 -12
-11 -43 -25 -69 -14 -26 -25 -52 -25 -57 0 -6 -11 -27 -25 -47 -14 -20 -25
-50 -25 -65 0 -16 -9 -42 -21 -58 -19 -27 -30 -74 -33 -144 -1 -39 -45 -85
-80 -85 -15 0 -26 -6 -26 -14 0 -7 -7 -19 -15 -26 -8 -7 -15 -20 -15 -30 0
-10 -13 -29 -28 -42 -15 -13 -31 -32 -35 -42 -4 -10 -16 -20 -27 -23 -11 -3
-20 -14 -20 -25 0 -12 -13 -25 -38 -36 -26 -12 -36 -22 -34 -35 2 -9 -4 -20
-12 -23 -9 -3 -16 -11 -16 -17 0 -6 -7 -17 -15 -26 -8 -9 -31 -35 -52 -58 -20
-24 -45 -43 -54 -43 -9 0 -19 -9 -22 -20 -3 -11 -13 -20 -24 -20 -10 0 -23
-10 -28 -23 -7 -16 -26 -26 -67 -36 -39 -10 -58 -20 -61 -33 -5 -17 -14 -18
-94 -14 -48 2 -72 1 -53 -2 26 -5 35 -12 35 -27 0 -27 -69 -37 -202 -30 -57 3
-104 2 -107 -3 -11 -18 -172 -37 -181 -22 -4 6 -14 5 -25 -2 -14 -9 -34 -9
-87 1 -86 17 -106 27 -100 51 3 11 -1 24 -8 30 -9 8 -11 4 -7 -15 6 -35 -12
-38 -88 -16 -277 80 -595 250 -823 439 -539 446 -851 1075 -874 1762 -15 433
65 798 257 1175 124 244 247 414 444 610 148 148 237 221 401 327 391 254 860
387 1310 372 72 -3 155 -7 185 -10z"/>
<path d="M3405 3610 c-4 -6 3 -10 14 -10 25 0 27 6 6 13 -8 4 -17 2 -20 -3z"/>
<path d="M3387 3056 c-12 -9 -14 -16 -8 -21 6 -3 11 -18 11 -32 0 -39 10 -22
14 25 2 23 3 42 3 42 -1 0 -10 -7 -20 -14z"/>
<path d="M2100 280 c-22 -7 -21 -8 13 -9 23 -1 36 3 32 9 -7 11 -10 11 -45 0z"/>
</g>
</svg>
