<?xml version="1.0" standalone="no"?>
<!DOCTYPE svg PUBLIC "-//W3C//DTD SVG 20010904//EN"
 "http://www.w3.org/TR/2001/REC-SVG-20010904/DTD/svg10.dtd">
<svg version="1.0" xmlns="http://www.w3.org/2000/svg"
 width="512.000000pt" height="512.000000pt" viewBox="0 0 512.000000 512.000000"
 preserveAspectRatio="xMidYMid meet">
<metadata>
Created by potrace 1.16, written by Peter Selinger 2001-2019
</metadata>
<g transform="translate(0.000000,512.000000) scale(0.100000,-0.100000)"
fill="#000000" stroke="none">
<path d="M0 2560 l0 -2560 2560 0 2560 0 0 2560 0 2560 -2560 0 -2560 0 0
-2560z m2667 2385 c12 -8 28 -13 35 -10 28 11 68 -13 68 -39 0 -14 4 -27 9
-30 5 -4 12 -25 16 -49 4 -23 14 -57 23 -76 12 -25 13 -38 4 -51 -12 -19 1
-84 18 -95 6 -4 10 -20 10 -37 0 -29 1 -30 35 -24 30 6 36 4 46 -17 9 -19 7
-31 -10 -63 -18 -33 -19 -39 -6 -44 24 -8 45 -58 52 -122 3 -32 10 -61 14 -64
5 -3 9 -23 9 -45 0 -45 -18 -58 -53 -41 -52 26 -100 18 -114 -18 -6 -16 -18
-30 -27 -30 -9 0 -16 -4 -16 -9 0 -5 9 -7 19 -4 30 8 63 -15 59 -40 -2 -18 -9
-22 -40 -21 -31 1 -38 -2 -38 -18 0 -11 -4 -28 -10 -38 -8 -14 -5 -21 15 -34
22 -14 25 -24 25 -72 0 -37 -4 -56 -14 -60 -8 -3 -12 -13 -9 -25 4 -12 -1 -21
-13 -25 -53 -17 -63 -26 -51 -45 9 -15 9 -24 0 -38 -14 -23 -2 -37 37 -43 35
-4 40 -44 7 -59 -21 -10 -23 -14 -13 -35 6 -13 15 -24 20 -24 5 0 24 -16 43
-35 21 -22 44 -35 59 -35 37 0 94 -49 94 -81 0 -15 -6 -32 -14 -39 -8 -6 -16
-21 -18 -32 -2 -17 -21 -35 -46 -44 -1 -1 4 -14 13 -30 8 -17 15 -55 15 -90 0
-33 5 -65 11 -71 9 -9 9 -23 2 -52 -7 -27 -7 -43 0 -50 7 -7 7 -18 -1 -35 -6
-14 -7 -28 -3 -31 8 -5 17 -50 24 -122 4 -39 11 -47 39 -48 19 0 63 -60 84
-115 3 -8 10 -23 15 -32 13 -24 11 -45 -5 -71 -7 -12 -19 -43 -26 -70 -11 -41
-11 -50 4 -65 9 -10 16 -26 16 -35 0 -10 4 -25 9 -35 5 -9 14 -47 20 -84 9
-56 9 -74 -5 -110 -8 -24 -19 -56 -23 -73 -4 -16 -17 -35 -29 -41 -19 -9 -20
-13 -8 -17 34 -13 4 -106 -45 -141 -21 -14 -24 -31 -13 -84 4 -18 2 -38 -5
-45 -8 -11 -6 -13 10 -13 12 1 26 -7 33 -17 9 -15 7 -22 -11 -36 -12 -10 -20
-21 -16 -24 6 -6 -12 -45 -46 -102 -12 -21 -17 -45 -14 -78 2 -32 -1 -49 -9
-52 -7 -3 -13 -22 -14 -42 0 -20 -7 -41 -16 -47 -16 -12 -27 -83 -16 -101 3
-6 6 -38 7 -72 1 -53 -2 -65 -19 -75 -11 -7 -20 -18 -20 -24 0 -6 -7 -17 -15
-24 -19 -15 -45 -68 -45 -90 0 -9 -3 -19 -6 -23 -3 -3 -8 -32 -10 -64 -3 -45
-9 -62 -27 -78 -27 -24 -41 -53 -38 -78 3 -21 -47 -76 -69 -77 -12 0 -11 -3 3
-11 21 -12 22 -38 2 -45 -8 -4 -15 -19 -15 -34 0 -16 -4 -32 -10 -35 -6 -3
-10 -17 -10 -30 0 -13 -6 -28 -13 -32 -7 -4 -18 -20 -24 -35 -15 -33 -45 -36
-73 -8 -11 11 -20 15 -20 9 0 -19 -48 -81 -72 -93 -22 -11 -112 -25 -208 -31
-19 -1 -46 -5 -58 -10 -25 -7 -55 16 -77 59 -5 10 -13 18 -17 17 -5 0 -17 -1
-28 -1 -13 0 -24 -10 -30 -25 -11 -28 -15 -29 -59 -14 -20 7 -36 22 -42 38 -9
23 -11 24 -20 9 -15 -27 -37 -23 -176 32 -721 286 -1257 895 -1447 1648 -49
193 -69 359 -69 582 0 619 213 1165 635 1632 382 421 958 710 1513 757 174 15
318 13 342 -4z m-189 -4698 c4 -20 -25 -34 -40 -19 -15 15 -1 44 19 40 10 -2
19 -11 21 -21z"/>
<path d="M2735 3340 c3 -5 11 -10 16 -10 6 0 7 5 4 10 -3 6 -11 10 -16 10 -6
0 -7 -4 -4 -10z"/>
<path d="M2888 3313 c7 -3 16 -2 19 1 4 3 -2 6 -13 5 -11 0 -14 -3 -6 -6z"/>
</g>
</svg>
