<?xml version="1.0" standalone="no"?>
<!DOCTYPE svg PUBLIC "-//W3C//DTD SVG 20010904//EN"
 "http://www.w3.org/TR/2001/REC-SVG-20010904/DTD/svg10.dtd">
<svg version="1.0" xmlns="http://www.w3.org/2000/svg"
 width="512.000000pt" height="512.000000pt" viewBox="0 0 512.000000 512.000000"
 preserveAspectRatio="xMidYMid meet">
<metadata>
Created by potrace 1.16, written by Peter Selinger 2001-2019
</metadata>
<g transform="translate(0.000000,512.000000) scale(0.100000,-0.100000)"
fill="#000000" stroke="none">
<path d="M0 2560 l0 -2560 2560 0 2560 0 0 2560 0 2560 -2560 0 -2560 0 0
-2560z m2699 2354 c30 -32 33 -41 28 -77 -3 -23 -12 -46 -20 -52 -13 -9 -13
-15 -1 -44 18 -42 18 -68 1 -78 -21 -13 -27 -40 -11 -53 8 -7 14 -21 14 -31 0
-11 6 -29 13 -40 10 -18 9 -23 -5 -32 -15 -10 -14 -14 5 -53 12 -23 30 -45 40
-47 18 -6 23 -42 7 -52 -6 -4 -1 -14 12 -25 20 -16 21 -21 10 -40 -8 -14 -10
-26 -4 -33 5 -7 12 -29 15 -51 5 -31 2 -45 -19 -72 -14 -18 -34 -36 -45 -39
-12 -4 -19 -15 -19 -30 0 -13 -4 -27 -10 -30 -5 -3 -10 -15 -10 -25 0 -10 -10
-31 -23 -47 -12 -15 -28 -40 -35 -55 -6 -16 -15 -28 -20 -28 -5 0 -8 -22 -8
-48 1 -27 -5 -62 -13 -78 -7 -16 -20 -44 -29 -62 -13 -27 -13 -41 -4 -83 16
-67 16 -66 -15 -83 -21 -11 -23 -15 -10 -16 23 0 30 -20 19 -51 -12 -31 -5
-49 18 -49 25 0 69 -24 85 -47 7 -10 16 -37 20 -60 6 -36 4 -44 -12 -50 -10
-3 -22 -12 -26 -20 -4 -7 -14 -13 -22 -13 -8 0 -11 -7 -8 -20 8 -30 -24 -37
-50 -11 -15 14 -22 34 -22 61 0 41 -8 52 -19 25 -3 -8 -13 -15 -22 -15 -9 0
-28 -12 -41 -27 l-25 -26 19 -36 c20 -38 61 -55 99 -40 33 13 91 10 104 -6 16
-19 24 -12 25 23 0 40 30 41 49 0 8 -18 16 -44 18 -58 2 -16 11 -26 28 -30 24
-6 25 -9 22 -66 -2 -32 -9 -70 -15 -84 -10 -20 -9 -38 5 -95 17 -69 18 -137 3
-235 -6 -36 -4 -49 9 -59 22 -19 20 -52 -4 -58 -21 -6 -26 -18 -11 -27 4 -3 9
-29 10 -57 0 -41 6 -56 26 -75 29 -26 32 -56 9 -75 -26 -21 -42 -62 -37 -95 4
-23 0 -35 -14 -45 -35 -26 -47 -63 -33 -104 7 -20 10 -49 8 -65 -3 -18 1 -31
9 -34 17 -7 16 -24 -2 -60 -10 -19 -13 -41 -9 -59 3 -16 2 -39 -4 -51 -5 -11
-17 -38 -26 -58 -10 -21 -22 -38 -28 -38 -7 0 -6 -5 2 -15 7 -8 10 -21 7 -30
-4 -8 -2 -17 4 -21 12 -7 2 -82 -13 -101 -6 -8 -2 -12 14 -15 20 -3 23 -8 21
-48 -2 -35 -8 -51 -30 -70 -29 -27 -37 -69 -15 -83 15 -10 16 -39 2 -53 -6 -6
-10 -42 -11 -82 -1 -74 -7 -85 -49 -95 -21 -5 -25 -12 -25 -44 0 -36 -2 -38
-30 -36 l-30 2 29 -16 c28 -15 28 -17 23 -76 -3 -36 -11 -65 -20 -72 -10 -7
-11 -15 -4 -26 8 -12 5 -24 -10 -45 -11 -16 -18 -35 -16 -42 6 -15 -24 -82
-37 -82 -4 0 -6 -9 -3 -20 3 -12 -1 -22 -10 -25 -12 -5 -13 -14 -5 -52 14 -64
-8 -113 -51 -113 -18 0 -34 7 -40 17 -8 15 -12 16 -35 3 -14 -7 -26 -20 -26
-27 0 -7 -7 -16 -17 -20 -14 -5 -13 -8 5 -14 24 -9 28 -29 12 -60 -14 -25 -42
-24 -66 2 l-18 20 -8 -22 c-6 -15 -14 -20 -27 -16 -12 3 -22 -1 -25 -10 -10
-24 -51 -12 -50 15 0 12 -3 22 -8 22 -4 0 -8 -9 -8 -19 0 -11 -5 -23 -11 -27
-16 -10 -60 17 -70 43 -7 19 -15 23 -41 21 -21 -2 -36 -10 -41 -22 -12 -31
-97 -5 -97 30 0 16 -16 19 -25 4 -11 -18 -50 -11 -153 30 -765 298 -1328 975
-1482 1782 -56 294 -54 630 5 923 182 899 873 1628 1753 1849 216 55 402 77
587 71 l110 -4 34 -37z"/>
</g>
</svg>
