<?xml version="1.0" standalone="no"?>
<!DOCTYPE svg PUBLIC "-//W3C//DTD SVG 20010904//EN"
 "http://www.w3.org/TR/2001/REC-SVG-20010904/DTD/svg10.dtd">
<svg version="1.0" xmlns="http://www.w3.org/2000/svg"
 width="512.000000pt" height="512.000000pt" viewBox="0 0 512.000000 512.000000"
 preserveAspectRatio="xMidYMid meet">
<metadata>
Created by potrace 1.16, written by Peter Selinger 2001-2019
</metadata>
<g transform="translate(0.000000,512.000000) scale(0.100000,-0.100000)"
fill="#000000" stroke="none">
<path d="M0 2560 l0 -2560 2560 0 2560 0 0 2560 0 2560 -2560 0 -2560 0 0
-2560z m3134 2329 c22 -6 50 -15 61 -19 11 -4 67 -22 125 -40 625 -195 1180
-708 1440 -1333 71 -171 105 -286 151 -507 27 -133 38 -546 19 -723 -31 -289
-137 -607 -296 -891 -145 -259 -381 -530 -616 -709 -151 -115 -414 -271 -445
-265 -28 5 -21 39 12 57 17 9 39 24 50 34 41 36 93 77 98 77 2 0 22 17 43 37
22 21 53 50 69 64 54 47 114 120 131 159 4 8 13 22 19 30 7 8 16 33 20 55 4
23 19 52 36 69 16 16 29 34 29 40 0 5 21 50 47 100 26 50 57 111 69 135 13 24
27 47 31 50 5 3 19 30 32 60 12 29 42 74 67 100 24 25 44 51 44 57 0 6 6 17
14 24 8 6 25 42 37 78 12 37 27 74 34 82 26 31 81 267 70 300 -4 12 0 31 8 43
17 27 28 75 33 145 1 29 6 58 11 65 4 6 6 20 4 30 -1 10 5 35 15 55 11 24 18
62 18 107 1 63 -1 70 -17 67 -22 -4 -57 25 -57 46 0 8 -11 30 -25 48 -14 18
-25 42 -25 53 0 11 -4 23 -10 26 -13 8 -13 82 0 90 6 3 7 17 4 31 -7 27 19 45
39 25 22 -22 44 -12 56 29 17 56 4 197 -21 222 -10 10 -18 32 -18 52 0 27 -10
43 -45 79 -25 26 -45 54 -45 64 0 35 -26 60 -58 55 -22 -3 -32 2 -44 20 -22
33 -30 88 -16 105 14 18 -3 37 -35 38 -15 0 -23 7 -25 24 -2 13 -12 38 -22 55
-17 31 -46 85 -62 118 -4 10 -8 31 -8 48 0 16 -4 30 -9 30 -11 0 -51 66 -51
84 0 8 -7 19 -15 26 -8 7 -15 20 -15 30 0 9 -16 38 -36 63 -20 26 -34 53 -31
61 3 8 -1 17 -9 20 -11 4 -15 18 -12 48 2 38 0 43 -20 46 -13 2 -33 19 -46 40
-24 38 -73 84 -120 115 -16 11 -26 27 -26 41 0 25 -62 76 -93 76 -10 0 -37 18
-60 40 -23 22 -51 49 -63 60 -12 11 -26 20 -33 20 -6 0 -15 8 -18 18 -9 23
-34 41 -57 42 -10 0 -38 20 -62 45 -25 25 -56 48 -70 51 -27 7 -44 31 -44 65
0 18 -3 19 -14 9 -22 -18 -59 -8 -73 20 -7 13 -20 25 -30 26 -10 0 -30 1 -44
2 -36 3 -74 34 -66 55 8 20 16 21 71 6z"/>
</g>
</svg>
