<?xml version="1.0" standalone="no"?>
<!DOCTYPE svg PUBLIC "-//W3C//DTD SVG 20010904//EN"
 "http://www.w3.org/TR/2001/REC-SVG-20010904/DTD/svg10.dtd">
<svg version="1.0" xmlns="http://www.w3.org/2000/svg"
 width="512.000000pt" height="512.000000pt" viewBox="0 0 512.000000 512.000000"
 preserveAspectRatio="xMidYMid meet">
<metadata>
Created by potrace 1.16, written by Peter Selinger 2001-2019
</metadata>
<g transform="translate(0.000000,512.000000) scale(0.100000,-0.100000)"
fill="#000000" stroke="none">
<path d="M0 2560 l0 -2560 2560 0 2560 0 0 2560 0 2560 -2560 0 -2560 0 0
-2560z m2608 2365 c24 -30 28 -31 35 -5 4 17 14 20 69 20 246 0 585 -86 867
-221 393 -188 723 -475 968 -844 202 -304 322 -631 378 -1034 17 -121 20 -452
5 -550 -57 -367 -116 -561 -250 -826 -225 -447 -595 -818 -1042 -1046 -247
-126 -552 -218 -718 -218 -65 0 -72 2 -82 24 -8 18 -8 28 1 38 9 12 5 16 -20
21 -19 4 -33 13 -36 26 -4 15 -11 18 -30 14 -19 -5 -31 1 -55 25 -27 28 -30
35 -26 88 3 53 1 60 -24 81 -31 27 -35 47 -13 59 13 7 13 13 3 35 -7 15 -21
29 -30 32 -22 5 -23 35 -3 62 21 27 19 30 -25 48 -41 16 -50 35 -26 55 8 7 12
20 9 30 -3 10 0 22 6 25 18 12 12 26 -14 36 -20 8 -25 17 -26 47 -1 21 -3 56
-5 78 -2 22 -1 47 3 55 3 8 5 25 4 36 -1 12 7 38 18 58 12 20 21 47 21 61 0
13 8 30 19 37 25 18 51 71 51 106 0 15 5 33 11 39 8 8 4 21 -15 49 -14 21 -26
43 -26 49 0 5 -7 23 -15 38 -29 56 -30 94 -1 137 14 22 26 46 26 54 0 8 5 18
10 21 13 8 13 76 0 109 -9 25 -10 25 -39 8 -35 -20 -59 -7 -46 25 10 22 7 70
-7 148 -9 44 -18 65 -39 82 -32 27 -45 73 -29 102 13 25 27 26 52 4 18 -16 23
-10 19 24 -1 7 3 22 9 34 9 16 8 24 -4 38 -19 21 -21 55 -3 69 6 6 28 14 47
19 28 7 37 16 45 44 5 19 13 39 17 45 4 6 -4 32 -17 57 -14 25 -25 53 -25 62
0 8 -5 24 -12 35 -21 33 6 139 43 170 23 20 31 35 34 70 4 59 -16 83 -81 99
-52 12 -71 30 -104 95 -13 25 -13 29 0 40 26 20 78 101 81 126 2 14 0 31 -5
38 -4 7 -5 19 -2 27 4 10 -6 15 -37 17 l-42 3 -1 52 c-1 29 -7 59 -14 68 -10
12 -10 21 -2 40 7 14 16 25 22 25 5 0 10 7 10 15 0 8 8 20 19 27 16 9 17 17 9
45 -6 24 -6 39 2 48 9 11 9 23 1 46 -6 18 -11 55 -11 83 0 29 -5 57 -12 64 -6
6 -12 37 -13 68 -2 48 0 57 18 63 18 7 18 8 4 14 -17 6 -24 52 -9 60 4 3 5 32
4 66 -3 50 -7 61 -21 61 -27 0 -64 45 -57 68 4 13 1 22 -9 26 -17 6 -20 41 -5
51 7 4 4 17 -7 36 -17 30 -17 31 2 45 44 32 53 43 49 61 -3 11 2 25 11 33 14
12 14 15 -6 36 -12 13 -19 30 -16 38 4 9 2 16 -4 16 -17 0 -109 102 -109 120
0 9 5 21 12 28 9 9 7 12 -10 12 -13 0 -25 7 -29 16 -8 22 33 53 70 54 17 0 27
5 27 15 0 18 37 38 56 31 8 -3 14 -12 14 -20 0 -9 7 -12 20 -9 16 4 18 8 9 19
-15 19 -4 44 20 44 10 0 21 7 25 15 8 22 32 18 54 -10z"/>
<path d="M2720 410 c0 -5 5 -10 11 -10 5 0 7 5 4 10 -3 6 -8 10 -11 10 -2 0
-4 -4 -4 -10z"/>
</g>
</svg>
