<?xml version="1.0" standalone="no"?>
<!DOCTYPE svg PUBLIC "-//W3C//DTD SVG 20010904//EN"
 "http://www.w3.org/TR/2001/REC-SVG-20010904/DTD/svg10.dtd">
<svg version="1.0" xmlns="http://www.w3.org/2000/svg"
 width="512.000000pt" height="512.000000pt" viewBox="0 0 512.000000 512.000000"
 preserveAspectRatio="xMidYMid meet">
<metadata>
Created by potrace 1.16, written by Peter Selinger 2001-2019
</metadata>
<g transform="translate(0.000000,512.000000) scale(0.100000,-0.100000)"
fill="#000000" stroke="none">
<path d="M0 2560 l0 -2560 2560 0 2560 0 0 2560 0 2560 -2560 0 -2560 0 0
-2560z m2348 2367 c2 -11 -6 -21 -25 -28 -15 -6 -36 -15 -45 -20 -10 -5 -29
-9 -43 -9 -15 0 -43 -11 -63 -25 -20 -14 -40 -25 -44 -25 -4 0 -29 -13 -55
-29 -27 -16 -60 -31 -75 -35 -16 -3 -28 -11 -28 -16 0 -6 -18 -17 -39 -26 -22
-8 -42 -22 -45 -30 -3 -8 -12 -14 -19 -14 -13 0 -49 -15 -106 -43 -14 -7 -28
-24 -32 -39 -4 -15 -17 -39 -28 -54 -12 -15 -21 -35 -21 -45 0 -11 -16 -36
-35 -58 -19 -21 -35 -42 -35 -46 0 -4 -20 -30 -45 -56 -25 -26 -45 -52 -45
-57 0 -14 -82 -67 -105 -67 -16 -1 -19 -7 -17 -27 3 -30 -36 -65 -62 -55 -10
4 -18 -5 -25 -24 -7 -21 -16 -29 -28 -27 -30 6 -116 -103 -93 -117 20 -12 9
-41 -30 -79 -30 -30 -41 -49 -46 -85 -4 -25 -10 -50 -14 -56 -5 -5 -11 -27
-15 -48 -4 -21 -16 -44 -28 -52 -25 -17 -60 -120 -52 -153 3 -13 1 -30 -5 -37
-8 -10 -7 -27 4 -66 21 -70 20 -82 -8 -116 -28 -34 -38 -79 -21 -93 16 -14 31
-196 17 -213 -5 -7 -16 -32 -23 -56 -14 -46 -32 -60 -58 -45 -9 5 -26 8 -39 6
-19 -3 -22 -9 -22 -47 0 -35 -5 -46 -26 -60 -39 -26 -54 -13 -55 47 -1 29 -4
44 -6 33 -3 -11 -10 -26 -16 -34 -7 -8 -12 -35 -12 -60 0 -40 -3 -46 -22 -49
-27 -4 -27 -6 -11 -32 10 -15 9 -23 -7 -40 -15 -16 -17 -26 -9 -48 11 -32 27
-32 34 0 4 16 13 23 30 23 29 0 39 -28 18 -52 -7 -9 -12 -25 -10 -35 2 -11 -4
-30 -13 -44 -15 -23 -15 -25 10 -34 30 -11 33 -40 5 -47 -26 -7 -26 -19 1 -26
17 -5 20 -11 15 -30 -4 -16 1 -33 12 -48 27 -37 49 -81 56 -114 4 -16 15 -38
23 -47 12 -14 14 -25 6 -56 -7 -27 -6 -48 4 -77 7 -21 11 -47 7 -57 -7 -22
-40 -42 -59 -34 -8 3 -15 0 -17 -6 -5 -14 15 -91 36 -140 9 -21 16 -51 16 -68
0 -16 5 -30 10 -30 6 0 16 -11 22 -25 9 -20 8 -28 -5 -43 -13 -14 -14 -21 -5
-30 8 -8 14 -7 24 6 16 22 47 6 52 -27 2 -12 14 -26 28 -31 16 -6 27 -20 30
-39 5 -21 11 -27 24 -24 22 6 53 -32 76 -93 14 -37 15 -49 4 -69 -17 -32 -7
-55 21 -48 27 7 49 -19 49 -57 0 -15 9 -35 20 -45 11 -10 20 -24 20 -30 0 -7
9 -15 21 -18 17 -5 20 -11 15 -34 -5 -22 -2 -34 14 -48 11 -10 20 -27 20 -38
0 -10 11 -32 25 -49 14 -16 25 -40 25 -52 0 -12 6 -28 12 -34 10 -10 10 -17 0
-32 -11 -17 -10 -20 8 -20 13 0 26 -12 36 -33 9 -18 26 -37 37 -43 14 -5 22
-18 21 -31 0 -14 7 -25 18 -29 11 -3 23 -16 28 -30 5 -13 31 -39 57 -58 26
-19 67 -55 90 -80 24 -25 55 -51 70 -58 17 -9 28 -21 27 -34 0 -14 6 -20 20
-20 32 1 29 -48 -2 -52 -13 -2 -28 1 -35 6 -7 5 -25 12 -42 16 -51 13 -292
133 -393 198 -222 141 -471 363 -610 546 -248 326 -399 666 -481 1082 -40 202
-40 623 0 815 49 240 93 383 172 565 180 413 509 801 887 1046 282 182 597
302 930 354 134 21 144 20 148 -3z"/>
</g>
</svg>
