<?xml version="1.0" standalone="no"?>
<!DOCTYPE svg PUBLIC "-//W3C//DTD SVG 20010904//EN"
 "http://www.w3.org/TR/2001/REC-SVG-20010904/DTD/svg10.dtd">
<svg version="1.0" xmlns="http://www.w3.org/2000/svg"
 width="512.000000pt" height="512.000000pt" viewBox="0 0 512.000000 512.000000"
 preserveAspectRatio="xMidYMid meet">
<metadata>
Created by potrace 1.16, written by Peter Selinger 2001-2019
</metadata>
<g transform="translate(0.000000,512.000000) scale(0.100000,-0.100000)"
fill="#000000" stroke="none">
<path d="M0 2560 l0 -2560 2560 0 2560 0 0 2560 0 2560 -2560 0 -2560 0 0
-2560z m2905 2371 c28 -6 99 -20 158 -31 299 -57 653 -218 932 -425 154 -114
356 -317 469 -470 180 -244 316 -520 400 -815 116 -405 110 -892 -15 -1310
-51 -171 -76 -233 -160 -402 -225 -450 -595 -824 -1041 -1052 -132 -67 -284
-129 -302 -123 -6 3 -18 -1 -26 -8 -24 -20 -119 -47 -144 -41 -13 3 -38 -3
-62 -16 -33 -18 -57 -22 -159 -23 -83 -1 -127 -6 -142 -15 -17 -11 -27 -11
-47 -2 -14 6 -26 18 -26 27 0 18 -33 20 -61 2 -17 -10 -22 -9 -35 8 -15 20
-15 20 -33 -3 -17 -23 -20 -23 -61 -11 -26 8 -45 20 -48 32 -3 12 -10 16 -21
11 -37 -15 -50 -14 -85 5 -20 12 -45 21 -56 21 -10 0 -25 8 -32 18 -7 9 -30
25 -50 34 -21 10 -38 22 -38 28 0 5 -12 10 -26 10 -32 0 -80 49 -89 90 -4 17
-11 30 -16 30 -15 0 -69 42 -69 54 -1 6 -14 22 -30 36 -17 13 -30 29 -30 36 0
7 -7 14 -15 18 -8 3 -15 11 -15 18 0 7 -10 18 -22 23 -13 6 -24 20 -26 33 -2
13 -14 27 -28 32 -13 6 -27 17 -31 26 -3 10 -24 33 -45 52 -21 19 -38 41 -38
48 0 8 -14 39 -31 69 -22 38 -29 63 -25 79 5 19 -1 30 -25 49 -36 28 -35 63 1
54 18 -5 18 -3 6 22 -18 35 -18 79 1 120 11 24 12 36 4 44 -15 15 -14 63 1 87
11 16 8 28 -14 72 -14 29 -36 74 -48 100 l-23 47 22 41 c27 52 27 53 -9 67
-16 6 -30 18 -30 26 0 16 50 57 68 57 5 0 15 6 21 14 9 11 5 18 -24 36 -21 13
-35 30 -35 41 0 32 -29 79 -49 79 -31 0 -63 45 -68 97 -3 26 -12 55 -20 64 -7
9 -17 34 -20 54 -5 30 -2 41 13 52 24 18 24 55 -1 68 -26 13 -33 72 -11 81 9
4 23 1 31 -6 21 -18 37 -3 22 20 -7 12 -23 20 -38 20 -35 0 -57 25 -42 50 7
10 8 21 3 26 -5 5 -12 33 -15 63 -8 80 -21 90 -56 41 -16 -22 -35 -40 -43 -40
-19 0 -39 27 -33 44 3 8 -5 34 -19 59 -27 53 -31 85 -9 93 8 4 15 14 15 25 0
10 9 23 19 29 16 8 18 17 14 50 -6 46 5 55 52 42 22 -7 30 -15 31 -33 1 -28
22 -82 23 -58 1 8 15 25 32 38 24 18 28 25 19 36 -7 8 -9 23 -5 35 5 15 1 22
-19 30 -33 12 -44 65 -22 108 9 17 16 37 16 45 0 7 5 18 11 24 18 18 21 109 4
123 -22 19 -18 38 15 72 16 16 30 38 30 49 0 11 7 22 15 25 11 5 12 11 5 24
-14 27 -12 60 4 66 8 3 12 13 9 25 -4 12 1 21 13 25 49 18 51 48 7 65 -19 7
-24 15 -20 30 3 13 -2 28 -14 40 -23 23 -24 47 -4 73 8 11 15 27 15 36 0 24
50 67 95 82 32 10 42 20 51 48 6 19 18 36 25 39 23 7 34 29 34 68 0 32 -4 37
-35 48 -19 6 -41 23 -47 36 -15 29 -17 85 -3 94 22 14 -4 26 -41 20 -48 -8
-61 12 -35 55 9 16 16 40 16 53 0 17 8 30 24 39 76 41 117 75 123 102 3 16 29
52 57 80 34 34 50 59 48 72 -4 27 81 130 113 138 14 4 25 12 25 19 0 28 119
97 166 97 12 0 25 4 28 9 3 5 30 12 61 16 30 3 57 11 60 16 4 5 27 9 53 10 26
1 58 5 72 10 34 11 443 4 505 -10z m-1390 -3146 c0 -23 -4 -30 -20 -30 -21 0
-31 25 -21 51 11 28 41 12 41 -21z"/>
<path d="M1554 3708 l-19 -23 23 19 c21 18 27 26 19 26 -2 0 -12 -10 -23 -22z"/>
<path d="M1515 2180 c-3 -5 -1 -10 4 -10 6 0 11 5 11 10 0 6 -2 10 -4 10 -3 0
-8 -4 -11 -10z"/>
</g>
</svg>
