<?xml version="1.0" standalone="no"?>
<!DOCTYPE svg PUBLIC "-//W3C//DTD SVG 20010904//EN"
 "http://www.w3.org/TR/2001/REC-SVG-20010904/DTD/svg10.dtd">
<svg version="1.0" xmlns="http://www.w3.org/2000/svg"
 width="512.000000pt" height="512.000000pt" viewBox="0 0 512.000000 512.000000"
 preserveAspectRatio="xMidYMid meet">
<metadata>
Created by potrace 1.16, written by Peter Selinger 2001-2019
</metadata>
<g transform="translate(0.000000,512.000000) scale(0.100000,-0.100000)"
fill="#000000" stroke="none">
<path d="M0 2560 l0 -2560 2560 0 2560 0 0 2560 0 2560 -2560 0 -2560 0 0
-2560z m2930 2365 c413 -72 702 -197 1035 -448 114 -86 281 -242 328 -307 22
-30 44 -57 47 -60 11 -7 110 -140 110 -146 0 -3 15 -24 34 -47 33 -42 78 -117
146 -246 35 -65 90 -221 90 -254 0 -9 14 -51 32 -94 17 -43 33 -89 34 -103 6
-46 34 -165 44 -189 6 -13 13 -100 16 -194 3 -94 9 -178 14 -187 5 -10 5 -43
0 -81 -5 -35 -10 -102 -10 -148 0 -93 -15 -222 -36 -316 -8 -33 -16 -77 -19
-98 -2 -21 -8 -43 -12 -50 -4 -7 -6 -22 -5 -34 2 -11 -2 -24 -7 -28 -6 -3 -11
-12 -11 -20 0 -8 -18 -53 -40 -100 -22 -47 -40 -91 -40 -97 0 -13 -28 -74 -55
-118 -24 -38 -40 -87 -36 -109 1 -7 -7 -23 -17 -35 -11 -11 -37 -50 -58 -86
-20 -36 -52 -79 -69 -96 -18 -17 -40 -44 -48 -60 -19 -36 -228 -254 -243 -254
-7 0 -14 -9 -17 -19 -2 -11 -15 -21 -28 -23 -18 -2 -23 -8 -21 -26 2 -16 -4
-25 -24 -32 -32 -13 -116 -86 -126 -112 -4 -9 -22 -27 -41 -39 -19 -13 -38
-32 -43 -42 -5 -11 -18 -25 -29 -31 -11 -6 -36 -23 -56 -39 -20 -15 -43 -27
-51 -27 -8 0 -23 -9 -33 -20 -20 -22 -71 -50 -90 -50 -7 0 -18 -7 -25 -15 -7
-8 -20 -15 -30 -15 -10 0 -20 -6 -23 -14 -3 -8 -27 -18 -54 -22 -29 -4 -53
-14 -61 -25 -7 -10 -29 -21 -50 -24 -20 -3 -45 -10 -54 -16 -10 -5 -31 -9 -47
-9 -16 0 -34 -7 -41 -15 -10 -12 -24 -14 -57 -9 -35 5 -43 3 -43 -9 0 -32
-118 -65 -135 -37 -10 15 -102 12 -108 -4 -4 -10 -32 -12 -135 -8 -109 3 -134
1 -154 -12 -32 -23 -69 -21 -75 4 -6 24 -12 25 -27 4 -7 -8 -27 -16 -46 -17
-29 -2 -36 2 -38 20 -3 21 -7 22 -50 16 -26 -3 -48 -9 -50 -13 -1 -4 -9 -16
-16 -26 -13 -17 -16 -17 -41 -4 -15 8 -33 26 -39 39 l-11 24 -5 -24 c-9 -36
-47 -38 -75 -3 l-22 28 1 -25 c1 -18 -4 -23 -19 -22 -197 22 -564 168 -798
320 -206 132 -448 352 -589 533 -261 337 -433 739 -488 1142 -128 934 291
1843 1090 2361 95 61 292 162 403 206 160 64 388 122 572 147 138 18 546 12
675 -11z m-585 -4715 c0 -18 -6 -26 -23 -28 -24 -4 -38 18 -28 44 3 9 15 14
28 12 17 -2 23 -10 23 -28z"/>
</g>
</svg>
