<?xml version="1.0" standalone="no"?>
<!DOCTYPE svg PUBLIC "-//W3C//DTD SVG 20010904//EN"
 "http://www.w3.org/TR/2001/REC-SVG-20010904/DTD/svg10.dtd">
<svg version="1.0" xmlns="http://www.w3.org/2000/svg"
 width="512.000000pt" height="512.000000pt" viewBox="0 0 512.000000 512.000000"
 preserveAspectRatio="xMidYMid meet">
<metadata>
Created by potrace 1.16, written by Peter Selinger 2001-2019
</metadata>
<g transform="translate(0.000000,512.000000) scale(0.100000,-0.100000)"
fill="#000000" stroke="none">
<path d="M0 2560 l0 -2560 2560 0 2560 0 0 2560 0 2560 -2560 0 -2560 0 0
-2560z m2487 2338 c2 -54 -14 -69 -97 -94 -26 -8 -53 -21 -60 -29 -7 -8 -19
-15 -26 -15 -8 0 -22 -4 -32 -9 -9 -5 -25 -12 -34 -15 -10 -3 -18 -13 -18 -22
0 -9 -16 -36 -35 -60 l-35 -43 26 -13 c42 -20 52 -43 29 -68 -15 -17 -26 -19
-64 -14 -60 8 -101 -8 -101 -39 0 -41 -84 -101 -126 -91 -18 5 -30 -1 -51 -27
-38 -44 -54 -100 -34 -115 24 -18 6 -47 -24 -40 -23 6 -24 5 -13 -13 9 -15 9
-23 -1 -35 -8 -9 -18 -16 -23 -16 -5 0 -21 -8 -35 -17 l-26 -17 24 -6 c22 -6
24 -10 21 -56 -2 -27 -8 -54 -13 -60 -5 -6 -7 -19 -3 -28 3 -9 1 -23 -5 -30
-7 -8 -11 -31 -9 -52 3 -33 -1 -40 -25 -52 -26 -13 -27 -15 -11 -27 13 -9 24
-10 39 -3 17 7 20 16 17 44 -3 24 0 35 12 40 39 15 63 -45 27 -68 -10 -6 -17
-17 -14 -24 2 -7 -3 -41 -12 -76 -9 -35 -17 -100 -17 -146 0 -50 -4 -85 -11
-89 -7 -4 -2 -9 13 -13 19 -4 26 -13 28 -35 2 -17 9 -37 16 -45 17 -20 17 -86
1 -100 -10 -8 -11 -20 -3 -47 6 -24 6 -39 -1 -46 -7 -7 -7 -14 0 -23 6 -8 6
-28 -3 -60 -17 -69 -24 -76 -71 -69 l-39 7 17 -26 c30 -45 1 -72 -45 -44 -28
18 -44 -2 -45 -55 l0 -42 37 4 c44 4 61 -20 34 -47 -14 -14 -21 -15 -48 -4
-17 6 -33 11 -34 9 -2 -1 10 -29 26 -62 16 -33 30 -70 30 -82 0 -12 5 -25 10
-28 6 -3 10 -15 10 -25 0 -13 8 -20 28 -22 19 -2 28 -9 30 -25 2 -15 10 -23
22 -23 11 0 27 -11 36 -25 9 -14 25 -25 35 -25 23 0 36 -27 21 -42 -16 -16
-112 0 -119 21 -6 17 -60 71 -71 71 -3 0 -1 -5 6 -12 18 -18 15 -58 -5 -65
-27 -10 -33 -26 -16 -38 19 -14 10 -70 -14 -83 -12 -7 -13 -13 -4 -30 16 -29
32 -195 20 -206 -13 -14 -11 -63 3 -103 12 -33 11 -36 -23 -66 -38 -34 -54
-63 -63 -114 -4 -22 -1 -33 10 -37 9 -3 14 -14 12 -23 -2 -10 3 -23 11 -29 23
-18 6 -47 -24 -40 -28 7 -31 -3 -19 -63 5 -23 12 -31 28 -31 13 0 32 -13 44
-30 16 -21 31 -30 52 -30 16 0 33 -7 38 -16 6 -11 22 -16 50 -16 32 1 48 -6
73 -29 18 -17 40 -34 50 -40 10 -5 21 -24 24 -42 8 -38 23 -61 48 -70 15 -6
18 -14 13 -45 -9 -52 -18 -157 -20 -220 -1 -34 -6 -56 -16 -62 -8 -5 -12 -10
-10 -12 3 -2 14 -8 25 -14 17 -9 20 -22 20 -77 0 -55 4 -69 24 -91 25 -26 23
-56 -4 -56 -14 0 -14 -3 1 -25 12 -18 14 -36 9 -73 -5 -40 -3 -52 16 -76 19
-24 20 -32 10 -48 -13 -20 -5 -38 28 -64 22 -17 9 -48 -24 -55 l-30 -7 32 -1
c34 -1 53 -23 53 -60 0 -14 6 -21 20 -21 11 0 23 -7 26 -15 9 -23 -16 -47 -46
-43 -15 1 -35 -3 -44 -11 -21 -17 -43 -8 -49 21 -4 21 -4 21 -6 -3 -2 -45 -23
-54 -88 -39 -35 9 -57 20 -60 30 -3 12 -13 15 -32 12 -32 -4 -119 28 -266 98
-657 316 -1145 942 -1294 1660 -45 217 -46 232 -46 495 0 263 3 298 46 505
183 885 893 1619 1769 1829 167 40 303 59 415 57 l70 -1 2 -47z"/>
<path d="M1660 3732 c0 -10 22 -32 32 -32 4 0 8 9 8 20 0 13 -7 20 -20 20 -11
0 -20 -4 -20 -8z"/>
</g>
</svg>
