<?xml version="1.0" standalone="no"?>
<!DOCTYPE svg PUBLIC "-//W3C//DTD SVG 20010904//EN"
 "http://www.w3.org/TR/2001/REC-SVG-20010904/DTD/svg10.dtd">
<svg version="1.0" xmlns="http://www.w3.org/2000/svg"
 width="512.000000pt" height="512.000000pt" viewBox="0 0 512.000000 512.000000"
 preserveAspectRatio="xMidYMid meet">
<metadata>
Created by potrace 1.16, written by Peter Selinger 2001-2019
</metadata>
<g transform="translate(0.000000,512.000000) scale(0.100000,-0.100000)"
fill="#000000" stroke="none">
<path d="M0 2560 l0 -2560 2560 0 2560 0 0 2560 0 2560 -2560 0 -2560 0 0
-2560z m2827 2376 c57 -7 110 -19 118 -26 8 -7 25 -10 40 -6 15 4 40 0 58 -7
18 -8 68 -25 112 -37 44 -13 100 -34 125 -46 25 -13 57 -26 72 -29 14 -3 40
-16 56 -30 17 -14 36 -25 44 -25 7 0 28 -13 46 -30 18 -16 37 -30 43 -30 5 0
36 -27 70 -60 33 -33 67 -60 75 -60 8 0 18 -8 21 -17 13 -37 99 -131 193 -213
28 -25 68 -67 88 -95 20 -27 65 -78 98 -111 42 -43 63 -73 68 -96 3 -19 15
-52 26 -74 12 -21 20 -50 19 -64 -1 -14 3 -38 10 -53 6 -16 11 -31 11 -34 0
-4 6 -14 14 -22 18 -21 31 -117 17 -126 -6 -3 -8 -17 -5 -31 3 -13 2 -30 -3
-37 -12 -16 -9 -112 4 -129 6 -7 14 -38 17 -69 4 -31 18 -77 32 -104 13 -27
24 -52 24 -58 0 -5 19 -28 42 -52 34 -35 44 -54 54 -104 7 -34 11 -68 8 -76
-3 -7 4 -18 15 -25 23 -12 27 -35 9 -47 -7 -4 -13 -17 -13 -28 0 -40 -40 -29
-98 28 l-55 54 -8 -36 c-9 -47 -5 -113 8 -129 7 -7 8 -37 5 -74 -3 -34 -1 -68
5 -77 7 -12 5 -28 -7 -56 -10 -22 -18 -54 -19 -72 -1 -28 2 -31 21 -27 30 8
40 -18 19 -47 -15 -22 -14 -23 24 -40 49 -22 56 -38 37 -87 -8 -20 -18 -70
-22 -110 -5 -50 -12 -75 -22 -79 -15 -6 -10 -57 9 -80 5 -6 8 -31 6 -55 -3
-39 -1 -42 22 -43 23 0 25 -3 23 -39 -2 -22 -7 -44 -13 -50 -5 -5 -10 -22 -10
-37 0 -15 -4 -30 -9 -34 -21 -13 -41 -69 -35 -101 3 -18 1 -35 -5 -38 -5 -4
-8 -13 -4 -21 3 -8 -4 -35 -16 -60 -12 -25 -21 -53 -21 -63 0 -11 -9 -27 -20
-37 -11 -10 -20 -28 -20 -41 0 -20 -82 -132 -110 -149 -5 -3 -10 -19 -10 -35
0 -25 -35 -67 -67 -82 -4 -1 -35 -38 -68 -81 -32 -43 -68 -85 -78 -92 -21 -15
-67 -100 -67 -124 0 -19 -69 -91 -87 -91 -12 0 -53 -35 -53 -45 0 -11 -76 -85
-87 -85 -7 0 -13 -6 -13 -13 0 -8 -19 -28 -42 -45 -24 -17 -57 -43 -75 -59
-18 -15 -53 -43 -79 -62 -39 -28 -50 -32 -65 -23 -15 10 -17 9 -12 -5 11 -28
-23 -42 -83 -36 -55 6 -55 6 -49 -19 4 -16 2 -29 -6 -34 -15 -9 -79 -24 -134
-31 -24 -3 -47 -13 -56 -25 -11 -14 -29 -21 -57 -22 -24 0 -44 -6 -47 -13 -3
-9 -26 -13 -69 -13 -36 0 -68 -4 -71 -10 -4 -6 -37 -7 -88 -3 -98 8 -145 6
-172 -6 -11 -4 -42 -14 -70 -20 -41 -10 -51 -10 -60 2 -7 9 -22 13 -42 10 -24
-4 -34 -1 -38 11 -3 9 -7 23 -10 32 -4 14 -8 14 -21 3 -14 -11 -14 -13 0 -21
17 -10 22 -43 7 -52 -11 -7 -117 11 -150 25 -18 7 -22 15 -17 34 4 14 2 25 -3
25 -5 0 -11 -10 -13 -23 -3 -20 -8 -22 -53 -21 -30 1 -111 22 -204 53 -759
251 -1351 884 -1551 1656 -61 239 -75 348 -74 615 0 221 3 260 27 395 28 157
74 333 117 440 39 99 60 145 110 245 59 117 165 286 249 395 213 279 515 524
835 679 264 128 474 187 811 229 78 10 400 5 492 -7z"/>
<path d="M2768 313 c6 -2 18 -2 25 0 6 3 1 5 -13 5 -14 0 -19 -2 -12 -5z"/>
</g>
</svg>
