<?xml version="1.0" standalone="no"?>
<!DOCTYPE svg PUBLIC "-//W3C//DTD SVG 20010904//EN"
 "http://www.w3.org/TR/2001/REC-SVG-20010904/DTD/svg10.dtd">
<svg version="1.0" xmlns="http://www.w3.org/2000/svg"
 width="512.000000pt" height="512.000000pt" viewBox="0 0 512.000000 512.000000"
 preserveAspectRatio="xMidYMid meet">
<metadata>
Created by potrace 1.16, written by Peter Selinger 2001-2019
</metadata>
<g transform="translate(0.000000,512.000000) scale(0.100000,-0.100000)"
fill="#000000" stroke="none">
<path d="M0 2560 l0 -2560 2560 0 2560 0 0 2560 0 2560 -2560 0 -2560 0 0
-2560z m3007 2345 c489 -97 884 -306 1233 -655 451 -450 696 -1041 700 -1691
4 -644 -242 -1241 -700 -1699 -288 -289 -621 -489 -992 -596 -67 -19 -128 -32
-136 -29 -28 10 -8 48 32 62 22 7 45 22 53 33 8 11 32 24 53 30 32 9 40 16 40
33 0 12 8 30 18 39 9 9 31 33 47 52 17 20 36 36 44 36 11 0 11 3 1 15 -15 18
-6 45 14 45 7 0 17 8 20 18 12 32 37 72 45 72 5 0 11 14 15 32 3 17 19 47 34
67 48 64 54 81 37 107 -21 33 -20 37 24 70 47 34 49 41 61 164 6 65 13 98 24
105 33 24 41 155 10 155 -28 0 -26 30 5 65 17 20 31 45 31 56 0 11 7 31 16 45
14 21 15 31 5 63 -6 21 -18 44 -26 51 -19 16 -19 34 -1 49 8 7 12 21 9 32 -4
13 7 35 31 66 20 25 36 57 36 70 0 16 10 29 28 40 15 9 35 33 46 55 19 41 23
67 30 203 7 141 17 199 37 215 12 9 21 34 25 65 8 59 19 76 48 74 11 -1 32 -1
46 0 l25 2 -28 23 c-35 28 -35 71 0 70 19 0 21 3 16 28 -5 24 1 36 28 64 18
19 40 34 48 34 12 0 12 2 -2 13 -24 18 -42 108 -24 122 26 19 29 62 7 102 -11
21 -20 43 -20 50 0 8 -8 5 -21 -8 -26 -26 -63 -22 -67 9 -3 22 -20 28 -66 23
-22 -2 -61 35 -75 72 -6 15 -17 27 -25 27 -22 0 -39 38 -42 93 -1 32 -8 53
-20 61 -12 9 -15 20 -11 36 4 15 -1 33 -14 52 -14 19 -19 37 -15 53 4 16 -1
38 -14 62 -11 21 -20 44 -20 51 0 7 -22 34 -49 61 -46 44 -50 51 -48 92 2 37
5 44 25 47 12 2 22 8 22 13 0 5 10 14 23 19 16 6 18 9 5 9 -20 1 -42 36 -35
56 7 16 -12 35 -33 35 -31 0 -80 31 -80 50 0 10 5 22 10 25 6 4 -4 16 -21 28
-32 22 -53 67 -46 98 3 10 -3 15 -17 15 -22 -1 -29 21 -42 141 -4 29 -13 58
-20 64 -8 6 -14 17 -14 24 0 40 -57 110 -106 131 -18 8 -39 22 -46 31 -7 10
-27 26 -43 35 -22 12 -30 24 -28 42 1 18 -3 23 -17 19 -13 -4 -23 5 -35 31 -9
19 -14 40 -10 45 3 6 -1 11 -10 11 -9 0 -19 8 -22 18 -3 14 -11 18 -29 14 -28
-5 -43 20 -25 42 10 12 9 13 -7 9 -11 -2 -34 3 -52 12 -26 14 -31 21 -26 41 6
22 5 23 -12 13 -16 -10 -25 -7 -56 17 -51 41 -48 61 11 83 1 1 59 -10 130 -24z"/>
</g>
</svg>
