<?xml version="1.0" standalone="no"?>
<!DOCTYPE svg PUBLIC "-//W3C//DTD SVG 20010904//EN"
 "http://www.w3.org/TR/2001/REC-SVG-20010904/DTD/svg10.dtd">
<svg version="1.0" xmlns="http://www.w3.org/2000/svg"
 width="512.000000pt" height="512.000000pt" viewBox="0 0 512.000000 512.000000"
 preserveAspectRatio="xMidYMid meet">
<metadata>
Created by potrace 1.16, written by Peter Selinger 2001-2019
</metadata>
<g transform="translate(0.000000,512.000000) scale(0.100000,-0.100000)"
fill="#000000" stroke="none">
<path d="M0 2560 l0 -2560 2560 0 2560 0 0 2560 0 2560 -2560 0 -2560 0 0
-2560z m2875 2375 c447 -59 830 -223 1189 -508 452 -359 778 -926 861 -1498
111 -768 -118 -1489 -649 -2036 -193 -200 -407 -357 -638 -469 -51 -25 -101
-49 -110 -54 -10 -6 -24 -10 -32 -10 -8 0 -31 -9 -50 -21 -27 -16 -45 -19 -73
-14 -33 5 -39 3 -48 -17 -12 -28 -39 -34 -71 -17 -13 7 -25 10 -26 8 -2 -2 -8
-13 -14 -24 -13 -24 -104 -41 -134 -25 -10 5 -36 10 -58 10 -30 0 -43 -6 -55
-23 -13 -19 -18 -20 -35 -10 -16 10 -21 9 -26 -2 -6 -17 -37 -20 -53 -4 -16
16 -125 13 -134 -4 -6 -9 -26 -15 -55 -15 -38 -1 -47 2 -51 18 -3 11 -9 20
-13 20 -5 0 -6 -9 -3 -20 3 -12 -1 -22 -10 -26 -18 -7 -87 21 -87 35 0 11 -87
4 -105 -9 -5 -4 -23 -10 -39 -14 -24 -6 -33 -3 -46 14 -14 18 -19 19 -48 9
-26 -9 -37 -8 -56 4 -15 11 -27 12 -33 6 -11 -11 -188 14 -228 32 -11 5 -58
22 -104 39 -46 16 -95 37 -107 45 -13 8 -30 15 -39 15 -22 0 -123 47 -154 71
-13 11 -44 28 -68 39 -24 10 -69 37 -101 58 -31 21 -68 46 -82 55 -80 53 -131
90 -138 101 -4 6 -23 23 -42 37 -84 64 -184 161 -250 244 -40 50 -87 106 -105
127 -18 20 -54 67 -81 105 -26 37 -55 77 -65 88 -17 21 -126 230 -167 321 -29
66 -112 309 -112 329 0 8 -12 39 -26 68 -23 48 -25 64 -27 194 -1 79 -5 143
-10 143 -19 0 -26 65 -29 261 -2 209 -2 212 20 227 12 8 22 20 22 27 0 7 9 23
20 37 27 36 78 135 85 170 4 16 13 32 21 35 17 6 18 35 3 50 -13 13 3 121 26
183 8 19 16 48 20 65 8 37 22 55 45 55 23 0 15 47 -11 61 -27 14 -24 48 6 59
14 5 25 14 25 20 0 5 22 31 49 58 54 53 70 86 46 96 -23 8 -18 28 15 59 17 16
30 34 30 40 0 6 6 18 14 26 8 9 27 39 42 67 86 153 197 293 356 450 141 139
224 201 378 282 434 231 940 322 1425 257z"/>
<path d="M353 2176 c4 -10 7 -24 7 -32 0 -8 5 -14 11 -14 15 0 6 53 -10 58
-10 3 -12 0 -8 -12z"/>
</g>
</svg>
