<?xml version="1.0" standalone="no"?>
<!DOCTYPE svg PUBLIC "-//W3C//DTD SVG 20010904//EN"
 "http://www.w3.org/TR/2001/REC-SVG-20010904/DTD/svg10.dtd">
<svg version="1.0" xmlns="http://www.w3.org/2000/svg"
 width="512.000000pt" height="512.000000pt" viewBox="0 0 512.000000 512.000000"
 preserveAspectRatio="xMidYMid meet">
<metadata>
Created by potrace 1.16, written by Peter Selinger 2001-2019
</metadata>
<g transform="translate(0.000000,512.000000) scale(0.100000,-0.100000)"
fill="#000000" stroke="none">
<path d="M0 2560 l0 -2560 2560 0 2560 0 0 2560 0 2560 -2560 0 -2560 0 0
-2560z m2714 2381 c3 -4 25 -14 49 -20 54 -15 141 -101 151 -147 4 -18 16 -40
27 -50 23 -20 24 -37 5 -53 -20 -16 -1 -61 46 -110 19 -20 41 -51 49 -68 8
-18 17 -33 22 -33 13 0 44 -83 52 -138 6 -43 4 -53 -9 -58 -9 -3 -23 -1 -31 6
-12 10 -15 9 -15 -4 0 -9 4 -16 9 -16 13 0 41 -58 41 -83 0 -10 11 -28 25 -39
14 -11 25 -24 25 -30 0 -21 -33 -48 -59 -48 -18 0 -30 -7 -36 -22 -6 -13 -20
-27 -32 -33 -25 -11 -39 -61 -22 -81 6 -8 9 -25 7 -38 -4 -21 -3 -23 13 -13
25 16 40 -1 43 -49 2 -22 6 -51 11 -67 4 -17 3 -33 -4 -41 -7 -9 -12 -61 -13
-137 -1 -72 -6 -130 -12 -138 -8 -10 -8 -15 0 -18 6 -2 20 -10 30 -18 22 -16
12 -40 -22 -59 -25 -14 -34 -27 -34 -49 0 -10 -11 -33 -25 -52 -22 -28 -25
-40 -20 -82 3 -26 2 -61 -3 -78 -11 -37 7 -73 49 -97 29 -17 39 -51 19 -63
-13 -8 -13 -62 0 -70 5 -3 22 -33 37 -65 15 -33 32 -60 39 -60 6 0 18 -7 25
-17 8 -9 29 -22 47 -30 27 -11 32 -18 32 -48 0 -18 5 -37 10 -40 17 -10 11
-35 -13 -58 -32 -29 -39 -61 -17 -74 9 -6 33 -45 53 -86 28 -57 35 -82 31
-109 -4 -24 -1 -38 10 -47 18 -15 21 -42 7 -57 -6 -5 -11 -36 -12 -69 -1 -33
-5 -77 -9 -98 -5 -21 -4 -53 1 -73 8 -26 6 -39 -5 -56 -9 -13 -13 -32 -9 -50
4 -19 0 -35 -12 -48 -10 -11 -19 -43 -22 -82 -3 -35 -12 -72 -19 -83 -8 -11
-14 -34 -14 -51 0 -17 -8 -42 -18 -55 -24 -31 -42 -84 -42 -124 0 -18 -7 -38
-15 -45 -8 -7 -15 -21 -15 -32 0 -10 -9 -22 -20 -26 -18 -7 -19 -9 -5 -36 22
-42 18 -69 -15 -106 -16 -18 -30 -41 -30 -51 0 -9 -7 -22 -15 -29 -17 -14 -20
-56 -5 -65 17 -10 11 -43 -11 -58 -11 -8 -24 -28 -28 -43 -4 -16 -17 -34 -29
-40 -16 -8 -19 -13 -10 -22 9 -9 8 -18 -2 -39 -30 -58 -91 -143 -104 -143 -9
0 -12 -8 -9 -24 3 -13 0 -27 -6 -30 -6 -4 -11 -16 -11 -26 0 -10 -10 -26 -21
-34 -12 -8 -27 -25 -33 -37 -8 -16 -26 -27 -61 -35 -44 -10 -46 -12 -17 -13
36 -1 51 -23 32 -46 -7 -8 -21 -15 -31 -15 -12 0 -19 -7 -19 -19 0 -29 -28
-47 -50 -33 -12 7 -21 8 -25 2 -3 -6 -28 -8 -54 -6 -38 2 -50 -1 -59 -14 -9
-15 -7 -19 9 -23 13 -4 19 -12 17 -24 -3 -16 -14 -18 -95 -18 -50 0 -95 -3
-99 -8 -4 -4 -33 -7 -65 -7 -44 0 -60 4 -67 17 -9 14 -11 14 -21 -5 -12 -22
-45 -30 -56 -13 -3 5 -20 7 -38 5 -17 -3 -57 3 -87 13 -43 14 -56 23 -58 40
-4 26 -17 30 -26 8 -3 -8 -14 -15 -25 -15 -36 0 -225 72 -355 135 -559 271
-1007 773 -1207 1355 -206 597 -179 1218 76 1782 246 546 687 981 1235 1219
202 89 439 151 685 182 63 8 404 7 409 -2z"/>
<path d="M2060 281 c0 -12 28 -22 35 -12 3 5 -2 12 -11 15 -21 8 -24 8 -24 -3z"/>
</g>
</svg>
