<?xml version="1.0" standalone="no"?>
<!DOCTYPE svg PUBLIC "-//W3C//DTD SVG 20010904//EN"
 "http://www.w3.org/TR/2001/REC-SVG-20010904/DTD/svg10.dtd">
<svg version="1.0" xmlns="http://www.w3.org/2000/svg"
 width="512.000000pt" height="512.000000pt" viewBox="0 0 512.000000 512.000000"
 preserveAspectRatio="xMidYMid meet">
<metadata>
Created by potrace 1.16, written by Peter Selinger 2001-2019
</metadata>
<g transform="translate(0.000000,512.000000) scale(0.100000,-0.100000)"
fill="#000000" stroke="none">
<path d="M0 2560 l0 -2560 2560 0 2560 0 0 2560 0 2560 -2560 0 -2560 0 0
-2560z m2884 2375 c410 -54 839 -240 1175 -511 284 -229 540 -566 679 -894
141 -334 202 -627 202 -974 0 -848 -435 -1617 -1161 -2057 -173 -104 -400
-205 -444 -197 -14 3 -26 0 -29 -7 -7 -20 -96 -45 -148 -43 -37 2 -51 -2 -61
-16 -11 -15 -23 -18 -61 -14 -25 3 -48 2 -51 -2 -2 -4 -38 -5 -78 -2 -56 3
-82 0 -110 -13 -19 -9 -46 -15 -59 -13 -19 2 -23 9 -23 36 0 23 -4 31 -13 27
-8 -3 -22 -5 -31 -5 -12 0 -17 -7 -17 -23 1 -27 -40 -38 -50 -13 -5 12 -11 13
-24 6 -32 -17 -74 -11 -97 14 -13 13 -23 29 -23 35 0 6 -6 8 -13 5 -8 -3 -13
-15 -13 -27 1 -20 -4 -22 -54 -22 -47 0 -56 3 -65 22 -5 13 -16 23 -23 23 -7
0 -15 7 -19 15 -5 13 -8 13 -20 -5 -8 -11 -20 -20 -26 -20 -16 0 -57 44 -57
61 0 10 -3 10 -12 1 -16 -16 -55 -15 -65 1 -11 19 -71 47 -100 47 -16 0 -27 7
-30 19 -3 13 -17 21 -48 25 -72 11 -113 78 -53 88 21 4 21 5 -7 13 -16 4 -40
19 -52 32 -12 12 -32 23 -43 23 -12 0 -24 8 -27 18 -8 25 -129 122 -152 122
-12 0 -28 12 -38 28 -10 15 -24 31 -32 36 -32 20 -81 83 -111 143 -20 40 -42
67 -58 75 -16 8 -37 34 -52 65 -15 32 -33 54 -47 57 -11 3 -45 39 -75 78 -88
119 -91 124 -90 197 0 55 -6 77 -35 136 -20 40 -32 77 -29 89 3 11 1 25 -5 32
-16 20 4 87 31 101 l24 12 -26 10 c-41 15 -54 79 -18 88 24 6 25 16 4 48 -22
33 -11 59 21 53 14 -3 30 1 36 8 6 8 20 14 30 14 16 0 18 8 16 65 -2 35 -6 67
-10 71 -11 12 -8 52 5 60 7 5 4 10 -11 15 -30 12 -38 39 -16 55 17 13 17 15 2
32 -21 23 -21 46 -1 77 12 19 14 37 9 75 -4 27 -11 52 -16 56 -5 3 -9 22 -9
43 0 22 -6 44 -15 51 -8 7 -15 20 -15 30 0 10 -7 23 -15 30 -8 7 -15 21 -15
32 0 10 -7 29 -16 43 -18 27 -11 105 12 142 9 15 10 24 3 28 -13 9 -5 270 9
288 8 9 8 19 -1 34 -7 11 -22 38 -34 59 -32 56 -46 71 -68 75 -26 5 -31 34
-10 65 11 18 23 24 36 21 10 -3 19 -2 19 3 0 4 -9 10 -20 13 -29 7 -26 45 4
57 13 5 27 14 31 19 3 6 22 11 41 11 22 0 34 5 34 13 0 8 -10 13 -22 13 -16
-1 -24 5 -26 21 -2 16 8 29 42 52 31 21 46 40 51 62 4 17 15 33 24 36 13 3 16
17 15 69 0 35 -5 69 -12 76 -18 18 -14 64 8 100 11 18 20 46 20 61 0 15 7 30
15 33 8 4 15 17 15 29 0 13 5 27 10 30 6 3 10 18 10 34 0 21 11 36 49 64 26
20 53 37 59 37 6 0 16 17 23 38 16 51 73 118 119 142 38 20 57 45 40 55 -15
10 -12 45 5 51 8 4 15 12 15 20 0 7 16 26 37 41 20 15 55 44 77 63 61 53 120
89 261 159 118 58 276 94 545 124 64 7 334 -4 444 -18z"/>
<path d="M1120 1410 c0 -5 10 -10 23 -10 18 0 19 2 7 10 -19 13 -30 13 -30 0z"/>
</g>
</svg>
