<?xml version="1.0" standalone="no"?>
<!DOCTYPE svg PUBLIC "-//W3C//DTD SVG 20010904//EN"
 "http://www.w3.org/TR/2001/REC-SVG-20010904/DTD/svg10.dtd">
<svg version="1.0" xmlns="http://www.w3.org/2000/svg"
 width="512.000000pt" height="512.000000pt" viewBox="0 0 512.000000 512.000000"
 preserveAspectRatio="xMidYMid meet">
<metadata>
Created by potrace 1.16, written by Peter Selinger 2001-2019
</metadata>
<g transform="translate(0.000000,512.000000) scale(0.100000,-0.100000)"
fill="#000000" stroke="none">
<path d="M0 2560 l0 -2560 2560 0 2560 0 0 2560 0 2560 -2560 0 -2560 0 0
-2560z m3025 2340 c3 -5 12 -7 20 -4 7 3 68 -8 135 -25 709 -181 1325 -726
1599 -1415 127 -319 180 -632 168 -991 -6 -168 -18 -292 -37 -370 -5 -22 -19
-80 -31 -130 -165 -670 -643 -1254 -1279 -1561 -139 -68 -195 -89 -210 -79
-18 11 -11 35 14 45 13 5 27 13 30 19 7 10 64 41 76 41 4 0 31 23 61 51 30 28
70 61 90 74 20 13 46 39 57 57 12 18 34 42 50 52 25 16 28 23 19 37 -9 15 -6
23 16 46 34 36 97 121 97 131 0 4 27 36 60 70 46 49 60 70 60 93 0 17 10 45
23 62 32 45 47 77 47 98 0 10 8 24 18 31 13 9 21 31 25 72 4 36 13 66 25 80
10 11 25 37 33 56 7 19 29 52 48 73 30 34 35 46 36 90 0 46 3 52 23 55 13 2
25 -3 28 -12 8 -22 34 -20 34 2 0 13 -7 18 -22 18 -15 -1 -24 6 -26 19 -3 11
-12 25 -21 32 -15 11 -15 14 2 43 11 17 22 52 26 78 6 42 9 47 32 47 33 1 85
54 94 97 4 18 13 40 20 48 7 8 15 45 18 82 4 38 12 78 18 90 7 12 12 47 13 77
0 44 9 73 38 130 38 77 38 96 3 96 -14 0 -20 7 -20 21 -1 34 -48 114 -67 114
-25 0 -58 36 -58 63 0 13 -15 38 -35 57 -27 26 -35 42 -35 68 0 19 -8 49 -19
66 -10 17 -24 54 -30 81 -7 28 -24 67 -38 87 -22 33 -25 43 -17 80 13 72 8
185 -11 214 -9 14 -15 30 -13 36 2 5 -12 28 -32 49 -47 52 -91 140 -111 224
-7 27 -18 61 -26 75 -7 14 -13 33 -13 42 0 9 -4 20 -10 23 -5 3 -10 15 -10 26
0 10 -4 27 -9 37 -6 9 -12 29 -15 43 -3 15 -14 29 -25 32 -18 4 -27 20 -67
114 -9 22 -27 46 -40 52 -13 5 -31 25 -40 43 -9 18 -29 51 -45 73 -15 22 -30
55 -34 73 -5 26 -11 32 -31 32 -19 0 -28 8 -35 29 -7 19 -16 28 -25 24 -7 -3
-26 6 -41 20 -16 14 -48 43 -73 64 -127 108 -142 124 -137 150 3 17 0 23 -13
23 -10 0 -23 7 -30 15 -7 8 -18 15 -25 15 -7 0 -27 14 -45 30 -18 17 -39 30
-46 30 -8 0 -17 7 -20 15 -4 8 -15 15 -26 15 -11 0 -26 13 -36 30 -17 30 -26
34 -69 30 -13 -1 -28 8 -38 23 -10 16 -22 23 -34 20 -22 -5 -35 11 -27 32 6
17 32 20 41 5z"/>
</g>
</svg>
