<?xml version="1.0" standalone="no"?>
<!DOCTYPE svg PUBLIC "-//W3C//DTD SVG 20010904//EN"
 "http://www.w3.org/TR/2001/REC-SVG-20010904/DTD/svg10.dtd">
<svg version="1.0" xmlns="http://www.w3.org/2000/svg"
 width="512.000000pt" height="512.000000pt" viewBox="0 0 512.000000 512.000000"
 preserveAspectRatio="xMidYMid meet">
<metadata>
Created by potrace 1.16, written by Peter Selinger 2001-2019
</metadata>
<g transform="translate(0.000000,512.000000) scale(0.100000,-0.100000)"
fill="#000000" stroke="none">
<path d="M0 2560 l0 -2560 2560 0 2560 0 0 2560 0 2560 -2560 0 -2560 0 0
-2560z m2855 2375 c408 -54 735 -177 1065 -403 368 -250 711 -672 846 -1040
53 -144 103 -302 128 -402 59 -238 73 -708 27 -946 -52 -278 -188 -639 -282
-753 -16 -20 -29 -42 -29 -49 0 -30 -245 -357 -301 -402 -30 -24 -128 -120
-160 -157 -25 -27 -175 -143 -254 -194 -38 -25 -106 -69 -149 -97 -44 -29 -85
-52 -93 -52 -8 0 -34 -11 -59 -25 -49 -28 -74 -31 -92 -13 -9 9 -12 8 -12 -4
0 -19 -46 -58 -68 -58 -9 0 -24 -7 -34 -17 -15 -13 -23 -14 -44 -5 -33 16 -33
16 -44 -13 -11 -28 -57 -35 -66 -10 -11 27 -42 18 -46 -13 -3 -25 -7 -27 -63
-34 -43 -4 -64 -3 -73 7 -13 12 -68 6 -112 -12 -8 -3 -64 -5 -123 -4 -80 2
-113 -1 -130 -11 -12 -8 -41 -18 -65 -22 -38 -6 -43 -4 -51 15 -6 19 -9 20
-14 6 -9 -24 -59 -22 -80 3 -13 15 -24 18 -49 13 -18 -3 -37 -9 -43 -13 -5 -4
-28 -10 -50 -13 -33 -6 -43 -3 -55 13 -13 18 -20 19 -47 10 -24 -9 -37 -8 -54
0 -18 10 -24 9 -31 -4 -11 -20 -25 -20 -63 0 -16 9 -59 19 -95 24 -69 9 -227
59 -266 85 -13 8 -33 15 -44 15 -11 0 -31 6 -43 14 -12 7 -51 26 -87 42 -71
31 -265 142 -320 184 -19 15 -71 53 -115 85 -70 52 -303 275 -391 375 -46 53
-156 208 -208 292 -81 135 -185 373 -207 478 -6 30 -17 66 -24 80 -41 81 -87
366 -100 625 -7 136 20 404 57 558 18 75 25 90 45 98 13 5 21 14 18 19 -13 20
18 127 63 220 26 52 47 107 47 121 0 14 13 43 30 65 44 57 95 133 95 140 0 3
9 19 20 34 11 16 27 48 35 71 8 23 32 61 53 84 20 23 55 68 77 100 22 32 69
92 105 134 36 42 78 92 93 112 15 20 52 56 83 80 31 24 79 63 107 87 260 217
680 401 1052 461 181 29 169 28 385 29 122 1 236 -4 305 -13z"/>
</g>
</svg>
