<?xml version="1.0" standalone="no"?>
<!DOCTYPE svg PUBLIC "-//W3C//DTD SVG 20010904//EN"
 "http://www.w3.org/TR/2001/REC-SVG-20010904/DTD/svg10.dtd">
<svg version="1.0" xmlns="http://www.w3.org/2000/svg"
 width="512.000000pt" height="512.000000pt" viewBox="0 0 512.000000 512.000000"
 preserveAspectRatio="xMidYMid meet">
<metadata>
Created by potrace 1.16, written by Peter Selinger 2001-2019
</metadata>
<g transform="translate(0.000000,512.000000) scale(0.100000,-0.100000)"
fill="#000000" stroke="none">
<path d="M0 2560 l0 -2560 2560 0 2560 0 0 2560 0 2560 -2560 0 -2560 0 0
-2560z m2725 2389 c39 -6 81 -10 94 -10 52 2 313 -54 352 -75 14 -7 29 -11 32
-8 3 4 14 3 24 -1 10 -5 52 -20 93 -34 47 -17 78 -33 85 -46 5 -11 18 -19 27
-17 9 2 36 -9 60 -25 24 -15 63 -37 88 -49 25 -12 56 -34 69 -48 13 -14 44
-35 67 -47 24 -11 51 -33 61 -48 10 -16 43 -48 73 -73 30 -24 56 -54 58 -66 2
-13 11 -22 20 -22 27 0 62 -29 62 -51 0 -10 6 -19 13 -19 39 -1 241 -274 261
-355 4 -16 21 -41 38 -57 34 -32 58 -71 58 -96 0 -9 5 -30 11 -47 10 -26 9
-38 -6 -69 -14 -29 -15 -42 -7 -59 6 -12 13 -67 15 -122 6 -177 74 -338 137
-327 26 4 56 -47 41 -70 -16 -25 -14 -35 13 -71 17 -22 27 -52 32 -95 6 -59 5
-64 -15 -69 -18 -5 -21 -13 -21 -63 0 -61 -16 -88 -46 -76 -15 6 -15 4 -3 -10
9 -12 14 -47 15 -107 2 -82 4 -90 25 -101 31 -15 57 -64 58 -106 1 -19 -8 -67
-19 -105 -11 -38 -20 -86 -20 -105 0 -34 -41 -110 -59 -110 -15 0 -20 -39 -9
-76 6 -24 6 -39 -2 -48 -5 -8 -8 -21 -4 -30 3 -9 1 -22 -4 -29 -6 -7 -10 -28
-10 -47 3 -68 -43 -253 -69 -283 -9 -10 -16 -33 -15 -54 1 -26 -5 -43 -23 -60
-13 -14 -27 -38 -30 -54 -4 -16 -20 -39 -36 -51 -16 -12 -29 -27 -29 -34 0 -6
-7 -17 -15 -24 -9 -7 -23 -29 -32 -49 -22 -48 -81 -118 -104 -124 -11 -3 -20
-18 -24 -41 -4 -20 -18 -45 -31 -55 -13 -10 -24 -23 -24 -28 0 -12 -150 -173
-161 -173 -4 0 -32 -26 -61 -57 -98 -106 -182 -183 -199 -183 -9 0 -27 -11
-40 -25 -13 -13 -28 -25 -32 -25 -5 0 -32 -20 -60 -44 -33 -29 -64 -47 -89
-51 -23 -4 -38 -12 -38 -21 0 -15 -49 -44 -75 -44 -9 0 -19 9 -22 20 -8 29
-21 25 -15 -5 3 -20 -1 -27 -23 -35 -14 -5 -37 -10 -50 -10 -13 0 -34 -11 -47
-24 -17 -18 -38 -25 -81 -29 -39 -4 -63 -12 -71 -23 -7 -9 -19 -15 -27 -12 -8
3 -19 -2 -26 -11 -10 -13 -15 -14 -32 -3 -35 21 -96 15 -114 -11 -14 -21 -16
-21 -43 -6 -21 12 -37 14 -59 8 -16 -5 -37 -6 -45 -3 -33 13 -124 13 -134 0
-17 -21 -95 -30 -102 -12 -4 11 -12 12 -39 3 -42 -13 -69 -3 -62 22 3 11 -1
22 -8 25 -20 7 -25 -4 -13 -24 9 -14 9 -22 -2 -35 -12 -14 -25 -16 -73 -11
-68 7 -99 21 -96 44 3 34 -4 46 -10 17 -7 -36 -49 -49 -57 -18 -3 11 -14 24
-24 30 -15 10 -17 9 -13 -7 8 -31 -17 -32 -111 -5 -731 212 -1319 758 -1576
1464 -261 717 -179 1483 225 2116 353 552 880 921 1511 1059 220 48 510 67
669 45z"/>
<path d="M4410 2823 c0 -26 13 -43 34 -43 12 0 28 -6 35 -12 10 -11 11 -8 6
15 -5 17 -2 33 5 42 11 13 7 15 -34 13 -27 -2 -46 -8 -46 -15z"/>
</g>
</svg>
