<?xml version="1.0" standalone="no"?>
<!DOCTYPE svg PUBLIC "-//W3C//DTD SVG 20010904//EN"
 "http://www.w3.org/TR/2001/REC-SVG-20010904/DTD/svg10.dtd">
<svg version="1.0" xmlns="http://www.w3.org/2000/svg"
 width="512.000000pt" height="512.000000pt" viewBox="0 0 512.000000 512.000000"
 preserveAspectRatio="xMidYMid meet">
<metadata>
Created by potrace 1.16, written by Peter Selinger 2001-2019
</metadata>
<g transform="translate(0.000000,512.000000) scale(0.100000,-0.100000)"
fill="#000000" stroke="none">
<path d="M0 2560 l0 -2560 2560 0 2560 0 0 2560 0 2560 -2560 0 -2560 0 0
-2560z m2663 2372 c10 -9 17 -23 16 -31 -1 -9 1 -24 5 -33 5 -11 1 -28 -11
-45 -11 -15 -23 -36 -26 -45 -4 -12 -17 -18 -37 -18 -19 0 -30 -5 -30 -14 0
-8 -15 -23 -32 -35 -23 -14 -28 -21 -15 -21 26 0 39 -44 27 -89 -14 -50 -13
-58 10 -64 11 -3 22 -17 26 -33 4 -16 12 -36 19 -44 8 -8 14 -33 15 -55 0 -22
2 -55 2 -74 1 -22 -5 -38 -16 -46 -13 -10 -16 -21 -11 -49 6 -31 4 -37 -19
-47 -20 -10 -23 -15 -16 -30 16 -28 12 -35 -30 -63 -28 -19 -40 -33 -40 -51 0
-13 -5 -27 -11 -30 -7 -5 -5 -15 6 -32 18 -27 14 -80 -10 -126 -13 -26 -13
-27 10 -21 35 9 42 -19 22 -75 -11 -32 -13 -49 -6 -58 13 -15 4 -64 -23 -123
-12 -25 -22 -54 -22 -65 -1 -14 -8 -20 -23 -20 -25 -1 -26 -7 -10 -43 14 -31
-1 -55 -39 -62 -28 -5 -29 -7 -29 -60 0 -52 -2 -56 -33 -72 -46 -22 -47 -25
-30 -45 9 -10 17 -22 19 -28 2 -5 17 -31 34 -57 23 -37 36 -48 60 -50 26 -3
30 -7 30 -31 1 -17 8 -33 18 -38 10 -6 17 -22 17 -40 0 -25 3 -29 19 -24 32
10 70 -5 84 -34 7 -14 20 -36 28 -49 12 -20 12 -25 -1 -35 -9 -7 -16 -24 -17
-39 -1 -16 -3 -36 -3 -45 -1 -10 -6 -32 -11 -48 -20 -67 -26 -198 -11 -255 12
-48 12 -55 -2 -66 -10 -7 -14 -18 -10 -28 3 -9 2 -22 -4 -29 -14 -17 -18 -74
-8 -120 6 -28 5 -42 -6 -55 -19 -22 -16 -77 6 -101 23 -25 17 -63 -12 -76 -21
-9 -22 -15 -20 -83 2 -41 6 -76 11 -79 11 -6 9 -47 -3 -59 -8 -8 -6 -24 4 -55
20 -55 20 -70 1 -105 -8 -16 -15 -39 -15 -51 0 -12 -8 -26 -17 -32 -16 -9 -18
-25 -15 -155 2 -117 0 -146 -12 -153 -16 -9 -23 -59 -11 -86 4 -10 2 -24 -5
-33 -8 -8 -14 -43 -14 -80 -1 -36 -6 -68 -12 -72 -17 -12 -11 -66 9 -74 31
-13 31 -38 0 -71 -17 -18 -28 -38 -26 -45 7 -18 -16 -42 -41 -42 -20 -1 -20
-1 -2 -11 17 -10 18 -20 11 -102 -8 -111 -17 -137 -47 -137 -21 -1 -21 -2 -5
-11 21 -12 23 -57 2 -65 -8 -4 -15 -13 -15 -20 0 -8 -7 -17 -17 -21 -14 -5
-13 -8 5 -14 29 -11 28 -45 -1 -64 -24 -16 -80 -12 -104 7 -8 6 -12 2 -15 -14
-4 -32 -43 -32 -42 0 1 27 -22 29 -29 2 -7 -25 -33 -36 -52 -20 -18 15 -45 67
-46 89 -1 9 -4 5 -8 -9 -4 -16 -14 -25 -26 -25 -11 0 -24 -6 -28 -12 -13 -21
-56 -15 -82 11 -15 15 -27 20 -33 14 -10 -10 -130 23 -157 42 -5 4 -37 17 -70
31 -441 175 -889 584 -1137 1039 -142 260 -213 469 -275 810 -25 138 -25 542
1 695 52 320 141 575 294 845 231 408 592 748 1022 963 223 112 434 177 696
216 169 25 232 29 349 23 62 -3 96 -9 108 -20z"/>
<path d="M2248 453 c-41 -6 -34 -20 7 -15 19 2 32 8 29 13 -3 5 -6 8 -7 8 -1
-1 -14 -4 -29 -6z"/>
</g>
</svg>
