<?xml version="1.0" standalone="no"?>
<!DOCTYPE svg PUBLIC "-//W3C//DTD SVG 20010904//EN"
 "http://www.w3.org/TR/2001/REC-SVG-20010904/DTD/svg10.dtd">
<svg version="1.0" xmlns="http://www.w3.org/2000/svg"
 width="512.000000pt" height="512.000000pt" viewBox="0 0 512.000000 512.000000"
 preserveAspectRatio="xMidYMid meet">
<metadata>
Created by potrace 1.16, written by Peter Selinger 2001-2019
</metadata>
<g transform="translate(0.000000,512.000000) scale(0.100000,-0.100000)"
fill="#000000" stroke="none">
<path d="M0 2560 l0 -2560 2560 0 2560 0 0 2560 0 2560 -2560 0 -2560 0 0
-2560z m3308 2257 c4 -20 -25 -34 -40 -19 -15 15 -1 44 19 40 10 -2 19 -11 21
-21z m140 -33 c901 -358 1506 -1254 1502 -2225 -2 -350 -65 -655 -197 -954
-152 -345 -372 -641 -646 -870 -103 -87 -123 -97 -133 -70 -4 10 19 40 67 88
94 93 146 152 164 186 7 15 21 34 30 41 9 7 23 27 31 44 27 60 65 121 89 146
14 15 25 30 25 34 0 4 9 19 20 33 11 14 20 36 20 49 0 13 13 42 28 66 77 118
92 143 92 157 0 9 9 27 20 41 11 14 20 31 20 38 0 7 7 27 16 43 21 42 53 167
54 210 0 19 7 60 16 90 15 49 24 84 54 214 5 22 9 77 10 121 0 76 2 83 25 98
21 14 24 20 14 37 -6 12 -8 32 -4 46 3 14 2 30 -4 36 -14 18 -8 141 7 160 11
12 12 31 5 79 -7 57 -10 63 -33 63 -19 0 -26 7 -33 35 -17 69 -18 117 -4 174
14 53 14 62 -5 129 -10 40 -26 80 -35 89 -10 12 -14 27 -10 47 4 20 2 31 -8
35 -8 3 -15 12 -15 19 0 8 -6 20 -14 26 -8 7 -24 31 -36 53 -11 22 -34 57 -49
77 -29 36 -38 62 -48 133 -3 21 -11 42 -19 49 -8 6 -14 16 -14 22 0 5 -11 25
-25 42 -13 18 -32 52 -41 76 -9 24 -23 49 -32 56 -8 7 -20 22 -26 35 -24 45
-41 71 -65 97 -13 14 -27 35 -33 46 -5 11 -15 30 -22 43 -17 29 -148 173 -201
221 -21 20 -49 45 -61 57 -12 12 -29 24 -38 27 -9 4 -16 13 -16 21 0 22 -142
139 -215 176 -11 6 -42 24 -70 40 -27 16 -59 34 -70 39 -12 5 -27 16 -34 25
-7 9 -22 16 -32 16 -10 0 -21 5 -24 10 -3 6 -26 19 -50 30 -42 19 -63 49 -50
70 10 16 31 12 103 -16z"/>
</g>
</svg>
