<?xml version="1.0" standalone="no"?>
<!DOCTYPE svg PUBLIC "-//W3C//DTD SVG 20010904//EN"
 "http://www.w3.org/TR/2001/REC-SVG-20010904/DTD/svg10.dtd">
<svg version="1.0" xmlns="http://www.w3.org/2000/svg"
 width="512.000000pt" height="512.000000pt" viewBox="0 0 512.000000 512.000000"
 preserveAspectRatio="xMidYMid meet">
<metadata>
Created by potrace 1.16, written by Peter Selinger 2001-2019
</metadata>
<g transform="translate(0.000000,512.000000) scale(0.100000,-0.100000)"
fill="#000000" stroke="none">
<path d="M0 2560 l0 -2560 2560 0 2560 0 0 2560 0 2560 -2560 0 -2560 0 0
-2560z m2964 2355 c244 -42 420 -98 641 -205 261 -127 439 -254 650 -465 301
-300 494 -629 614 -1046 35 -121 55 -232 75 -419 65 -595 -109 -1195 -495
-1701 -35 -46 -122 -142 -194 -214 -239 -242 -503 -414 -834 -545 -68 -27 -87
-31 -102 -22 -16 10 -19 9 -19 -3 0 -25 -48 -38 -147 -40 -79 -2 -95 -5 -110
-23 -22 -25 -101 -39 -109 -19 -4 10 -23 13 -77 10 -40 -3 -76 -9 -81 -14 -14
-13 -70 -11 -85 4 -10 10 -14 9 -22 -5 -13 -23 -54 -23 -78 1 -11 11 -24 15
-32 11 -8 -4 -46 -10 -85 -14 -54 -5 -73 -4 -82 7 -7 9 -28 12 -58 11 -26 -2
-56 2 -67 8 -12 6 -48 13 -81 15 -34 2 -68 10 -76 17 -19 17 -145 76 -179 85
-14 4 -30 17 -36 29 -6 13 -19 22 -32 22 -13 0 -40 16 -62 35 -21 19 -45 35
-54 35 -9 0 -24 11 -35 25 -11 14 -27 25 -35 25 -25 0 -117 79 -117 100 0 11
-5 20 -11 20 -42 0 -118 58 -119 90 0 8 -9 21 -20 28 -13 8 -20 23 -20 41 0
32 -31 60 -85 78 -19 6 -31 17 -33 30 -2 12 -12 23 -24 26 -16 5 -20 12 -16
37 3 21 1 27 -6 20 -16 -16 -56 -12 -63 8 -3 9 -15 29 -25 44 -10 14 -18 33
-18 41 0 9 -18 35 -41 59 -22 23 -52 63 -67 88 -15 24 -35 53 -44 62 -10 10
-18 24 -18 31 0 8 -11 19 -25 25 -14 6 -25 20 -25 30 0 11 -11 30 -25 44 -19
19 -26 38 -29 85 -3 33 -10 72 -16 87 -5 15 -9 37 -9 49 1 29 -16 94 -29 110
-5 7 -13 31 -17 54 -6 38 -4 42 22 55 25 12 28 18 25 56 -5 56 21 112 51 112
19 0 22 5 22 42 -1 34 -8 50 -33 78 -20 21 -31 42 -28 52 2 10 -7 34 -20 54
-28 41 -28 69 1 69 11 1 25 4 30 7 13 8 11 98 -3 165 -6 28 -9 81 -6 118 3 52
1 73 -11 92 -23 34 -13 50 35 58 40 7 41 8 24 26 -10 11 -18 35 -18 54 -1 19
-6 37 -13 39 -7 3 -12 24 -11 53 0 26 -3 76 -6 111 -4 35 -3 68 1 75 13 21 4
82 -23 157 -25 71 -25 77 -10 103 9 16 16 34 16 41 0 7 8 21 19 30 10 9 21 34
25 54 3 20 13 48 23 62 10 14 18 39 18 55 0 22 6 33 23 40 20 9 27 26 23 66
-3 25 28 89 43 89 9 0 12 7 9 21 -4 13 2 27 16 40 11 11 21 28 21 37 0 23 19
42 41 42 17 0 29 19 29 48 0 9 12 40 25 67 14 28 25 62 25 76 0 40 21 74 71
111 24 19 53 52 63 73 11 22 23 48 28 57 4 10 8 29 8 42 0 17 25 50 85 110 46
47 88 86 93 86 5 0 36 20 68 45 31 25 67 45 78 45 12 0 27 9 34 20 7 11 23 20
36 20 13 0 29 7 36 15 7 8 31 20 54 27 22 6 52 20 65 30 13 10 34 18 46 18 12
0 25 3 29 7 8 9 137 39 256 59 228 40 515 40 754 -1z"/>
<path d="M875 2210 c3 -5 8 -10 11 -10 2 0 4 5 4 10 0 6 -5 10 -11 10 -5 0 -7
-4 -4 -10z"/>
</g>
</svg>
