<?xml version="1.0" standalone="no"?>
<!DOCTYPE svg PUBLIC "-//W3C//DTD SVG 20010904//EN"
 "http://www.w3.org/TR/2001/REC-SVG-20010904/DTD/svg10.dtd">
<svg version="1.0" xmlns="http://www.w3.org/2000/svg"
 width="512.000000pt" height="512.000000pt" viewBox="0 0 512.000000 512.000000"
 preserveAspectRatio="xMidYMid meet">
<metadata>
Created by potrace 1.16, written by Peter Selinger 2001-2019
</metadata>
<g transform="translate(0.000000,512.000000) scale(0.100000,-0.100000)"
fill="#000000" stroke="none">
<path d="M0 2560 l0 -2560 2560 0 2560 0 0 2560 0 2560 -2560 0 -2560 0 0
-2560z m2878 2357 c4 -20 -25 -34 -40 -19 -15 15 -1 44 19 40 10 -2 19 -11 21
-21z m161 -8 c247 -47 587 -183 791 -314 210 -135 462 -362 603 -542 130 -165
274 -413 341 -588 15 -38 31 -79 36 -90 27 -64 83 -281 111 -431 19 -102 23
-155 23 -374 1 -260 -3 -302 -46 -500 -43 -203 -118 -421 -198 -580 -221 -438
-589 -814 -1024 -1045 -170 -90 -417 -184 -451 -171 -26 10 -13 38 29 59 21
11 49 30 61 43 13 13 34 26 48 29 17 5 23 12 20 24 -3 11 5 24 21 35 14 9 26
22 26 29 0 14 53 57 70 57 5 0 10 9 10 21 0 11 14 34 30 51 17 16 30 40 30 53
0 12 7 28 15 35 8 7 15 20 15 29 0 10 13 27 29 39 16 12 35 38 41 59 7 21 17
43 24 48 24 21 45 63 40 82 -4 14 2 25 20 37 14 9 26 23 26 30 0 7 7 19 15 26
8 7 15 23 15 35 0 13 10 45 21 72 16 35 21 68 21 120 0 40 4 75 9 78 4 3 16
23 24 43 9 20 23 51 32 67 54 104 56 107 75 102 12 -4 24 3 34 19 9 13 24 24
33 24 9 0 22 10 29 21 17 27 7 115 -14 123 -16 6 -19 42 -4 51 5 3 7 35 6 71
-3 50 -10 72 -30 98 -24 32 -25 36 -16 121 6 54 15 94 25 104 8 10 12 20 9 24
-4 3 -8 41 -11 85 -3 69 -1 80 16 96 12 11 29 16 41 13 11 -3 23 -1 26 4 3 5
16 9 30 9 17 0 24 5 24 20 0 11 6 29 12 40 10 15 10 22 0 32 -15 15 -16 70 0
86 19 19 16 70 -6 76 -17 4 -18 11 -13 57 4 29 11 57 17 63 5 5 10 18 10 28 0
9 7 21 16 26 24 13 9 48 -26 61 -41 14 -80 58 -80 90 0 14 -9 41 -21 60 -11
18 -18 40 -14 49 3 9 -9 28 -35 52 -28 26 -40 45 -40 64 0 41 -16 63 -54 76
-22 7 -44 26 -61 53 -16 23 -34 46 -42 50 -7 4 -13 17 -13 27 0 10 -4 21 -9
24 -8 6 -21 92 -24 171 -1 22 -8 45 -16 51 -10 7 -11 17 -6 30 16 36 13 108
-6 129 -9 11 -23 39 -30 63 -7 23 -18 47 -26 53 -7 6 -13 16 -13 21 0 5 -16
23 -35 41 -19 17 -35 37 -35 43 0 7 -16 31 -35 54 -38 45 -42 59 -23 78 9 9 8
12 -7 12 -21 0 -95 83 -95 107 0 17 -21 56 -37 66 -6 4 -14 21 -18 37 -4 17
-11 30 -16 30 -14 0 -119 81 -119 91 0 5 -5 9 -11 9 -20 0 -79 70 -79 93 0 16
-12 27 -43 42 -23 10 -53 29 -67 41 -93 82 -119 102 -152 117 -36 17 -55 47
-43 67 9 14 22 13 144 -11z"/>
</g>
</svg>
