<?xml version="1.0" standalone="no"?>
<!DOCTYPE svg PUBLIC "-//W3C//DTD SVG 20010904//EN"
 "http://www.w3.org/TR/2001/REC-SVG-20010904/DTD/svg10.dtd">
<svg version="1.0" xmlns="http://www.w3.org/2000/svg"
 width="512.000000pt" height="512.000000pt" viewBox="0 0 512.000000 512.000000"
 preserveAspectRatio="xMidYMid meet">
<metadata>
Created by potrace 1.16, written by Peter Selinger 2001-2019
</metadata>
<g transform="translate(0.000000,512.000000) scale(0.100000,-0.100000)"
fill="#000000" stroke="none">
<path d="M0 2560 l0 -2560 2560 0 2560 0 0 2560 0 2560 -2560 0 -2560 0 0
-2560z m2597 2374 c4 -12 7 -12 18 2 10 15 25 16 111 11 115 -7 262 -29 389
-58 461 -106 941 -396 1238 -749 165 -196 239 -307 342 -515 404 -819 316
-1782 -231 -2510 -203 -271 -486 -514 -784 -673 -164 -87 -470 -202 -539 -202
-16 0 -32 -4 -35 -9 -13 -20 -245 -37 -278 -20 -10 6 -18 16 -18 24 0 8 -4 15
-9 15 -5 0 -7 -9 -4 -20 7 -27 -25 -39 -42 -16 -9 12 -20 15 -40 10 -21 -5
-27 -3 -31 13 -4 14 -19 22 -52 29 -37 7 -47 13 -47 29 0 11 -6 25 -14 31 -8
6 -11 18 -8 28 4 10 1 16 -7 16 -24 0 -67 42 -65 64 3 45 -2 66 -15 66 -8 0
-31 15 -51 34 -20 19 -42 37 -50 40 -11 4 -13 19 -11 56 4 47 1 53 -25 72 -16
12 -29 30 -29 39 0 10 -5 21 -10 24 -6 4 -10 14 -9 23 5 51 -2 71 -23 74 -19
2 -23 10 -24 43 -1 22 2 45 7 51 6 8 4 14 -5 17 -10 4 -15 18 -14 41 1 19 -4
41 -9 48 -27 33 -74 131 -69 144 3 8 18 14 33 14 17 0 33 8 41 20 7 11 19 20
27 20 7 0 20 12 27 28 8 16 21 27 33 27 13 0 26 13 38 38 10 21 24 40 31 43 8
3 12 14 9 24 -3 11 -2 28 2 37 11 25 6 57 -11 66 -8 4 -14 17 -14 27 0 10 -4
22 -10 25 -18 11 -10 50 16 74 23 22 24 25 8 34 -9 5 -36 9 -59 9 -58 -2 -82
24 -66 70 9 26 9 33 -4 40 -8 5 -15 17 -15 27 0 10 -13 37 -30 59 -17 23 -30
53 -30 67 0 14 -4 25 -10 25 -21 0 -50 41 -50 70 0 17 -7 41 -15 54 -9 13 -18
41 -20 62 -2 22 -5 40 -6 42 -1 1 -2 33 -3 71 -1 63 -4 72 -38 116 -21 27 -38
54 -38 62 0 20 28 27 45 13 9 -7 16 -11 18 -9 1 2 7 13 13 24 6 11 19 20 29
20 16 0 24 -10 45 -54 10 -24 29 -25 23 -2 -4 14 1 23 13 28 31 11 33 23 8 50
-28 30 -31 55 -9 73 20 17 19 50 -4 79 -18 24 -21 24 -61 12 -48 -14 -51 -12
-65 37 -12 40 -42 55 -57 28 -13 -24 -36 -20 -79 15 -44 35 -48 48 -19 74 34
31 62 95 55 127 -6 25 -3 30 24 39 17 6 31 18 31 27 0 28 61 112 81 112 10 0
19 4 19 8 0 5 -10 8 -22 8 -16 -1 -23 5 -23 18 0 28 30 44 55 29 10 -7 22 -9
24 -4 3 5 -1 11 -9 15 -19 7 -19 35 0 42 10 4 15 20 15 44 0 22 4 41 10 45 5
3 6 13 3 21 -3 8 0 26 7 38 10 20 8 27 -14 51 -30 33 -32 53 -8 86 36 51 44
70 32 84 -12 14 -6 69 10 90 4 6 12 24 18 42 9 27 8 32 -9 36 -12 3 -19 14
-19 27 0 13 -7 28 -17 35 -11 8 -14 18 -8 31 4 10 7 56 7 101 -1 45 3 85 8 88
16 10 11 56 -11 103 -18 37 -20 47 -9 67 10 20 9 27 -6 48 -11 14 -31 33 -46
42 -34 20 -36 40 -4 57 13 7 45 33 72 57 45 42 47 47 46 94 -1 33 -7 57 -20
71 -32 36 -55 101 -44 122 19 35 50 57 73 51 16 -4 19 -3 10 6 -16 16 -14 37
7 44 9 3 26 14 37 23 11 10 41 25 67 35 39 14 51 15 63 5 12 -10 15 -10 15 2
0 27 21 35 96 36 57 0 77 -4 81 -14z"/>
<path d="M2235 4356 c19 -14 45 -11 45 5 0 5 -14 9 -32 9 -30 0 -30 -1 -13
-14z"/>
<path d="M2403 2699 c-13 -13 5 -59 24 -59 12 0 35 55 26 64 -10 10 -38 7 -50
-5z"/>
</g>
</svg>
