<?xml version="1.0" standalone="no"?>
<!DOCTYPE svg PUBLIC "-//W3C//DTD SVG 20010904//EN"
 "http://www.w3.org/TR/2001/REC-SVG-20010904/DTD/svg10.dtd">
<svg version="1.0" xmlns="http://www.w3.org/2000/svg"
 width="512.000000pt" height="512.000000pt" viewBox="0 0 512.000000 512.000000"
 preserveAspectRatio="xMidYMid meet">
<metadata>
Created by potrace 1.16, written by Peter Selinger 2001-2019
</metadata>
<g transform="translate(0.000000,512.000000) scale(0.100000,-0.100000)"
fill="#000000" stroke="none">
<path d="M0 2560 l0 -2560 2560 0 2560 0 0 2560 0 2560 -2560 0 -2560 0 0
-2560z m2158 2337 c2 -11 -6 -21 -25 -28 -15 -6 -39 -16 -53 -21 -14 -6 -32
-14 -40 -19 -41 -23 -105 -49 -121 -49 -11 0 -19 -4 -19 -9 0 -5 -35 -26 -77
-47 -43 -21 -85 -44 -93 -50 -15 -12 -55 -35 -135 -79 -82 -45 -101 -55 -148
-71 -36 -13 -53 -26 -68 -53 -53 -98 -51 -96 -121 -126 -50 -23 -159 -124
-209 -195 -22 -32 -47 -61 -54 -64 -7 -2 -20 -17 -28 -33 -8 -15 -24 -46 -36
-68 -12 -21 -21 -49 -21 -61 0 -12 -7 -27 -15 -34 -8 -7 -15 -24 -15 -39 0
-17 -12 -37 -35 -58 -29 -27 -34 -37 -29 -61 5 -25 1 -33 -30 -57 -20 -15 -36
-36 -36 -47 0 -19 1 -19 18 3 25 29 52 20 52 -19 0 -15 -5 -33 -12 -40 -17
-17 -48 -15 -55 5 -5 14 -8 13 -15 -7 -6 -17 -14 -21 -32 -18 -19 4 -22 1 -18
-14 4 -15 -26 -93 -56 -147 -9 -16 -25 -26 -56 -35 -15 -5 -17 -13 -12 -46 4
-24 2 -41 -5 -46 -7 -4 -9 -24 -6 -54 4 -32 1 -54 -8 -66 -8 -12 -10 -25 -4
-35 27 -50 10 -210 -23 -217 -10 -2 -14 -11 -10 -28 3 -19 0 -26 -17 -31 -16
-4 -20 -11 -16 -29 3 -13 7 -35 10 -48 3 -13 -3 -39 -13 -57 -23 -46 -21 -235
3 -286 9 -19 14 -41 11 -48 -3 -8 -1 -17 4 -20 6 -4 10 -14 10 -23 0 -10 13
-22 31 -29 21 -8 30 -18 27 -30 -1 -10 0 -23 4 -28 13 -22 20 -83 9 -89 -6 -4
-11 -15 -11 -25 0 -15 8 -18 38 -17 l37 1 1 -55 c1 -77 1 -78 25 -82 30 -4 65
-110 51 -156 -10 -32 -1 -93 18 -117 4 -5 10 -35 14 -65 5 -40 16 -65 40 -95
32 -40 62 -122 95 -257 11 -47 21 -68 33 -71 10 -3 18 -14 18 -25 0 -11 8 -22
19 -25 21 -5 66 -88 59 -108 -3 -8 13 -42 34 -77 21 -34 38 -66 38 -70 0 -4
27 -40 59 -80 33 -40 63 -81 66 -92 4 -11 10 -20 15 -20 5 0 27 -18 50 -40 24
-23 59 -50 79 -61 69 -39 136 -89 143 -109 4 -11 16 -20 27 -20 24 0 56 -43
47 -65 -8 -23 -25 -19 -122 32 -495 257 -893 700 -1103 1225 -54 136 -87 247
-119 398 -37 175 -44 234 -49 420 -8 274 18 480 98 760 28 102 34 117 58 170
6 14 18 45 26 69 36 104 188 369 290 506 112 150 270 314 420 437 262 213 646
399 965 467 108 23 123 22 128 -2z m-1250 -1260 c4 -20 -25 -34 -40 -19 -15
15 -1 44 19 40 10 -2 19 -11 21 -21z m746 -3237 c13 -13 -1 -40 -22 -40 -29 0
-56 25 -49 45 6 13 14 16 35 10 15 -3 31 -10 36 -15z"/>
</g>
</svg>
