<?xml version="1.0" standalone="no"?>
<!DOCTYPE svg PUBLIC "-//W3C//DTD SVG 20010904//EN"
 "http://www.w3.org/TR/2001/REC-SVG-20010904/DTD/svg10.dtd">
<svg version="1.0" xmlns="http://www.w3.org/2000/svg"
 width="512.000000pt" height="512.000000pt" viewBox="0 0 512.000000 512.000000"
 preserveAspectRatio="xMidYMid meet">
<metadata>
Created by potrace 1.16, written by Peter Selinger 2001-2019
</metadata>
<g transform="translate(0.000000,512.000000) scale(0.100000,-0.100000)"
fill="#000000" stroke="none">
<path d="M0 2560 l0 -2560 2560 0 2560 0 0 2560 0 2560 -2560 0 -2560 0 0
-2560z m2815 2375 c39 -9 78 -21 87 -26 10 -5 26 -9 36 -9 10 0 22 -4 28 -9 5
-4 30 -14 55 -20 26 -7 58 -25 73 -42 15 -16 37 -29 48 -29 11 0 34 -7 51 -16
18 -9 41 -22 52 -27 50 -26 62 -34 90 -60 25 -24 27 -31 17 -47 -10 -16 -9
-21 8 -30 11 -6 20 -16 20 -23 0 -7 14 -12 36 -12 25 0 40 -6 48 -19 11 -19
22 -33 63 -79 12 -13 27 -35 33 -48 5 -13 14 -31 19 -39 5 -8 12 -22 15 -30 9
-24 27 -50 82 -120 29 -36 55 -79 58 -95 5 -22 15 -34 36 -42 20 -7 30 -18 30
-32 0 -11 5 -23 10 -26 6 -3 10 -17 10 -31 0 -13 4 -24 10 -24 20 0 66 -120
87 -231 3 -15 -2 -37 -10 -50 -18 -27 -22 -64 -12 -96 5 -15 14 -21 32 -20 22
2 28 -5 47 -56 12 -31 32 -64 44 -73 12 -8 22 -24 22 -34 0 -11 9 -24 20 -30
23 -12 27 -48 5 -56 -8 -3 -24 1 -36 10 -20 14 -23 14 -35 -1 -8 -12 -9 -24
-2 -38 14 -30 -3 -90 -25 -89 -9 0 -30 1 -46 2 -43 3 -91 52 -91 94 0 18 -7
42 -15 52 -8 11 -15 26 -15 33 0 18 -39 55 -50 48 -14 -9 -12 -28 5 -61 19
-36 19 -51 1 -61 -8 -4 -16 -19 -18 -33 -3 -22 -7 -25 -45 -24 -38 1 -43 -2
-43 -22 0 -13 5 -26 11 -30 6 -3 9 -14 6 -24 -3 -11 1 -21 9 -24 9 -3 14 -21
14 -46 0 -34 4 -42 26 -50 21 -8 25 -15 20 -34 -5 -21 -2 -25 23 -31 35 -8 47
-20 55 -61 5 -23 2 -34 -14 -49 -13 -12 -18 -25 -14 -37 3 -10 0 -25 -6 -33
-10 -12 -8 -16 13 -24 13 -5 27 -18 31 -28 7 -16 8 -17 17 -1 13 24 76 22 90
-4 11 -21 5 -65 -17 -106 -9 -17 -10 -30 -4 -36 6 -6 10 -21 10 -35 0 -15 9
-37 20 -51 21 -27 26 -60 10 -76 -5 -5 -11 -31 -13 -57 -3 -39 0 -50 15 -58
22 -12 24 -47 3 -55 -24 -10 -16 -77 10 -85 16 -4 20 -13 19 -50 -2 -69 -17
-113 -39 -117 -26 -5 -54 -41 -55 -68 0 -12 7 -35 15 -50 25 -48 29 -93 11
-113 -20 -22 -21 -41 -2 -41 18 0 22 -6 30 -52 5 -29 2 -41 -17 -64 -23 -26
-23 -28 -8 -70 15 -42 15 -44 -7 -66 -19 -19 -25 -21 -42 -10 -23 14 -25 10
-7 -19 10 -17 9 -23 -9 -37 -11 -10 -24 -35 -27 -57 -4 -22 -12 -44 -19 -50
-7 -5 -12 -20 -10 -32 2 -16 -5 -26 -30 -39 -41 -21 -48 -31 -41 -65 3 -15 0
-29 -5 -33 -6 -3 -8 -15 -5 -26 3 -12 -1 -22 -10 -26 -8 -3 -18 -17 -21 -31
-4 -13 -19 -43 -34 -66 -15 -23 -36 -60 -47 -81 -13 -24 -35 -47 -58 -59 -23
-12 -37 -26 -37 -38 0 -11 -7 -22 -15 -25 -8 -4 -15 -12 -15 -20 0 -7 -8 -19
-18 -26 -10 -7 -21 -20 -25 -28 -25 -53 -45 -75 -70 -75 -17 1 -27 -5 -27 -13
0 -21 -49 -76 -74 -83 -14 -3 -20 -12 -18 -24 2 -10 -3 -24 -10 -29 -8 -6 -20
-21 -27 -33 -6 -13 -17 -23 -24 -23 -7 0 -23 -9 -37 -20 -14 -11 -36 -20 -49
-20 -20 0 -22 -3 -13 -12 7 -7 12 -18 12 -24 0 -19 -59 -45 -118 -51 -44 -5
-55 -10 -62 -29 -7 -16 -22 -25 -60 -33 -28 -6 -63 -9 -78 -6 -26 5 -26 5 -4
-5 15 -6 22 -17 20 -27 -3 -15 -14 -18 -63 -18 -33 -1 -66 -5 -74 -9 -7 -5
-67 -5 -132 -1 -85 5 -124 3 -134 -5 -7 -6 -33 -12 -57 -13 -39 -2 -43 0 -42
20 0 13 -3 23 -8 23 -4 0 -8 -4 -8 -9 0 -5 -12 -17 -27 -26 -21 -14 -30 -15
-45 -6 -14 9 -18 8 -18 -3 0 -24 -16 -27 -77 -12 -76 17 -103 32 -103 56 0 28
-18 34 -22 8 -5 -36 -37 -33 -190 18 -249 84 -533 240 -732 402 -94 77 -258
239 -340 337 -175 208 -338 503 -431 780 -132 396 -153 894 -55 1308 102 429
334 843 645 1150 404 400 911 637 1470 687 142 12 376 5 460 -15z m1163 -2922
c4 -26 -25 -73 -44 -73 -23 0 -27 25 -10 65 17 41 49 46 54 8z"/>
<path d="M3611 3220 c1 -8 4 -26 8 -40 5 -18 8 -21 12 -10 3 8 0 26 -8 40 -7
14 -12 18 -12 10z"/>
<path d="M2156 272 c-3 -6 3 -12 15 -15 12 -3 19 -1 16 6 -5 15 -24 20 -31 9z"/>
</g>
</svg>
