<?xml version="1.0" standalone="no"?>
<!DOCTYPE svg PUBLIC "-//W3C//DTD SVG 20010904//EN"
 "http://www.w3.org/TR/2001/REC-SVG-20010904/DTD/svg10.dtd">
<svg version="1.0" xmlns="http://www.w3.org/2000/svg"
 width="512.000000pt" height="512.000000pt" viewBox="0 0 512.000000 512.000000"
 preserveAspectRatio="xMidYMid meet">
<metadata>
Created by potrace 1.16, written by Peter Selinger 2001-2019
</metadata>
<g transform="translate(0.000000,512.000000) scale(0.100000,-0.100000)"
fill="#000000" stroke="none">
<path d="M0 2560 l0 -2560 2560 0 2560 0 0 2560 0 2560 -2560 0 -2560 0 0
-2560z m2500 2378 c15 -9 24 -9 43 1 27 14 66 1 68 -22 0 -7 4 -2 9 10 8 20
14 22 82 18 250 -12 551 -81 775 -177 670 -287 1167 -847 1371 -1543 110 -376
123 -806 38 -1204 -124 -573 -510 -1133 -1011 -1466 -123 -82 -207 -127 -411
-220 -53 -25 -245 -85 -313 -100 -36 -7 -84 -18 -106 -24 -22 -5 -67 -11 -100
-11 -33 -1 -73 -2 -90 -3 -24 -2 -30 2 -30 18 0 11 -6 25 -14 31 -8 6 -11 18
-8 28 4 9 2 16 -2 16 -23 0 -43 -15 -52 -36 -10 -27 -37 -32 -45 -9 -4 8 -11
15 -17 15 -15 0 -87 71 -87 86 0 7 -6 14 -13 17 -14 5 -37 71 -37 105 0 12 8
26 18 31 14 9 13 10 -11 11 -31 0 -51 35 -41 74 4 18 1 25 -15 29 -16 4 -21
13 -21 41 0 29 -4 36 -19 36 -27 0 -44 26 -38 57 3 16 -3 40 -15 61 -10 19
-17 40 -14 47 3 8 -2 16 -10 19 -11 4 -13 15 -8 43 3 21 10 42 15 48 15 16 10
44 -11 55 -26 14 -25 35 1 54 21 15 21 25 -3 58 -10 14 -9 21 6 37 11 12 27
21 36 21 9 0 24 8 34 18 13 16 14 24 5 51 -13 38 -2 56 40 64 23 5 30 13 38
45 7 28 7 45 -1 58 -16 28 -14 257 3 277 17 21 -2 57 -29 57 -11 0 -29 9 -39
19 -17 17 -19 31 -15 131 5 119 1 134 -46 178 -12 11 -24 37 -27 58 -3 22 -12
43 -20 47 -7 4 -13 13 -13 19 0 6 -7 19 -16 29 -20 22 -12 49 14 49 21 0 52
48 52 83 0 13 7 30 15 37 9 7 15 29 15 52 0 31 4 41 20 45 11 3 20 14 20 24 0
11 9 28 21 40 15 15 17 24 10 33 -7 9 -7 31 1 73 l11 61 -33 30 c-20 19 -31
36 -27 46 4 10 1 13 -9 9 -7 -3 -14 -14 -14 -24 0 -28 -30 -36 -49 -13 -10 12
-26 18 -42 16 -29 -3 -64 29 -56 53 4 9 19 15 36 15 23 0 30 5 33 25 6 30 -7
42 -27 25 -24 -20 -45 -4 -45 33 0 18 -5 38 -11 44 -17 17 -3 43 21 43 14 0
25 -10 33 -30 12 -27 13 -28 25 -10 22 36 15 58 -20 62 l-33 3 4 50 c2 28 4
61 5 75 1 31 39 36 44 5 7 -39 21 -40 52 -5 35 41 38 75 9 90 -18 10 -20 17
-14 63 6 48 5 53 -17 62 -26 11 -57 67 -58 106 0 14 9 34 19 43 21 19 37 68
32 99 -2 12 5 21 18 24 12 3 21 13 21 22 0 10 6 25 13 35 12 16 10 22 -10 44
-13 14 -23 33 -23 42 0 10 -7 20 -15 24 -9 3 -15 18 -15 35 0 16 -5 33 -11 37
-6 3 -8 17 -4 33 9 34 9 101 1 122 -4 9 -6 20 -5 25 2 5 -1 24 -5 42 -6 24 -3
40 8 57 24 36 20 53 -15 60 -37 8 -47 30 -25 54 23 25 20 50 -8 61 -55 20 -35
110 25 110 19 0 32 6 36 18 3 9 13 25 21 35 21 24 5 39 -50 46 -40 6 -43 8
-43 36 -1 29 -14 73 -38 124 -9 19 -8 25 6 36 9 7 17 16 17 21 0 15 64 74 80
74 9 0 21 -5 27 -11 9 -9 11 -7 7 7 -4 14 6 28 38 51 49 37 51 37 78 21z"/>
<path d="M2575 2957 c4 -12 2 -34 -4 -49 -10 -26 -10 -26 19 -12 17 9 30 25
33 42 5 28 -6 42 -36 42 -13 0 -16 -5 -12 -23z"/>
</g>
</svg>
