<?xml version="1.0" standalone="no"?>
<!DOCTYPE svg PUBLIC "-//W3C//DTD SVG 20010904//EN"
 "http://www.w3.org/TR/2001/REC-SVG-20010904/DTD/svg10.dtd">
<svg version="1.0" xmlns="http://www.w3.org/2000/svg"
 width="512.000000pt" height="512.000000pt" viewBox="0 0 512.000000 512.000000"
 preserveAspectRatio="xMidYMid meet">
<metadata>
Created by potrace 1.16, written by Peter Selinger 2001-2019
</metadata>
<g transform="translate(0.000000,512.000000) scale(0.100000,-0.100000)"
fill="#000000" stroke="none">
<path d="M0 2560 l0 -2560 2560 0 2560 0 0 2560 0 2560 -2560 0 -2560 0 0
-2560z m2835 2380 c212 -26 448 -84 600 -147 202 -83 433 -216 595 -341 116
-90 340 -317 427 -432 357 -477 526 -1043 485 -1627 -33 -481 -190 -900 -485
-1292 -86 -115 -303 -337 -411 -422 -110 -86 -284 -198 -392 -252 -206 -103
-408 -175 -492 -175 -40 0 -56 -4 -67 -18 -11 -16 -29 -19 -138 -20 -71 0
-131 -5 -139 -11 -26 -20 -84 -14 -112 12 -33 30 -32 30 -39 4 -8 -28 -39 -21
-48 11 -4 15 -7 18 -8 8 -1 -22 -18 -32 -39 -22 -9 4 -37 7 -62 8 -39 1 -45 4
-44 22 0 19 -2 20 -25 7 -34 -17 -50 -16 -57 2 -5 11 -10 12 -26 4 -22 -12
-68 2 -68 21 0 5 -14 10 -30 10 -18 0 -33 6 -36 15 -4 9 -19 15 -39 15 -24 0
-40 8 -58 29 -18 22 -30 28 -46 24 -16 -4 -24 0 -27 14 -3 11 -19 27 -35 37
-31 18 -36 35 -17 54 9 9 8 12 -5 12 -10 0 -20 7 -24 15 -3 9 -19 23 -37 32
-37 19 -116 84 -116 95 0 5 -19 27 -43 51 -23 23 -64 70 -90 105 -35 44 -56
62 -72 62 -22 0 -75 50 -75 71 0 9 4 17 31 70 9 18 5 27 -27 60 -21 22 -43 39
-50 39 -6 0 -20 12 -29 28 -10 15 -24 31 -32 35 -17 10 -17 36 1 56 16 18 11
30 -19 47 -11 6 -21 19 -23 28 -5 23 26 31 47 12 10 -9 24 -16 32 -16 21 0 38
20 32 36 -5 13 20 100 39 138 8 14 6 21 -6 28 -12 7 -16 24 -16 62 0 40 -4 55
-16 60 -10 4 -14 14 -11 25 5 22 -29 47 -46 33 -19 -15 -78 -20 -129 -13 -36
6 -51 4 -63 -8 -12 -12 -19 -13 -33 -5 -14 9 -17 27 -17 115 0 57 4 113 9 124
5 11 8 31 7 45 -4 56 39 108 55 66 3 -8 13 -12 25 -9 11 3 21 -1 25 -11 9 -24
24 -19 24 7 0 18 -5 23 -27 22 -31 0 -45 31 -22 49 8 6 15 23 16 37 1 21 -2
26 -16 22 -25 -6 -58 34 -44 55 5 9 19 17 29 17 33 0 44 26 32 73 -8 31 -7 46
1 56 10 12 8 19 -8 35 -12 12 -21 27 -21 34 0 6 -18 32 -40 57 -22 25 -40 48
-40 52 0 4 -10 8 -22 10 -13 2 -24 11 -27 23 -2 11 -9 24 -17 28 -20 11 -17
45 5 59 18 11 18 12 -1 47 -11 20 -27 44 -36 54 -13 15 -14 22 -4 37 6 11 9
26 5 35 -3 9 4 29 16 46 20 27 21 34 11 86 -11 60 -4 206 12 236 5 9 19 17 32
17 21 0 24 5 22 32 -1 26 3 33 24 38 l25 6 -24 6 c-20 6 -22 11 -17 35 4 15
18 37 31 48 14 11 29 32 34 47 9 24 7 29 -11 39 -18 10 -20 18 -15 68 3 31 15
75 28 98 22 41 22 43 5 62 -25 28 -14 55 19 47 20 -5 25 -3 25 12 0 10 11 29
25 42 14 13 25 33 25 46 0 12 6 27 14 33 8 7 12 20 9 30 -3 10 0 22 6 25 7 5
7 13 -1 26 -13 20 3 50 27 50 14 0 29 29 19 39 -10 10 -74 -67 -74 -89 0 -31
-27 -35 -54 -8 -30 29 -45 95 -24 103 9 4 13 16 10 33 -2 17 2 33 12 41 12 10
13 17 4 31 -14 22 -4 50 22 57 15 4 20 14 20 38 0 19 8 39 20 50 11 10 20 26
20 36 0 9 16 27 35 39 19 12 44 34 55 49 11 16 33 34 49 41 16 6 32 18 35 26
3 8 14 14 24 14 11 0 25 7 32 15 10 12 8 16 -14 25 -14 5 -26 15 -26 22 0 19
62 78 82 78 10 0 21 8 24 18 15 44 31 70 69 104 22 20 45 37 51 38 6 0 18 7
25 16 7 9 22 20 34 25 11 5 34 18 51 28 18 11 52 23 77 26 30 5 47 13 50 24 3
13 36 23 152 45 81 16 184 32 229 36 93 8 289 3 391 -10z"/>
<path d="M1191 2584 c0 -11 3 -14 6 -6 3 7 2 16 -1 19 -3 4 -6 -2 -5 -13z"/>
</g>
</svg>
