<?xml version="1.0" standalone="no"?>
<!DOCTYPE svg PUBLIC "-//W3C//DTD SVG 20010904//EN"
 "http://www.w3.org/TR/2001/REC-SVG-20010904/DTD/svg10.dtd">
<svg version="1.0" xmlns="http://www.w3.org/2000/svg"
 width="512.000000pt" height="512.000000pt" viewBox="0 0 512.000000 512.000000"
 preserveAspectRatio="xMidYMid meet">
<metadata>
Created by potrace 1.16, written by Peter Selinger 2001-2019
</metadata>
<g transform="translate(0.000000,512.000000) scale(0.100000,-0.100000)"
fill="#000000" stroke="none">
<path d="M0 2560 l0 -2560 2560 0 2560 0 0 2560 0 2560 -2560 0 -2560 0 0
-2560z m2685 2389 c11 0 29 -3 40 -8 11 -5 41 -12 67 -16 27 -3 60 -16 75 -29
16 -12 36 -25 46 -29 9 -3 17 -13 17 -22 0 -8 6 -15 13 -15 7 0 27 -15 43 -33
16 -18 37 -36 47 -40 18 -7 19 -9 21 -77 2 -34 11 -57 39 -96 20 -28 37 -56
37 -61 0 -6 8 -17 18 -26 14 -12 21 -14 29 -6 22 22 42 2 40 -38 -2 -31 3 -43
26 -62 22 -18 27 -30 23 -47 -5 -17 -2 -24 8 -24 23 0 40 -38 28 -64 -19 -38
-20 -64 -5 -70 24 -10 10 -37 -32 -61 -42 -23 -47 -44 -23 -92 7 -15 8 -35 1
-65 -12 -56 -8 -151 7 -156 20 -7 29 -48 35 -156 7 -105 -1 -146 -28 -146 -7
0 -19 -6 -25 -12 -7 -7 -31 -20 -54 -29 l-41 -16 43 -24 c81 -45 80 -90 -1
-99 -38 -4 -44 -8 -47 -31 -2 -14 4 -31 12 -39 21 -17 20 -56 -1 -78 -10 -10
-24 -29 -31 -41 -12 -20 -11 -25 5 -37 16 -12 20 -11 32 6 8 12 25 20 43 20
63 0 107 -62 71 -102 -20 -23 -35 -128 -18 -128 21 0 48 -38 42 -60 -3 -11 -1
-23 4 -26 5 -3 9 -18 9 -34 0 -16 5 -32 11 -36 6 -3 9 -19 7 -35 -4 -24 0 -31
30 -45 29 -14 33 -20 30 -44 -4 -26 -1 -29 26 -32 30 -3 32 -1 46 52 13 46 19
56 40 58 13 2 31 13 38 24 8 11 23 18 35 16 31 -4 34 -50 7 -88 -12 -16 -21
-38 -20 -47 2 -64 -1 -277 -5 -283 -3 -4 -20 -11 -40 -14 -44 -9 -50 -19 -29
-56 18 -29 17 -31 -5 -72 -50 -92 -52 -96 -47 -148 2 -28 12 -62 20 -75 21
-32 20 -37 -8 -68 -14 -15 -20 -29 -15 -32 5 -4 9 -17 9 -30 0 -17 6 -25 23
-27 20 -3 22 -8 21 -63 0 -33 -9 -82 -19 -110 -10 -27 -20 -54 -21 -60 -2 -5
-8 -17 -12 -25 -25 -44 -32 -62 -32 -84 0 -14 -4 -28 -10 -31 -5 -3 -10 -14
-10 -24 0 -10 -7 -32 -15 -49 -9 -16 -16 -47 -17 -69 0 -21 -9 -49 -20 -62
-11 -15 -18 -40 -18 -68 0 -49 -30 -103 -57 -103 -13 0 -13 -3 -3 -15 10 -12
10 -21 1 -41 -6 -14 -11 -32 -11 -40 0 -17 -45 -89 -77 -123 -13 -13 -23 -34
-23 -46 0 -25 -21 -47 -42 -44 -7 1 -20 1 -28 0 -12 -1 -12 -4 3 -12 9 -5 17
-17 17 -26 0 -23 -29 -53 -51 -53 -13 0 -17 -7 -16 -26 2 -20 -6 -30 -33 -45
-19 -11 -38 -29 -41 -42 -5 -19 -11 -22 -50 -20 -35 2 -40 0 -21 -7 29 -12 28
-32 -5 -67 -16 -17 -34 -42 -42 -57 -8 -15 -29 -34 -47 -42 -18 -8 -34 -24
-37 -35 -5 -18 -36 -26 -50 -13 -8 9 -107 11 -107 2 0 -4 10 -8 22 -10 13 -2
24 -11 26 -21 4 -21 -25 -34 -47 -20 -12 7 -19 6 -27 -5 -9 -13 -26 -14 -112
-6 -80 7 -103 6 -107 -3 -2 -8 -23 -13 -51 -13 -37 0 -47 4 -51 20 -6 24 -7
24 -38 4 -14 -9 -36 -14 -50 -12 -14 3 -26 0 -29 -8 -5 -14 -47 -19 -59 -8 -4
4 -19 8 -34 9 -51 5 -83 23 -83 47 -1 21 -2 21 -11 6 -5 -10 -20 -18 -32 -18
-72 1 -394 135 -542 225 -192 118 -302 203 -449 345 -221 214 -372 423 -501
693 -271 568 -310 1210 -109 1804 20 57 42 115 50 131 7 15 14 31 14 36 0 5
30 68 66 140 183 364 444 665 785 903 396 277 921 438 1359 416 52 -3 104 -4
115 -4z m729 -940 c18 -22 26 -42 26 -70 0 -47 -12 -54 -65 -37 -97 33 -96
129 2 137 6 1 23 -13 37 -30z"/>
<path d="M2090 276 c0 -2 7 -6 15 -10 8 -3 15 -1 15 4 0 6 -7 10 -15 10 -8 0
-15 -2 -15 -4z"/>
</g>
</svg>
