<?xml version="1.0" standalone="no"?>
<!DOCTYPE svg PUBLIC "-//W3C//DTD SVG 20010904//EN"
 "http://www.w3.org/TR/2001/REC-SVG-20010904/DTD/svg10.dtd">
<svg version="1.0" xmlns="http://www.w3.org/2000/svg"
 width="512.000000pt" height="512.000000pt" viewBox="0 0 512.000000 512.000000"
 preserveAspectRatio="xMidYMid meet">
<metadata>
Created by potrace 1.16, written by Peter Selinger 2001-2019
</metadata>
<g transform="translate(0.000000,512.000000) scale(0.100000,-0.100000)"
fill="#000000" stroke="none">
<path d="M0 2560 l0 -2560 2560 0 2560 0 0 2560 0 2560 -2560 0 -2560 0 0
-2560z m2095 2315 c0 -14 -8 -21 -25 -23 -14 -2 -28 -10 -32 -17 -4 -7 -29
-18 -55 -24 -27 -7 -57 -17 -67 -23 -10 -5 -82 -42 -160 -82 -78 -40 -168 -90
-201 -111 -33 -22 -93 -56 -134 -78 -41 -21 -82 -48 -92 -61 -10 -13 -56 -48
-103 -79 -47 -32 -97 -73 -111 -92 -15 -19 -36 -37 -47 -41 -29 -9 -77 -65
-78 -90 0 -11 -9 -29 -20 -39 -11 -10 -20 -22 -20 -28 0 -16 -126 -137 -144
-137 -9 0 -16 -8 -16 -20 0 -10 -9 -24 -20 -30 -11 -6 -20 -19 -20 -30 0 -10
-4 -22 -10 -25 -5 -3 -10 -15 -10 -26 0 -10 -4 -27 -9 -37 -5 -9 -12 -24 -15
-32 -6 -15 -16 -32 -48 -82 -10 -14 -18 -33 -18 -41 0 -8 -11 -22 -25 -31 -14
-9 -25 -24 -25 -34 0 -10 -18 -46 -40 -80 -22 -34 -40 -72 -39 -84 2 -67 -2
-111 -11 -128 -5 -10 -10 -31 -10 -47 0 -29 -21 -97 -33 -109 -15 -15 -6 -60
13 -72 30 -19 25 -53 -14 -84 -44 -35 -54 -82 -50 -228 3 -84 1 -118 -8 -125
-22 -17 -21 -86 1 -102 15 -10 21 -31 26 -100 4 -49 12 -93 17 -100 5 -6 8
-17 7 -25 -7 -43 30 -143 62 -166 21 -15 39 -71 39 -124 0 -21 6 -52 14 -70 8
-18 22 -60 31 -93 24 -85 55 -166 75 -195 9 -14 20 -42 23 -64 3 -21 13 -46
22 -56 8 -9 15 -23 15 -32 0 -8 14 -33 31 -54 26 -33 30 -45 26 -77 -6 -44 14
-101 39 -111 11 -4 14 -13 11 -27 -8 -30 9 -70 41 -96 26 -22 27 -24 10 -52
-15 -28 -15 -31 1 -45 13 -12 20 -13 28 -5 20 20 40 2 58 -50 11 -33 27 -58
46 -72 17 -12 41 -38 54 -60 30 -47 137 -159 153 -159 6 0 15 -6 19 -13 4 -8
38 -37 76 -66 37 -29 67 -56 67 -61 0 -4 14 -10 30 -14 35 -7 61 -49 42 -68
-14 -14 -30 -7 -175 84 -290 182 -557 449 -742 744 -193 307 -323 687 -355
1034 -43 476 37 910 242 1314 248 490 602 844 1083 1080 145 72 319 137 468
176 88 23 112 22 112 -5z"/>
</g>
</svg>
