<?xml version="1.0" standalone="no"?>
<!DOCTYPE svg PUBLIC "-//W3C//DTD SVG 20010904//EN"
 "http://www.w3.org/TR/2001/REC-SVG-20010904/DTD/svg10.dtd">
<svg version="1.0" xmlns="http://www.w3.org/2000/svg"
 width="512.000000pt" height="512.000000pt" viewBox="0 0 512.000000 512.000000"
 preserveAspectRatio="xMidYMid meet">
<metadata>
Created by potrace 1.16, written by Peter Selinger 2001-2019
</metadata>
<g transform="translate(0.000000,512.000000) scale(0.100000,-0.100000)"
fill="#000000" stroke="none">
<path d="M0 2560 l0 -2560 2560 0 2560 0 0 2560 0 2560 -2560 0 -2560 0 0
-2560z m1745 2226 c0 -10 -7 -22 -15 -26 -8 -5 -60 -30 -115 -56 -55 -26 -107
-53 -115 -60 -27 -21 -122 -46 -133 -35 -26 26 20 54 263 162 92 41 115 44
115 15z m-408 -193 c4 -11 -1 -22 -17 -32 -29 -19 -184 -133 -262 -193 -31
-23 -57 -46 -58 -50 0 -3 -35 -42 -77 -86 -43 -43 -112 -115 -153 -160 -75
-81 -96 -94 -106 -68 -15 40 254 323 441 463 111 84 198 142 213 142 7 1 16
-7 19 -16z m-667 -618 c11 -13 9 -23 -8 -54 -12 -21 -22 -47 -22 -58 0 -10 -9
-36 -20 -58 -11 -22 -20 -45 -20 -51 0 -7 -11 -21 -24 -32 -14 -10 -36 -44
-50 -76 -14 -31 -30 -56 -35 -56 -6 0 -11 -6 -11 -13 0 -8 -9 -22 -20 -32 -11
-10 -20 -26 -20 -35 0 -9 -8 -34 -19 -56 -10 -21 -22 -54 -26 -71 -3 -18 -11
-35 -16 -38 -5 -4 -9 -16 -9 -29 0 -12 -3 -26 -7 -30 -4 -3 -8 -46 -9 -94 -1
-48 -7 -116 -14 -151 -6 -35 -13 -114 -15 -175 -1 -61 -8 -142 -14 -180 -8
-49 -8 -86 -1 -124 11 -59 7 -75 -18 -70 -35 7 -58 -96 -29 -121 11 -8 16 -5
26 15 7 16 18 24 28 22 15 -3 18 -18 21 -93 7 -228 9 -243 29 -286 11 -24 25
-71 33 -104 7 -33 20 -78 30 -100 29 -65 90 -250 90 -271 0 -11 4 -24 9 -30 4
-5 14 -31 21 -59 7 -27 25 -71 41 -97 15 -25 41 -79 58 -120 19 -43 53 -99 86
-138 125 -150 149 -184 141 -206 -9 -24 -31 -15 -77 34 -210 218 -410 555
-515 867 -108 324 -146 705 -103 1055 26 208 99 482 174 645 7 17 25 56 39 88
54 123 227 397 250 397 7 0 19 -7 26 -15z"/>
</g>
</svg>
