<?xml version="1.0" standalone="no"?>
<!DOCTYPE svg PUBLIC "-//W3C//DTD SVG 20010904//EN"
 "http://www.w3.org/TR/2001/REC-SVG-20010904/DTD/svg10.dtd">
<svg version="1.0" xmlns="http://www.w3.org/2000/svg"
 width="512.000000pt" height="512.000000pt" viewBox="0 0 512.000000 512.000000"
 preserveAspectRatio="xMidYMid meet">
<metadata>
Created by potrace 1.16, written by Peter Selinger 2001-2019
</metadata>
<g transform="translate(0.000000,512.000000) scale(0.100000,-0.100000)"
fill="#000000" stroke="none">
<path d="M0 2560 l0 -2560 2560 0 2560 0 0 2560 0 2560 -2560 0 -2560 0 0
-2560z m2385 2357 c0 -10 -12 -26 -28 -35 -22 -13 -31 -14 -46 -5 -15 10 -20
9 -25 -2 -3 -8 -12 -15 -19 -15 -8 0 -20 -6 -26 -14 -15 -17 -214 -116 -235
-116 -9 0 -16 -5 -16 -10 0 -6 -16 -26 -35 -46 -26 -25 -49 -38 -89 -45 -44
-9 -53 -14 -49 -29 3 -10 11 -21 19 -24 25 -10 15 -32 -35 -79 -26 -25 -51
-52 -54 -61 -3 -8 -30 -22 -60 -31 -37 -11 -65 -27 -90 -53 -19 -20 -42 -43
-51 -50 -9 -7 -16 -28 -16 -46 0 -30 -5 -37 -42 -56 -50 -26 -88 -58 -88 -76
0 -7 -10 -21 -23 -31 -12 -10 -37 -36 -54 -58 -27 -33 -31 -47 -29 -83 2 -24
6 -46 10 -49 22 -23 -45 -173 -78 -173 -39 0 -71 -83 -67 -173 1 -28 -3 -39
-16 -44 -30 -12 -52 -46 -46 -71 4 -18 1 -25 -16 -29 -24 -6 -26 -21 -10 -57
9 -18 9 -29 1 -38 -13 -17 -17 -49 -7 -71 4 -10 3 -41 -3 -69 -8 -41 -7 -56 4
-73 11 -17 12 -33 5 -71 -5 -27 -6 -53 -1 -59 14 -18 9 -86 -7 -92 -13 -5 -13
-7 1 -15 23 -13 20 -31 -12 -58 -19 -17 -27 -31 -24 -46 2 -12 -3 -33 -12 -46
-9 -14 -18 -47 -20 -76 -5 -62 -20 -92 -46 -92 -15 0 -20 -7 -20 -27 0 -25 1
-26 14 -8 20 28 46 12 46 -29 0 -19 -4 -45 -9 -59 -7 -18 -5 -26 10 -35 22
-14 25 -38 5 -49 -8 -4 -16 -19 -18 -33 -2 -19 -9 -25 -28 -25 -21 0 -25 4
-23 29 2 29 2 29 -13 7 -12 -17 -13 -25 -4 -36 6 -8 9 -23 5 -35 -4 -13 1 -31
15 -50 34 -47 41 -80 31 -135 -7 -40 -6 -51 6 -60 34 -25 4 -70 -61 -90 -18
-5 -18 -6 1 -28 12 -13 21 -37 21 -60 1 -20 6 -46 12 -56 5 -11 10 -31 10 -45
0 -14 5 -28 11 -31 6 -4 13 -15 17 -25 6 -17 10 -17 47 -4 48 17 69 11 62 -16
-4 -15 5 -29 34 -52 43 -35 56 -62 39 -83 -6 -7 -14 -36 -19 -63 -7 -45 -6
-51 12 -56 15 -4 19 -11 15 -36 -4 -27 -1 -33 26 -44 17 -7 43 -26 57 -42 14
-16 34 -34 44 -40 13 -7 19 -23 19 -52 1 -32 8 -48 33 -74 36 -38 63 -97 63
-139 0 -19 11 -40 35 -63 24 -24 35 -45 35 -64 0 -28 65 -125 97 -145 7 -4 13
-16 13 -25 0 -9 9 -23 20 -30 25 -15 26 -48 3 -61 -16 -9 -15 -10 7 -11 41 0
73 -28 66 -56 -5 -19 -2 -24 12 -24 25 0 48 -28 57 -67 4 -22 13 -33 28 -35
14 -2 24 -12 27 -28 4 -19 12 -25 35 -27 83 -6 90 -8 90 -28 0 -31 -65 -44
-101 -20 -16 10 -42 19 -59 21 -16 2 -70 19 -119 39 -282 115 -524 274 -749
495 -214 208 -357 402 -477 646 -117 238 -177 425 -232 719 -18 99 -18 580 1
700 130 839 686 1551 1456 1868 204 84 575 174 630 153 8 -3 17 -1 21 5 3 6
22 9 42 7 28 -2 37 -7 37 -21z m-1228 -1623 c8 -21 -30 -59 -51 -51 -19 7 -21
38 -4 55 17 17 48 15 55 -4z m-51 -898 c18 -14 18 -16 2 -43 -22 -37 -52 -37
-56 0 -7 55 15 72 54 43z m-48 -394 c4 -28 -24 -40 -45 -19 -21 21 -9 49 19
45 15 -2 24 -11 26 -26z m29 -100 c32 -44 38 -87 15 -119 -10 -16 -22 -36 -25
-45 -7 -21 -37 -24 -55 -6 -7 7 -12 26 -12 43 0 35 -8 49 -32 58 -23 8 -23 46
-1 54 9 4 25 15 35 25 26 26 51 22 75 -10z"/>
<path d="M896 2594 c-8 -21 -8 -24 3 -24 12 0 22 28 12 35 -5 3 -12 -2 -15
-11z"/>
</g>
</svg>
