<?xml version="1.0" standalone="no"?>
<!DOCTYPE svg PUBLIC "-//W3C//DTD SVG 20010904//EN"
 "http://www.w3.org/TR/2001/REC-SVG-20010904/DTD/svg10.dtd">
<svg version="1.0" xmlns="http://www.w3.org/2000/svg"
 width="512.000000pt" height="512.000000pt" viewBox="0 0 512.000000 512.000000"
 preserveAspectRatio="xMidYMid meet">
<metadata>
Created by potrace 1.16, written by Peter Selinger 2001-2019
</metadata>
<g transform="translate(0.000000,512.000000) scale(0.100000,-0.100000)"
fill="#000000" stroke="none">
<path d="M0 2560 l0 -2560 2560 0 2560 0 0 2560 0 2560 -2560 0 -2560 0 0
-2560z m2755 2389 c560 -43 1096 -292 1501 -695 369 -370 611 -859 679 -1377
20 -156 20 -488 0 -644 -80 -604 -409 -1179 -895 -1559 -207 -163 -584 -365
-655 -352 -16 4 -25 0 -28 -12 -6 -25 -58 -36 -73 -16 -16 22 -34 20 -34 -4 0
-25 -22 -36 -86 -45 -34 -4 -54 -3 -59 4 -11 18 -52 13 -57 -7 -7 -24 -79 -39
-92 -19 -7 10 -21 12 -60 6 -28 -5 -67 -6 -88 -2 -31 4 -41 2 -55 -15 -15 -18
-25 -20 -61 -15 -52 7 -75 40 -51 70 12 15 12 16 -4 10 -10 -4 -26 -7 -35 -7
-15 -1 -15 -2 1 -11 17 -10 24 -44 10 -52 -5 -3 -23 -8 -40 -12 -29 -6 -34 -4
-43 21 -8 21 -14 24 -22 16 -7 -7 -27 -12 -44 -12 -18 0 -36 -4 -39 -10 -11
-17 -61 -11 -80 10 -13 14 -22 17 -29 10 -14 -14 -51 -13 -90 4 -21 9 -38 10
-43 5 -16 -16 -155 16 -175 41 -9 12 -22 18 -29 15 -11 -7 -95 12 -114 25 -5
4 -25 11 -43 15 -18 4 -36 13 -39 21 -3 8 -13 14 -23 14 -10 0 -23 7 -30 15
-7 8 -23 15 -35 15 -12 0 -34 9 -48 20 -14 11 -30 20 -36 20 -10 0 -25 7 -67
29 -6 3 -48 33 -93 66 -46 33 -90 65 -99 70 -61 37 -105 71 -162 124 -35 34
-66 61 -68 61 -3 0 -112 110 -174 177 -21 22 -38 49 -38 59 0 12 -11 24 -28
30 -15 6 -34 24 -42 40 -8 16 -26 45 -41 64 -49 65 -141 205 -155 235 -16 33
-23 46 -75 125 -24 37 -36 67 -36 94 -1 21 -6 43 -12 49 -18 18 -13 48 9 54
31 8 20 35 -20 48 -29 10 -37 19 -45 51 -6 21 -16 49 -23 62 -22 38 -38 180
-24 202 15 25 14 115 -2 160 -10 27 -18 34 -34 32 -34 -5 -43 36 -48 218 -5
193 0 211 57 194 23 -6 41 -6 57 1 20 9 22 17 22 81 0 52 4 75 15 84 11 9 13
16 5 24 -5 5 -10 25 -10 43 0 25 9 41 41 71 32 31 37 41 25 45 -23 9 -20 50 6
82 11 15 22 41 23 59 5 102 31 243 48 268 13 18 18 35 13 52 -6 24 17 76 50
116 7 8 15 39 17 67 3 29 14 71 24 92 16 32 17 41 7 45 -22 8 -16 30 16 61 16
16 30 35 30 42 0 8 12 26 26 40 41 40 84 104 84 123 0 10 7 24 16 31 9 7 28
38 42 68 14 30 52 82 84 115 32 34 58 67 58 74 0 31 230 232 266 232 7 0 14 6
17 14 3 8 45 36 94 64 233 131 512 222 791 257 207 26 303 28 497 14z"/>
<path d="M500 2615 c0 -19 5 -35 10 -35 6 0 10 16 10 35 0 19 -4 35 -10 35 -5
0 -10 -16 -10 -35z"/>
<path d="M446 2475 c4 -8 8 -15 10 -15 2 0 4 7 4 15 0 8 -4 15 -10 15 -5 0 -7
-7 -4 -15z"/>
</g>
</svg>
