<?xml version="1.0" standalone="no"?>
<!DOCTYPE svg PUBLIC "-//W3C//DTD SVG 20010904//EN"
 "http://www.w3.org/TR/2001/REC-SVG-20010904/DTD/svg10.dtd">
<svg version="1.0" xmlns="http://www.w3.org/2000/svg"
 width="512.000000pt" height="512.000000pt" viewBox="0 0 512.000000 512.000000"
 preserveAspectRatio="xMidYMid meet">
<metadata>
Created by potrace 1.16, written by Peter Selinger 2001-2019
</metadata>
<g transform="translate(0.000000,512.000000) scale(0.100000,-0.100000)"
fill="#000000" stroke="none">
<path d="M0 2560 l0 -2560 2560 0 2560 0 0 2560 0 2560 -2560 0 -2560 0 0
-2560z m3275 2286 c19 -8 35 -19 35 -25 0 -5 9 -7 20 -4 28 7 120 -27 285
-107 437 -213 799 -558 1043 -995 134 -239 237 -551 274 -830 17 -131 17 -518
0 -655 -52 -402 -215 -792 -474 -1131 -143 -189 -359 -391 -561 -525 -92 -61
-127 -73 -127 -42 0 14 66 78 164 162 60 51 196 212 196 233 0 20 129 266 150
285 11 10 20 23 20 29 0 6 17 36 38 67 50 73 84 143 106 212 23 74 42 115 61
130 8 7 15 21 15 32 0 11 8 22 18 24 14 4 17 16 18 62 0 33 8 70 17 87 12 21
15 43 11 75 -7 58 17 162 48 203 25 33 53 131 42 149 -3 5 -1 54 6 109 11 93
11 101 -6 113 -11 9 -18 27 -18 52 -1 21 -6 44 -12 49 -11 9 -21 64 -30 158
-3 28 3 47 22 77 36 54 45 103 34 183 -7 49 -7 72 2 87 9 14 9 24 1 42 -7 13
-17 40 -23 61 -6 20 -17 37 -25 37 -17 0 -69 60 -90 105 -10 19 -22 35 -28 35
-13 0 -57 40 -57 53 0 5 -11 22 -24 37 -12 15 -31 52 -40 81 -10 29 -25 58
-33 65 -9 6 -14 18 -10 27 4 10 -7 29 -30 52 -40 40 -113 175 -113 210 0 12
-13 42 -30 66 -35 52 -38 79 -10 86 16 4 18 8 9 19 -7 8 -21 11 -35 8 -20 -5
-32 2 -64 37 -21 24 -39 49 -40 56 0 6 -9 18 -20 26 -11 7 -33 32 -50 55 -17
23 -36 42 -43 42 -7 0 -24 13 -37 30 -14 16 -31 29 -38 30 -7 0 -20 13 -30 30
-10 16 -36 43 -58 58 -21 16 -45 41 -53 55 -9 16 -23 27 -35 27 -12 0 -36 14
-54 30 -18 17 -39 30 -46 30 -8 0 -19 7 -26 15 -7 8 -20 15 -29 15 -22 0 -41
19 -41 43 0 14 -5 17 -20 12 -13 -4 -32 0 -48 10 -33 21 -92 82 -92 96 0 5 -8
4 -18 -2 -31 -20 -100 40 -75 64 9 10 20 9 58 -7z"/>
<path d="M4660 2744 c0 -2 9 -13 20 -24 19 -19 20 -19 20 -1 0 10 -9 21 -20
24 -11 3 -20 3 -20 1z"/>
</g>
</svg>
