<?xml version="1.0" standalone="no"?>
<!DOCTYPE svg PUBLIC "-//W3C//DTD SVG 20010904//EN"
 "http://www.w3.org/TR/2001/REC-SVG-20010904/DTD/svg10.dtd">
<svg version="1.0" xmlns="http://www.w3.org/2000/svg"
 width="512.000000pt" height="512.000000pt" viewBox="0 0 512.000000 512.000000"
 preserveAspectRatio="xMidYMid meet">
<metadata>
Created by potrace 1.16, written by Peter Selinger 2001-2019
</metadata>
<g transform="translate(0.000000,512.000000) scale(0.100000,-0.100000)"
fill="#000000" stroke="none">
<path d="M0 2560 l0 -2560 2560 0 2560 0 0 2560 0 2560 -2560 0 -2560 0 0
-2560z m2745 2389 c195 -18 467 -75 570 -119 11 -5 45 -18 75 -29 57 -21 160
-71 182 -88 12 -10 66 -41 151 -86 37 -21 105 -72 237 -181 60 -49 71 -62 66
-81 -7 -28 8 -40 46 -37 21 2 34 -6 55 -34 15 -20 49 -61 76 -91 26 -29 47
-59 47 -66 0 -8 29 -45 65 -83 37 -38 75 -85 86 -104 11 -19 34 -60 51 -90 17
-30 32 -65 33 -77 1 -12 12 -31 26 -42 24 -20 24 -20 7 -51 -16 -28 -16 -34
-3 -53 22 -31 19 -46 -15 -65 -20 -11 -28 -22 -24 -32 4 -8 11 -40 16 -70 5
-30 16 -62 23 -71 8 -8 15 -27 15 -41 0 -14 6 -38 14 -53 l15 -28 8 34 c12 44
37 48 73 12 20 -21 28 -39 28 -61 -1 -18 6 -40 15 -50 24 -27 32 -71 14 -78
-9 -3 -19 -24 -22 -47 -4 -23 -11 -47 -15 -52 -14 -17 12 -107 32 -113 18 -4
48 -54 48 -79 0 -8 -16 -21 -35 -29 -39 -16 -46 -39 -15 -47 11 -3 20 -12 20
-21 0 -9 10 -30 21 -46 12 -16 21 -41 21 -57 -1 -15 -3 -103 -6 -195 -4 -160
-26 -300 -47 -314 -5 -3 -9 -20 -9 -39 0 -19 -4 -36 -9 -39 -5 -4 -12 -30 -16
-59 -13 -109 -40 -218 -66 -268 -11 -20 -19 -46 -19 -58 0 -17 -26 -82 -61
-153 -5 -10 -9 -22 -9 -28 0 -6 -15 -32 -33 -58 -18 -26 -39 -60 -47 -77 -30
-60 -123 -190 -144 -200 -11 -6 -38 -44 -58 -84 -31 -61 -51 -85 -110 -134
-40 -32 -77 -65 -81 -73 -4 -8 -15 -14 -22 -14 -8 0 -15 -9 -15 -19 0 -21 -84
-101 -106 -101 -8 0 -14 -5 -14 -12 0 -11 -8 -21 -49 -63 -42 -44 -70 -65 -84
-65 -8 0 -20 -6 -26 -14 -16 -19 -60 -29 -75 -17 -10 8 -11 3 -8 -19 4 -27 0
-32 -34 -47 -22 -10 -54 -29 -72 -41 -22 -16 -41 -22 -56 -18 -18 4 -25 0 -34
-18 -7 -17 -22 -25 -51 -30 -26 -4 -50 -16 -63 -32 -16 -17 -29 -23 -44 -20
-13 4 -27 0 -34 -9 -7 -8 -22 -15 -33 -15 -11 0 -36 -6 -55 -12 -30 -11 -35
-10 -47 5 -11 15 -13 16 -19 2 -3 -8 -12 -15 -20 -15 -7 0 -28 -13 -46 -30
-35 -33 -70 -39 -90 -15 -7 9 -29 15 -55 15 -37 0 -41 -3 -41 -22 1 -18 -5
-24 -27 -26 -16 -2 -29 2 -32 10 -6 16 -209 25 -228 10 -7 -4 -32 -14 -57 -21
-38 -11 -46 -11 -54 1 -7 12 -16 13 -42 5 -42 -13 -68 -3 -61 23 4 15 0 20
-14 20 -20 0 -26 -15 -9 -25 13 -8 13 -42 0 -50 -12 -8 -141 15 -158 28 -7 6
-11 19 -9 29 8 29 -9 30 -34 3 -35 -37 -56 -34 -289 36 -647 194 -1213 706
-1475 1336 -217 520 -251 1076 -100 1603 163 566 545 1067 1057 1388 408 255
954 385 1433 341z"/>
</g>
</svg>
