<?xml version="1.0" standalone="no"?>
<!DOCTYPE svg PUBLIC "-//W3C//DTD SVG 20010904//EN"
 "http://www.w3.org/TR/2001/REC-SVG-20010904/DTD/svg10.dtd">
<svg version="1.0" xmlns="http://www.w3.org/2000/svg"
 width="512.000000pt" height="512.000000pt" viewBox="0 0 512.000000 512.000000"
 preserveAspectRatio="xMidYMid meet">
<metadata>
Created by potrace 1.16, written by Peter Selinger 2001-2019
</metadata>
<g transform="translate(0.000000,512.000000) scale(0.100000,-0.100000)"
fill="#000000" stroke="none">
<path d="M0 2560 l0 -2560 2560 0 2560 0 0 2560 0 2560 -2560 0 -2560 0 0
-2560z m2699 2383 c51 -5 64 -10 71 -27 7 -16 9 -17 9 -4 1 28 15 29 123 13
144 -21 196 -33 333 -72 156 -46 240 -80 405 -163 234 -120 387 -229 574 -410
390 -378 628 -846 706 -1385 43 -299 24 -643 -50 -932 -174 -675 -644 -1252
-1263 -1553 -153 -74 -364 -150 -435 -156 -24 -3 -55 -12 -68 -21 -19 -12 -53
-17 -132 -18 -59 -1 -133 -6 -165 -10 -54 -7 -59 -6 -64 14 -6 24 -21 26 -59
9 -22 -10 -28 -10 -38 4 -8 11 -17 14 -27 7 -27 -17 -70 -10 -100 18 -16 16
-29 34 -29 42 0 12 -3 12 -12 3 -22 -22 -57 -12 -100 28 -24 22 -48 40 -55 40
-6 0 -18 8 -25 18 -7 10 -21 21 -30 25 -12 4 -18 17 -18 35 0 31 -32 68 -65
74 -12 2 -21 13 -23 28 -4 24 -24 43 -67 65 -11 6 -21 21 -23 33 -2 13 -10 22
-21 22 -10 0 -26 9 -37 21 -15 17 -16 23 -6 40 11 17 9 19 -11 19 -44 0 -65
49 -29 69 15 9 14 10 -9 11 -16 0 -33 10 -47 30 -24 32 -27 51 -12 66 15 15 3
41 -21 47 -13 4 -19 12 -18 24 2 10 0 24 -5 31 -12 19 1 42 23 42 11 0 23 5
26 11 12 18 16 127 5 134 -16 10 -12 45 6 52 15 5 15 7 0 15 -9 5 -16 16 -16
23 0 11 -5 10 -20 -5 -11 -11 -26 -20 -32 -20 -7 0 -20 -15 -28 -33 -17 -36
-47 -47 -57 -22 -3 10 1 30 11 45 9 16 16 35 16 44 0 9 9 20 21 24 20 8 20 9
-6 35 -37 37 -27 53 38 61 51 7 54 9 49 32 -5 26 -30 32 -49 13 -17 -17 -43
-3 -43 23 0 31 -8 99 -14 115 -11 27 -33 2 -32 -35 1 -35 -1 -37 -32 -40 -21
-2 -34 2 -38 11 -7 18 21 87 35 87 6 0 11 7 11 15 0 8 14 21 30 30 31 16 40
49 16 58 -24 9 -17 77 10 110 29 35 30 53 4 67 -24 13 -26 46 -4 58 15 8 15
12 -1 46 -14 28 -15 40 -6 49 9 9 16 9 31 -1 27 -16 28 -16 22 13 -5 26 -12
29 -49 19 -14 -4 -23 -14 -23 -25 0 -10 -9 -23 -20 -29 -13 -7 -20 -21 -20
-41 0 -37 -27 -50 -47 -23 -8 10 -12 29 -10 42 3 18 0 22 -19 22 -74 0 -43
145 34 160 37 7 36 22 -4 48 -28 18 -35 28 -32 50 2 21 9 28 31 30 35 4 34 13
-3 35 -16 10 -30 24 -30 31 0 8 -11 21 -25 30 -29 19 -32 41 -9 54 13 7 14 13
4 31 -6 12 -9 27 -7 34 2 7 -9 27 -24 45 -31 35 -37 66 -16 79 43 28 56 121
19 134 -14 6 -22 17 -22 32 0 14 -6 30 -14 36 -17 14 -18 77 -3 109 8 16 7 28
-3 47 -12 22 -11 28 7 48 11 12 23 30 26 40 4 9 15 20 24 24 25 9 42 34 35 52
-3 7 2 19 12 26 15 12 15 13 -4 18 -12 3 -20 13 -20 25 0 22 48 62 74 62 19 0
20 13 5 41 -7 14 -7 30 2 57 7 20 12 43 10 51 -1 7 1 20 5 30 3 9 7 39 8 66 1
44 4 50 24 53 14 2 22 10 22 22 0 10 12 25 26 32 26 13 35 44 34 127 0 13 7
33 17 43 10 11 16 34 15 63 0 25 4 47 8 50 5 3 6 20 3 38 -3 23 0 37 11 46 9
7 16 23 16 35 0 12 4 26 9 31 5 6 7 24 4 41 -7 45 -57 66 -107 46 -29 -11 -39
-12 -51 -2 -18 15 -19 43 -3 73 6 12 11 36 10 54 -1 18 4 36 11 40 7 4 17 17
23 28 6 11 20 24 31 29 12 6 24 25 29 45 6 26 15 37 30 39 12 2 24 12 27 22 3
11 18 25 34 31 l28 11 -27 22 c-30 23 -33 36 -19 64 5 9 12 24 15 32 16 41 45
75 65 78 12 2 26 14 31 28 10 25 66 55 170 90 30 10 60 21 65 25 6 3 30 7 54
8 24 0 49 5 56 11 7 5 31 9 54 8 22 -1 44 2 48 5 8 9 132 9 212 0z"/>
<path d="M1900 1370 c0 -5 5 -10 11 -10 5 0 7 5 4 10 -3 6 -8 10 -11 10 -2 0
-4 -4 -4 -10z"/>
</g>
</svg>
