<?xml version="1.0" standalone="no"?>
<!DOCTYPE svg PUBLIC "-//W3C//DTD SVG 20010904//EN"
 "http://www.w3.org/TR/2001/REC-SVG-20010904/DTD/svg10.dtd">
<svg version="1.0" xmlns="http://www.w3.org/2000/svg"
 width="512.000000pt" height="512.000000pt" viewBox="0 0 512.000000 512.000000"
 preserveAspectRatio="xMidYMid meet">
<metadata>
Created by potrace 1.16, written by Peter Selinger 2001-2019
</metadata>
<g transform="translate(0.000000,512.000000) scale(0.100000,-0.100000)"
fill="#000000" stroke="none">
<path d="M0 2560 l0 -2560 2560 0 2560 0 0 2560 0 2560 -2560 0 -2560 0 0
-2560z m2477 2365 c7 -20 -61 -81 -99 -90 -15 -4 -30 -11 -33 -16 -4 -5 -14
-9 -24 -9 -9 0 -31 -13 -47 -29 -16 -16 -49 -35 -74 -42 -25 -7 -51 -17 -59
-23 -22 -17 -61 -84 -61 -105 0 -11 -11 -28 -25 -39 -13 -11 -21 -22 -18 -26
14 -14 -24 -59 -67 -78 -58 -27 -123 -72 -180 -124 -66 -61 -119 -94 -153 -94
-22 0 -27 -3 -20 -12 6 -7 13 -30 17 -51 6 -30 4 -39 -10 -44 -12 -5 -15 -14
-10 -43 4 -24 1 -43 -10 -58 -12 -18 -13 -26 -4 -37 18 -21 4 -48 -20 -42 -11
3 -27 -1 -35 -9 -12 -13 -11 -20 10 -59 14 -24 25 -58 25 -74 0 -29 -29 -71
-49 -71 -5 0 -11 -9 -14 -19 -3 -13 1 -21 15 -25 18 -4 20 -10 14 -53 -5 -33
-15 -54 -32 -68 -28 -24 -30 -42 -8 -73 16 -23 16 -67 0 -104 -6 -13 -1 -18
29 -24 36 -6 62 -40 52 -68 -3 -6 2 -19 11 -28 23 -27 21 -101 -4 -135 -17
-22 -19 -34 -11 -56 10 -30 -4 -57 -28 -57 -26 0 -60 -72 -61 -127 0 -29 -6
-64 -14 -77 -11 -22 -11 -29 4 -50 9 -14 16 -37 16 -51 0 -14 5 -34 12 -44 25
-41 -44 -70 -83 -35 -16 15 -18 13 -24 -30 -4 -26 -12 -49 -17 -52 -5 -3 0
-13 12 -21 18 -13 26 -13 46 -3 18 10 30 11 48 2 22 -10 24 -16 21 -74 -1 -35
-6 -70 -9 -79 -5 -11 -1 -18 13 -22 32 -8 28 -60 -5 -82 -38 -25 -56 -13 -48
31 6 34 6 35 -14 23 -16 -10 -25 -10 -32 -3 -8 8 -18 8 -35 0 -18 -8 -23 -16
-18 -34 3 -12 1 -28 -4 -35 -18 -22 -21 -55 -7 -61 9 -3 14 -21 14 -46 0 -33
3 -40 20 -40 11 0 29 5 39 12 24 15 53 3 49 -19 -2 -10 -25 -32 -51 -50 -26
-17 -43 -34 -37 -38 13 -8 13 -51 0 -76 -7 -13 -7 -19 0 -19 21 0 40 -69 31
-118 -12 -66 -4 -183 15 -223 33 -72 40 -80 64 -86 83 -21 146 -97 172 -209
10 -42 22 -65 50 -93 36 -34 49 -73 28 -86 -5 -3 -6 -13 -3 -22 4 -9 -1 -21
-12 -29 -18 -13 -17 -14 9 -14 19 0 29 -6 33 -20 3 -11 11 -20 19 -20 18 0 37
-37 30 -57 -4 -10 -15 -14 -34 -11 -23 3 -28 0 -28 -17 1 -11 9 -26 19 -34 11
-8 17 -21 14 -32 -3 -11 0 -19 8 -19 7 0 18 -7 26 -16 10 -12 10 -20 1 -35
-10 -15 -8 -22 9 -38 27 -25 23 -72 -8 -86 -28 -12 -29 -21 -3 -28 11 -3 20
-13 20 -22 0 -9 11 -26 25 -37 14 -11 25 -28 25 -39 0 -14 7 -19 25 -19 30 0
39 -17 27 -51 -8 -20 -4 -31 25 -67 23 -28 32 -48 28 -61 -4 -13 0 -20 15 -24
11 -3 20 -12 20 -21 0 -24 -31 -32 -45 -13 -15 21 -35 22 -35 3 0 -7 -12 -21
-26 -31 -21 -14 -31 -15 -51 -6 -13 6 -33 11 -44 11 -11 0 -22 7 -25 15 -4 8
-10 12 -15 9 -15 -9 -104 23 -231 82 -195 91 -314 163 -468 282 -97 76 -336
310 -398 392 -290 381 -438 731 -507 1200 -17 114 -20 480 -4 583 37 251 83
431 156 612 41 101 157 332 179 356 8 8 14 18 14 22 0 9 116 174 164 232 83
101 254 275 341 347 251 209 613 399 880 462 39 9 93 23 120 31 69 20 243 43
343 44 66 1 84 -2 89 -14z"/>
</g>
</svg>
