<?xml version="1.0" standalone="no"?>
<!DOCTYPE svg PUBLIC "-//W3C//DTD SVG 20010904//EN"
 "http://www.w3.org/TR/2001/REC-SVG-20010904/DTD/svg10.dtd">
<svg version="1.0" xmlns="http://www.w3.org/2000/svg"
 width="512.000000pt" height="512.000000pt" viewBox="0 0 512.000000 512.000000"
 preserveAspectRatio="xMidYMid meet">
<metadata>
Created by potrace 1.16, written by Peter Selinger 2001-2019
</metadata>
<g transform="translate(0.000000,512.000000) scale(0.100000,-0.100000)"
fill="#000000" stroke="none">
<path d="M0 2560 l0 -2560 2560 0 2560 0 0 2560 0 2560 -2560 0 -2560 0 0
-2560z m3095 2328 c748 -167 1383 -712 1674 -1438 141 -351 194 -723 161
-1125 -9 -106 -17 -159 -51 -322 -61 -299 -255 -696 -470 -960 -62 -76 -213
-232 -294 -304 -91 -81 -376 -279 -402 -279 -3 0 -18 -9 -33 -20 -32 -23 -230
-109 -322 -141 -32 -12 -65 -18 -73 -15 -24 9 -17 36 10 46 31 12 87 50 98 68
4 6 14 12 22 12 14 0 50 27 90 68 12 12 28 22 34 22 6 0 16 10 22 23 20 44 36
67 61 86 14 11 28 34 31 50 4 16 27 50 52 76 25 26 45 54 45 63 0 10 17 35 38
58 31 34 73 108 123 219 5 11 13 40 18 65 6 24 16 49 24 55 22 17 107 190 107
219 0 8 14 31 31 51 27 30 31 43 32 93 0 31 -3 87 -8 123 -7 58 -5 68 11 80
17 12 19 29 19 134 1 114 2 120 21 120 12 1 33 8 47 18 15 9 33 17 40 17 8 0
18 14 23 31 5 18 16 36 25 42 23 14 49 2 49 -23 0 -12 5 -18 10 -15 13 8 13
52 -1 61 -6 3 -8 15 -6 26 3 11 1 33 -5 49 -8 24 -7 34 5 47 20 22 17 120 -4
153 -9 13 -19 42 -23 64 l-8 39 -18 -23 c-18 -25 -50 -24 -50 1 1 20 33 56 55
61 18 4 18 5 -3 6 -32 2 -46 38 -33 86 7 28 7 42 0 52 -6 7 -9 19 -6 28 4 8 1
28 -5 45 -9 27 -7 34 13 56 18 20 20 24 6 24 -9 0 -24 11 -32 24 -9 14 -30 29
-46 35 -24 8 -29 16 -29 41 0 17 -7 45 -16 61 -8 17 -16 53 -17 80 -1 28 -7
51 -14 53 -7 3 -13 12 -13 20 0 7 -7 17 -16 20 -11 4 -15 14 -12 30 4 19 1 22
-14 18 -22 -5 -35 23 -19 42 9 11 9 16 1 21 -7 4 -10 16 -7 26 3 10 1 22 -4
25 -5 3 -9 13 -9 23 0 10 -6 24 -14 30 -7 6 -16 33 -19 61 -3 27 -13 59 -21
72 -8 13 -28 66 -46 118 -18 52 -41 110 -52 129 -11 19 -17 42 -15 51 2 10 -4
22 -15 29 -15 9 -19 20 -15 40 4 20 1 30 -14 40 -14 8 -19 21 -17 40 2 21 -8
42 -35 77 -27 34 -37 57 -35 74 3 21 0 25 -24 26 -32 1 -58 20 -58 41 0 8 -11
29 -25 47 -14 18 -25 40 -25 48 0 9 -9 18 -20 21 -13 3 -20 14 -20 30 0 18 -9
29 -32 40 -43 21 -230 200 -228 218 5 30 -1 38 -29 44 -17 3 -49 22 -73 41
-24 18 -48 34 -54 34 -15 0 -41 31 -45 54 -3 13 -14 19 -41 22 -38 3 -88 29
-88 45 0 5 -6 9 -14 9 -20 0 -39 27 -32 45 7 18 21 16 171 -17z"/>
</g>
</svg>
