<?xml version="1.0" standalone="no"?>
<!DOCTYPE svg PUBLIC "-//W3C//DTD SVG 20010904//EN"
 "http://www.w3.org/TR/2001/REC-SVG-20010904/DTD/svg10.dtd">
<svg version="1.0" xmlns="http://www.w3.org/2000/svg"
 width="512.000000pt" height="512.000000pt" viewBox="0 0 512.000000 512.000000"
 preserveAspectRatio="xMidYMid meet">
<metadata>
Created by potrace 1.16, written by Peter Selinger 2001-2019
</metadata>
<g transform="translate(0.000000,512.000000) scale(0.100000,-0.100000)"
fill="#000000" stroke="none">
<path d="M0 2560 l0 -2560 2560 0 2560 0 0 2560 0 2560 -2560 0 -2560 0 0
-2560z m2864 2364 c129 -29 177 -45 195 -63 9 -9 22 -16 28 -14 16 6 126 -35
138 -50 12 -16 69 -37 100 -37 12 0 34 -11 49 -25 15 -14 32 -25 39 -25 13 -1
147 -122 147 -134 0 -4 37 -44 83 -89 45 -45 91 -98 102 -118 29 -52 117 -182
131 -194 17 -14 54 -82 54 -100 0 -9 9 -23 20 -32 11 -10 20 -21 20 -26 0 -5
11 -22 25 -39 14 -16 25 -35 25 -43 0 -7 7 -18 15 -25 8 -7 15 -22 15 -34 0
-12 6 -30 13 -41 26 -40 38 -92 28 -118 -8 -19 -6 -27 5 -31 8 -3 14 -15 14
-26 0 -12 11 -61 25 -110 14 -49 25 -98 25 -108 0 -11 7 -25 15 -32 17 -14 20
-56 5 -65 -7 -4 -3 -20 9 -43 19 -35 23 -53 37 -150 4 -23 11 -45 15 -48 16
-9 10 -40 -12 -60 -17 -15 -23 -16 -41 -5 -31 19 -43 -1 -41 -67 2 -44 -2 -61
-17 -77 -13 -13 -20 -38 -22 -75 -3 -47 -6 -55 -23 -55 -13 0 -21 8 -23 23 -2
12 -10 22 -17 22 -16 0 -9 -28 11 -45 11 -9 20 -45 31 -115 2 -14 6 -42 9 -63
4 -20 2 -43 -3 -50 -14 -17 -10 -175 4 -212 7 -16 17 -49 23 -72 8 -33 16 -43
31 -43 21 0 44 -43 35 -66 -3 -7 2 -15 10 -18 26 -10 14 -41 -37 -91 -58 -57
-75 -90 -58 -111 7 -8 9 -31 6 -54 -3 -22 -1 -43 5 -46 5 -3 6 -19 3 -35 -4
-18 -2 -36 5 -44 6 -8 9 -23 6 -33 -4 -11 -8 -59 -10 -108 -3 -87 -23 -154
-46 -154 -6 0 -10 -8 -10 -17 0 -10 -7 -31 -15 -47 -8 -15 -15 -34 -15 -41 0
-7 -13 -27 -30 -45 -16 -18 -30 -38 -30 -44 0 -7 -15 -23 -32 -36 -18 -13 -42
-35 -53 -49 -11 -14 -27 -33 -37 -42 -9 -10 -18 -25 -20 -36 -2 -10 -13 -22
-26 -28 -13 -6 -22 -19 -22 -32 0 -13 -25 -48 -62 -88 -35 -36 -70 -78 -78
-93 -8 -15 -21 -34 -28 -42 -7 -8 -21 -27 -32 -42 -11 -15 -30 -28 -43 -30
-17 -2 -23 -11 -25 -36 -2 -24 -10 -35 -28 -42 -13 -5 -24 -16 -24 -24 0 -9
-22 -30 -50 -48 -27 -18 -50 -37 -50 -43 0 -23 -69 -85 -94 -85 -16 0 -26 -6
-26 -15 0 -17 -64 -49 -83 -42 -16 6 -41 -12 -50 -35 -8 -23 -55 -34 -78 -19
-27 16 -36 14 -35 -11 1 -20 -5 -23 -45 -26 -37 -2 -48 -7 -52 -23 -3 -12 -14
-19 -30 -19 -14 0 -29 -4 -32 -10 -3 -5 -33 -10 -65 -10 -32 0 -62 -5 -65 -11
-5 -7 -37 -9 -94 -5 -147 10 -160 9 -174 -3 -8 -6 -32 -12 -53 -14 -35 -2 -39
1 -38 21 1 27 -10 28 -37 1 -28 -28 -71 -22 -79 10 -3 14 -11 26 -18 29 -14 4
-16 -14 -2 -23 14 -8 13 -28 -3 -49 -11 -16 -17 -16 -75 -2 -72 16 -95 32 -89
57 3 10 -1 20 -8 23 -8 3 -11 -2 -8 -13 2 -10 -2 -23 -10 -30 -20 -16 -137 14
-302 76 -723 273 -1264 881 -1464 1643 -55 210 -66 310 -66 595 0 240 3 284
23 395 76 406 221 738 460 1055 229 304 520 543 857 705 258 125 507 197 793
230 115 13 461 3 546 -16z"/>
</g>
</svg>
