<?xml version="1.0" standalone="no"?>
<!DOCTYPE svg PUBLIC "-//W3C//DTD SVG 20010904//EN"
 "http://www.w3.org/TR/2001/REC-SVG-20010904/DTD/svg10.dtd">
<svg version="1.0" xmlns="http://www.w3.org/2000/svg"
 width="512.000000pt" height="512.000000pt" viewBox="0 0 512.000000 512.000000"
 preserveAspectRatio="xMidYMid meet">
<metadata>
Created by potrace 1.16, written by Peter Selinger 2001-2019
</metadata>
<g transform="translate(0.000000,512.000000) scale(0.100000,-0.100000)"
fill="#000000" stroke="none">
<path d="M0 2560 l0 -2560 2560 0 2560 0 0 2560 0 2560 -2560 0 -2560 0 0
-2560z m2967 2364 c239 -35 530 -139 763 -272 621 -355 1041 -950 1179 -1672
31 -161 41 -483 21 -681 -27 -266 -112 -551 -240 -809 -120 -240 -254 -426
-449 -620 -190 -189 -355 -314 -564 -425 -228 -121 -586 -240 -620 -206 -16
16 4 46 29 46 10 0 27 8 37 17 9 10 29 18 45 18 23 1 24 2 10 11 -23 13 -23
31 2 52 11 9 20 23 20 31 0 8 14 23 30 33 19 11 30 25 30 40 0 12 5 25 10 28
6 3 10 14 10 24 0 10 11 28 25 41 14 13 25 32 25 43 0 10 9 21 20 24 11 3 20
11 20 18 0 7 7 26 15 41 8 16 15 46 15 68 0 66 32 178 52 184 10 2 18 10 18
17 0 7 7 18 15 25 8 7 12 16 9 21 -9 15 15 153 29 164 7 6 12 22 12 38 1 20
-4 27 -17 27 -34 0 -34 31 -1 59 26 22 32 36 38 86 4 33 13 67 20 75 7 8 13
42 14 75 1 33 2 78 2 100 1 22 -1 48 -5 58 -3 9 -8 23 -10 30 -2 7 -1 54 3
105 6 85 5 94 -13 106 -19 12 -18 21 3 56 5 8 12 23 15 33 3 9 14 17 24 17 23
0 41 33 44 85 3 33 7 41 26 43 13 2 25 -3 28 -12 7 -19 40 -21 50 -4 4 6 8 23
8 37 1 21 -4 26 -21 25 -12 0 -28 -5 -35 -10 -62 -46 -98 -42 -98 11 0 36 30
108 50 120 18 11 72 -6 77 -24 3 -13 12 -16 34 -13 16 2 35 -1 43 -7 10 -9 13
-5 14 16 0 16 7 55 15 88 12 50 17 60 35 59 20 0 20 1 5 38 -14 35 -14 40 1
63 9 13 16 33 16 44 0 11 6 24 13 28 6 4 18 15 25 25 11 14 9 16 -20 15 -27
-2 -34 2 -36 21 -3 17 3 25 26 33 38 13 48 38 23 55 -23 16 -26 77 -5 95 19
16 44 4 44 -21 0 -11 4 -20 9 -20 12 0 21 39 11 45 -5 3 -12 27 -16 53 -9 63
-20 82 -49 82 -18 0 -32 12 -52 43 -15 23 -36 48 -45 55 -10 7 -18 20 -18 28
0 8 -9 14 -20 14 -32 0 -44 39 -32 96 11 46 10 50 -13 67 -16 12 -25 29 -25
47 0 15 -7 47 -15 70 -8 24 -13 52 -9 62 7 25 -27 77 -97 147 -35 35 -49 63
-49 101 0 49 -38 109 -74 118 -27 7 -32 14 -39 54 -6 30 -22 62 -48 93 -41 50
-46 64 -27 83 8 8 5 14 -14 21 -24 9 -46 56 -33 69 3 3 -7 11 -22 17 -25 10
-28 17 -29 61 -4 141 -36 206 -123 246 -38 17 -68 44 -146 129 -8 9 -15 22
-15 30 0 9 -16 23 -35 32 -19 9 -35 23 -35 31 0 8 -7 16 -15 20 -8 3 -15 12
-15 20 0 9 -20 25 -45 36 -45 20 -55 36 -35 56 7 7 4 10 -12 10 -26 -1 -36 27
-18 49 16 19 66 19 197 -1z"/>
</g>
</svg>
