<?xml version="1.0" standalone="no"?>
<!DOCTYPE svg PUBLIC "-//W3C//DTD SVG 20010904//EN"
 "http://www.w3.org/TR/2001/REC-SVG-20010904/DTD/svg10.dtd">
<svg version="1.0" xmlns="http://www.w3.org/2000/svg"
 width="512.000000pt" height="512.000000pt" viewBox="0 0 512.000000 512.000000"
 preserveAspectRatio="xMidYMid meet">
<metadata>
Created by potrace 1.16, written by Peter Selinger 2001-2019
</metadata>
<g transform="translate(0.000000,512.000000) scale(0.100000,-0.100000)"
fill="#000000" stroke="none">
<path d="M0 2560 l0 -2560 2560 0 2560 0 0 2560 0 2560 -2560 0 -2560 0 0
-2560z m2640 2389 c193 2 480 -47 688 -120 358 -123 652 -308 923 -578 357
-356 578 -783 670 -1291 21 -111 23 -158 23 -410 1 -307 -6 -365 -70 -610 -55
-208 -161 -453 -281 -646 -245 -394 -635 -734 -1058 -921 -150 -67 -214 -88
-228 -74 -16 16 -37 14 -37 -5 0 -29 -121 -60 -144 -37 -12 12 -90 2 -108 -14
-9 -8 -25 -12 -36 -9 -13 4 -22 1 -26 -9 -6 -17 -41 -20 -51 -5 -9 14 -134 8
-140 -8 -7 -19 -94 -16 -102 5 -5 14 -8 13 -15 -6 -7 -19 -13 -22 -40 -16 -18
4 -38 13 -44 21 -11 14 -31 13 -136 -2 -33 -5 -52 -3 -64 6 -17 15 -63 20 -70
8 -10 -15 -43 -8 -57 13 -10 14 -17 17 -22 9 -13 -21 -183 12 -192 37 -3 7
-14 13 -25 13 -12 0 -22 8 -25 20 -4 16 -9 18 -19 9 -14 -11 -75 3 -101 23 -6
5 -40 24 -75 41 -89 46 -103 55 -191 120 -43 31 -91 64 -105 71 -15 8 -39 25
-54 39 -14 13 -41 35 -60 47 -36 26 -81 63 -172 143 -32 29 -67 55 -78 60 -15
5 -19 14 -15 33 3 20 -5 36 -34 70 -22 25 -39 49 -39 54 0 4 -13 16 -29 27
-34 21 -91 95 -91 118 0 8 -3 15 -8 15 -4 0 -25 22 -47 50 -22 27 -63 75 -92
106 -29 31 -56 68 -60 83 -3 14 -11 32 -17 40 -9 12 -29 83 -52 191 -3 14 -9
34 -14 45 -4 11 -13 43 -20 70 -14 57 -26 95 -48 143 -10 24 -11 36 -3 45 8
10 7 19 -4 33 -8 10 -15 30 -15 43 0 13 -12 39 -26 58 -14 19 -24 40 -21 47 8
19 70 30 82 14 5 -7 30 -13 55 -13 25 -1 53 -4 62 -9 14 -6 18 0 23 36 3 24 1
70 -5 103 -6 33 -13 76 -14 95 -2 19 -9 48 -15 64 -7 17 -9 47 -6 71 5 31 3
44 -9 54 -18 15 -21 47 -6 56 5 3 1 19 -10 38 -20 32 -27 92 -12 101 5 3 7 19
4 37 -4 25 0 36 18 49 19 15 24 30 28 81 8 119 6 178 -8 203 -10 20 -11 37 -1
87 7 34 18 70 24 80 8 13 8 24 -2 42 -11 21 -11 29 2 54 8 15 23 64 33 108 19
87 38 140 54 150 5 3 10 17 10 30 0 15 9 29 23 36 42 23 69 72 69 128 0 24 5
35 19 38 10 3 19 10 19 15 0 6 7 25 15 44 8 19 22 50 30 69 9 19 20 35 25 35
6 0 10 9 10 21 0 14 10 24 30 32 19 7 28 17 25 25 -17 46 -16 64 7 100 13 20
27 45 31 55 3 9 15 17 26 17 35 0 101 40 101 61 0 12 -7 19 -20 19 -11 0 -23
7 -27 16 -7 19 36 64 141 147 43 34 98 79 121 100 23 20 47 37 53 37 6 0 31
13 55 30 48 32 150 80 237 112 30 11 64 23 75 28 69 29 248 71 385 89 131 18
272 29 300 24 14 -3 59 -4 100 -4z"/>
</g>
</svg>
