<?xml version="1.0" standalone="no"?>
<!DOCTYPE svg PUBLIC "-//W3C//DTD SVG 20010904//EN"
 "http://www.w3.org/TR/2001/REC-SVG-20010904/DTD/svg10.dtd">
<svg version="1.0" xmlns="http://www.w3.org/2000/svg"
 width="512.000000pt" height="512.000000pt" viewBox="0 0 512.000000 512.000000"
 preserveAspectRatio="xMidYMid meet">
<metadata>
Created by potrace 1.16, written by Peter Selinger 2001-2019
</metadata>
<g transform="translate(0.000000,512.000000) scale(0.100000,-0.100000)"
fill="#000000" stroke="none">
<path d="M0 2560 l0 -2560 2560 0 2560 0 0 2560 0 2560 -2560 0 -2560 0 0
-2560z m2457 2374 c5 -15 7 -15 15 0 6 10 23 16 49 16 42 0 57 -16 44 -47 -4
-10 -8 -27 -9 -38 -1 -12 -9 -21 -22 -23 -12 -2 -32 -14 -45 -28 -12 -13 -28
-24 -35 -24 -7 0 -18 -9 -24 -20 -7 -12 -20 -20 -33 -19 -43 4 -57 -1 -57 -20
0 -10 -9 -30 -20 -44 -25 -32 -25 -47 0 -47 53 0 31 -75 -25 -86 -46 -8 -70
-31 -54 -50 18 -22 3 -47 -25 -40 -19 5 -25 1 -31 -17 -22 -66 -34 -115 -35
-135 0 -15 -7 -26 -19 -29 -20 -5 -46 -56 -42 -82 2 -8 -5 -21 -15 -28 -14
-10 -15 -15 -4 -28 14 -17 7 -45 -13 -45 -7 0 -13 -11 -12 -27 0 -26 -4 -29
-52 -37 -41 -7 -53 -13 -53 -27 0 -13 9 -19 33 -21 29 -3 32 -6 30 -33 -1 -16
-10 -35 -19 -42 -13 -10 -14 -17 -6 -42 6 -17 9 -48 6 -68 -4 -31 -3 -34 5
-15 10 22 31 29 45 15 4 -5 19 -8 33 -8 40 0 50 -26 32 -77 -14 -37 -20 -43
-48 -46 -26 -3 -34 1 -38 17 -3 11 -11 22 -19 25 -8 3 -14 13 -14 22 0 14 -3
14 -15 4 -11 -9 -14 -22 -10 -40 4 -18 -1 -34 -15 -52 -23 -31 -25 -51 -6 -67
14 -12 18 -78 6 -96 -4 -5 -3 -25 2 -42 10 -37 31 -42 60 -16 15 13 23 14 43
5 49 -22 28 -53 -52 -77 -57 -17 -94 -49 -68 -58 17 -7 21 -65 6 -95 -20 -42
-41 -89 -50 -114 -6 -16 -15 -28 -21 -28 -5 0 -10 -9 -10 -20 0 -12 -9 -24
-21 -28 -31 -12 -35 -74 -8 -130 12 -23 22 -64 22 -91 l2 -48 48 4 c38 2 49 0
54 -14 4 -10 12 -22 19 -28 13 -11 35 -85 39 -129 1 -20 9 -32 23 -37 13 -5
22 -17 22 -28 0 -11 5 -23 10 -26 27 -17 -2 -92 -45 -115 -25 -13 -26 -17 -19
-69 3 -31 13 -64 21 -73 10 -11 12 -25 8 -39 -10 -30 -10 -153 -1 -168 4 -6 6
-22 4 -35 -1 -13 3 -30 9 -37 11 -14 3 -97 -23 -240 -7 -43 11 -109 31 -109
23 0 65 -59 65 -91 0 -16 -7 -41 -16 -54 -13 -20 -14 -28 -5 -39 8 -9 10 -28
5 -51 -5 -27 -2 -41 11 -55 16 -18 15 -65 -3 -95 -5 -8 -6 -120 -1 -120 7 0 5
-103 -3 -113 -8 -9 -6 -18 6 -30 9 -10 16 -28 16 -40 0 -12 5 -31 12 -42 10
-16 9 -23 -10 -43 -23 -25 -29 -52 -12 -62 17 -10 11 -37 -9 -42 -17 -4 -18
-8 -8 -24 8 -14 9 -21 0 -30 -8 -8 -6 -16 9 -31 12 -12 18 -28 14 -41 -3 -11
6 -45 20 -76 33 -72 25 -110 -26 -125 l-35 -10 40 -5 c52 -8 59 -34 13 -54
-91 -41 -137 -44 -139 -10 0 10 -6 0 -13 -22 -13 -45 -44 -60 -53 -26 -4 16
-9 19 -18 11 -17 -14 -62 -3 -78 19 -8 10 -28 16 -57 17 -26 0 -69 12 -100 27
-30 14 -95 44 -145 67 -215 98 -442 259 -630 447 -211 209 -347 397 -464 638
-143 293 -207 521 -242 850 -12 121 -7 458 10 540 5 28 19 101 31 164 101 537
444 1079 897 1422 332 251 732 417 1121 464 155 19 201 18 209 -1z m-299
-4657 c4 -20 -25 -34 -40 -19 -15 15 -1 44 19 40 10 -2 19 -11 21 -21z m-70
-10 c4 -20 -25 -34 -40 -19 -15 15 -1 44 19 40 10 -2 19 -11 21 -21z"/>
<path d="M1876 2161 c-15 -17 -15 -21 3 -62 16 -37 20 -41 26 -24 4 11 10 29
14 39 7 19 -7 66 -20 66 -3 0 -13 -8 -23 -19z"/>
<path d="M1965 2140 c-3 -5 -1 -10 4 -10 6 0 11 5 11 10 0 6 -2 10 -4 10 -3 0
-8 -4 -11 -10z"/>
<path d="M1766 2023 c-4 -9 -14 -13 -26 -10 -25 7 -26 -5 -1 -20 11 -7 21 -23
23 -35 4 -22 5 -22 16 5 6 15 16 27 22 27 5 0 10 8 10 19 0 23 -36 35 -44 14z"/>
</g>
</svg>
