<?xml version="1.0" standalone="no"?>
<!DOCTYPE svg PUBLIC "-//W3C//DTD SVG 20010904//EN"
 "http://www.w3.org/TR/2001/REC-SVG-20010904/DTD/svg10.dtd">
<svg version="1.0" xmlns="http://www.w3.org/2000/svg"
 width="512.000000pt" height="512.000000pt" viewBox="0 0 512.000000 512.000000"
 preserveAspectRatio="xMidYMid meet">
<metadata>
Created by potrace 1.16, written by Peter Selinger 2001-2019
</metadata>
<g transform="translate(0.000000,512.000000) scale(0.100000,-0.100000)"
fill="#000000" stroke="none">
<path d="M0 2560 l0 -2560 2560 0 2560 0 0 2560 0 2560 -2560 0 -2560 0 0
-2560z m2467 2374 c9 -23 -26 -47 -59 -40 -18 4 -28 0 -32 -10 -5 -12 -17 -15
-46 -12 -32 3 -40 0 -40 -12 0 -26 -41 -58 -109 -85 -100 -41 -150 -79 -181
-140 -20 -39 -53 -85 -61 -85 -5 0 -9 -6 -9 -14 0 -8 -9 -21 -20 -29 -11 -7
-34 -33 -51 -56 -28 -39 -34 -42 -63 -37 -26 5 -37 1 -58 -21 -15 -16 -28 -39
-30 -53 -2 -20 -9 -25 -30 -25 -15 0 -33 -6 -39 -12 -7 -7 -18 -13 -24 -13 -5
0 -23 -16 -39 -35 -23 -27 -29 -45 -30 -82 -1 -41 -4 -48 -21 -49 -11 -1 -24
-2 -30 -3 -5 -1 -4 -6 3 -13 15 -15 16 -50 1 -65 -24 -24 -83 -143 -80 -161 1
-7 -12 -26 -29 -43 -16 -17 -27 -35 -24 -40 3 -6 2 -18 -2 -27 -13 -31 -5
-175 11 -192 20 -22 19 -37 -4 -52 -10 -6 -17 -17 -14 -24 2 -7 -3 -24 -12
-38 -18 -27 -15 -29 21 -27 27 2 50 -26 58 -72 6 -34 5 -39 -14 -44 -16 -4
-18 -8 -9 -19 6 -8 8 -21 4 -31 -5 -10 -8 -44 -9 -75 l-1 -57 35 -3 c33 -3 35
-6 38 -41 3 -35 1 -39 -33 -53 -20 -8 -41 -14 -48 -13 -41 5 -49 -1 -42 -32 6
-24 2 -35 -14 -51 -15 -13 -20 -26 -15 -40 3 -11 -1 -37 -9 -57 -8 -20 -19
-49 -24 -66 -6 -23 -15 -30 -33 -30 -21 -1 -24 -5 -22 -25 14 -108 14 -130 -4
-137 -11 -4 -23 1 -36 16 -10 13 -18 19 -18 14 0 -6 9 -18 20 -28 27 -24 25
-39 -6 -60 l-26 -17 22 -15 c20 -14 22 -22 17 -65 -4 -27 -10 -54 -14 -61 -4
-6 -13 -30 -19 -52 -7 -22 -19 -58 -27 -80 -13 -35 -13 -42 -1 -56 8 -8 14
-30 14 -47 0 -37 2 -38 36 -16 19 13 30 14 47 6 12 -5 30 -13 40 -16 14 -4 17
-17 17 -64 0 -32 -5 -63 -12 -70 -18 -18 -38 -85 -28 -97 4 -5 14 -39 20 -75
6 -36 19 -77 28 -92 36 -62 -42 -61 -80 1 -17 27 -24 32 -26 19 -2 -10 4 -32
12 -50 9 -17 16 -38 16 -47 0 -9 9 -22 20 -29 11 -7 20 -21 20 -31 0 -11 19
-36 42 -55 35 -30 43 -34 51 -21 12 23 35 18 54 -12 10 -16 26 -34 35 -41 10
-7 18 -19 18 -27 0 -7 12 -27 26 -44 30 -36 28 -66 -3 -65 -17 0 -22 -7 -25
-34 -4 -28 0 -35 19 -43 17 -6 23 -16 23 -37 0 -18 13 -43 35 -70 27 -31 36
-52 39 -85 2 -25 7 -50 11 -56 4 -7 4 -18 2 -25 -3 -8 3 -16 14 -19 28 -8 23
-37 -9 -49 -27 -10 -28 -12 -13 -27 16 -16 51 -34 82 -44 12 -4 17 -24 21 -85
3 -43 10 -87 16 -98 6 -10 16 -32 24 -49 9 -22 20 -30 38 -30 35 0 41 -41 8
-54 -18 -8 -19 -10 -5 -10 37 -2 108 -41 106 -59 -5 -33 10 -72 26 -66 23 9
41 -11 55 -62 17 -61 7 -71 -57 -54 -26 7 -58 19 -70 26 -12 8 -31 14 -42 14
-57 0 -315 121 -490 230 -211 131 -458 352 -610 547 -189 242 -354 574 -427
860 -64 253 -79 368 -79 623 0 219 5 269 41 460 86 447 312 876 638 1208 210
215 400 354 661 482 254 126 522 204 785 229 140 14 160 13 167 -5z m-1127
-3089 c15 -18 6 -45 -13 -45 -20 0 -40 27 -33 45 7 19 30 19 46 0z"/>
<path d="M1815 350 c-3 -6 1 -7 9 -4 18 7 21 14 7 14 -6 0 -13 -4 -16 -10z"/>
</g>
</svg>
