<?xml version="1.0" standalone="no"?>
<!DOCTYPE svg PUBLIC "-//W3C//DTD SVG 20010904//EN"
 "http://www.w3.org/TR/2001/REC-SVG-20010904/DTD/svg10.dtd">
<svg version="1.0" xmlns="http://www.w3.org/2000/svg"
 width="512.000000pt" height="512.000000pt" viewBox="0 0 512.000000 512.000000"
 preserveAspectRatio="xMidYMid meet">
<metadata>
Created by potrace 1.16, written by Peter Selinger 2001-2019
</metadata>
<g transform="translate(0.000000,512.000000) scale(0.100000,-0.100000)"
fill="#000000" stroke="none">
<path d="M0 2560 l0 -2560 2560 0 2560 0 0 2560 0 2560 -2560 0 -2560 0 0
-2560z m2245 2345 c0 -15 -15 -24 -65 -42 -36 -12 -72 -23 -81 -23 -9 0 -19
-7 -22 -15 -4 -8 -32 -22 -64 -31 -32 -9 -61 -22 -65 -29 -4 -7 -25 -22 -45
-33 -84 -44 -118 -65 -126 -78 -4 -8 -18 -14 -31 -14 -13 0 -29 -6 -35 -14 -7
-8 -23 -17 -36 -20 -13 -3 -29 -15 -35 -25 -6 -12 -42 -29 -97 -46 -75 -24
-91 -33 -110 -61 -20 -30 -20 -34 -5 -34 26 0 62 -29 62 -49 0 -10 -12 -27
-27 -36 -16 -10 -35 -26 -44 -37 -9 -12 -29 -20 -49 -21 -30 -2 -35 2 -40 25
-5 26 -6 27 -30 13 -14 -8 -33 -18 -42 -21 -12 -4 -16 -13 -12 -28 4 -15 -5
-31 -34 -59 -29 -28 -38 -44 -35 -61 3 -16 -5 -34 -26 -58 -17 -20 -31 -41
-31 -48 0 -7 -14 -30 -31 -51 -30 -38 -36 -62 -40 -159 0 -14 -11 -36 -24 -50
-13 -14 -29 -47 -35 -75 -7 -27 -18 -63 -26 -78 -8 -16 -14 -35 -14 -43 0 -24
-42 -74 -62 -74 -10 0 -18 -6 -18 -14 0 -18 -63 -86 -79 -86 -9 0 -10 -10 -6
-30 4 -19 1 -41 -9 -61 -11 -21 -14 -44 -10 -70 8 -45 -7 -56 -50 -39 -23 8
-27 15 -24 35 3 14 2 25 -2 25 -12 0 -18 -38 -8 -48 6 -6 6 -23 -1 -47 -5 -20
-7 -43 -4 -51 3 -8 2 -22 -2 -31 -7 -17 -14 -52 -16 -83 -1 -8 2 -49 6 -90 6
-63 5 -78 -9 -89 -10 -8 -14 -22 -10 -36 3 -13 1 -26 -5 -29 -6 -4 -11 -22
-11 -40 0 -18 -3 -36 -8 -40 -15 -16 -16 -195 0 -213 9 -11 9 -23 -1 -49 -11
-30 -10 -39 3 -59 18 -27 21 -71 7 -79 -14 -9 28 -86 52 -95 28 -11 59 -45 56
-63 -3 -26 1 -38 14 -38 6 0 23 -9 37 -20 22 -17 24 -22 12 -40 -9 -15 -11
-38 -7 -75 6 -41 4 -55 -8 -61 -46 -28 -43 -179 5 -246 10 -14 10 -22 1 -38
-19 -29 2 -72 32 -64 24 6 32 -4 90 -110 19 -36 35 -71 35 -79 0 -8 9 -22 20
-32 25 -23 25 -37 1 -59 -16 -15 -18 -22 -9 -42 6 -14 26 -33 44 -44 32 -20
84 -80 84 -98 0 -4 11 -19 24 -31 13 -12 26 -32 29 -44 8 -33 35 -104 57 -150
11 -23 20 -44 20 -48 0 -10 64 -73 108 -106 17 -14 32 -30 32 -35 0 -5 18 -27
40 -48 22 -21 40 -43 40 -49 0 -6 8 -11 18 -11 9 0 49 -31 88 -69 39 -37 82
-76 97 -86 15 -9 27 -23 27 -30 0 -8 12 -15 26 -17 33 -4 54 -32 37 -49 -15
-15 -60 0 -193 64 -432 209 -775 522 -1024 936 -332 552 -425 1243 -250 1871
63 226 180 484 309 679 362 548 916 919 1545 1035 98 19 125 17 125 -9z m-928
-661 c7 -20 -12 -63 -33 -71 -29 -11 -38 13 -20 51 18 38 42 47 53 20z"/>
</g>
</svg>
