<?xml version="1.0" standalone="no"?>
<!DOCTYPE svg PUBLIC "-//W3C//DTD SVG 20010904//EN"
 "http://www.w3.org/TR/2001/REC-SVG-20010904/DTD/svg10.dtd">
<svg version="1.0" xmlns="http://www.w3.org/2000/svg"
 width="512.000000pt" height="512.000000pt" viewBox="0 0 512.000000 512.000000"
 preserveAspectRatio="xMidYMid meet">
<metadata>
Created by potrace 1.16, written by Peter Selinger 2001-2019
</metadata>
<g transform="translate(0.000000,512.000000) scale(0.100000,-0.100000)"
fill="#000000" stroke="none">
<path d="M0 2560 l0 -2560 2560 0 2560 0 0 2560 0 2560 -2560 0 -2560 0 0
-2560z m2975 2360 c714 -130 1305 -553 1660 -1185 365 -652 406 -1460 108
-2135 -172 -392 -444 -731 -788 -985 -263 -195 -573 -330 -928 -406 -42 -9
-70 -10 -97 -3 -30 9 -39 8 -47 -5 -12 -20 -46 -7 -41 16 2 11 12 18 27 17 20
-1 22 3 17 32 -4 18 -2 35 4 39 21 13 9 22 -27 21 -37 -1 -38 0 -41 38 -3 40
19 101 41 109 6 3 2 6 -11 6 -25 1 -40 27 -24 43 7 7 -6 25 -40 59 -47 46 -58
79 -27 79 8 0 9 4 0 13 -6 8 -9 41 -8 79 3 56 0 67 -16 78 -19 12 -20 22 -1
94 5 20 2 26 -10 26 -23 0 -40 38 -42 95 -1 39 4 57 22 82 13 17 28 43 33 57
6 14 20 26 33 28 23 4 22 5 -4 16 -33 14 -35 30 -8 65 11 14 20 28 20 30 0 3
5 18 11 34 14 34 17 73 7 79 -4 3 -14 19 -22 37 -16 36 -20 225 -6 243 12 13
16 155 6 172 -9 14 2 71 16 89 5 7 6 18 1 25 -4 7 -13 35 -18 63 -8 39 -16 53
-38 63 -33 16 -38 61 -7 69 14 4 20 14 20 32 0 15 4 31 9 37 5 5 20 41 34 79
18 51 22 76 15 88 -5 10 -8 28 -6 41 1 12 -6 36 -17 52 -11 17 -20 48 -21 74
0 25 -6 58 -13 74 -6 16 -9 38 -5 49 3 10 0 31 -7 44 -11 21 -11 27 1 37 8 6
20 20 26 31 16 30 89 33 125 6 34 -25 55 -27 63 -5 5 12 14 14 45 9 35 -6 41
-4 60 23 l21 30 -32 32 c-17 17 -42 36 -54 41 -25 9 -70 91 -60 108 4 5 -21
16 -56 23 -45 10 -64 19 -66 32 -2 10 -12 26 -22 36 -18 18 -18 17 -13 -16 4
-25 2 -35 -11 -40 -43 -16 -100 67 -94 138 1 20 -1 40 -5 44 -16 16 -5 51 22
75 16 14 30 34 32 45 3 12 14 20 32 22 15 2 27 7 27 12 0 5 3 15 6 24 6 15
-62 66 -90 66 -7 0 -19 7 -26 15 -10 12 -9 22 4 50 9 19 21 35 26 35 5 0 1 16
-10 35 -11 20 -20 44 -20 54 0 10 -7 24 -15 31 -20 17 -19 69 1 77 8 3 20 1
26 -5 8 -8 15 -9 25 -1 20 17 16 49 -5 49 -30 0 -48 31 -50 84 -1 35 -9 60
-28 87 -20 29 -24 45 -19 68 5 23 1 38 -15 61 -11 16 -20 35 -18 42 1 7 -3 23
-10 35 -9 15 -10 34 -4 55 7 28 13 34 41 36 l33 3 -6 57 c-4 31 -8 71 -9 87
-1 18 -9 33 -19 37 -10 4 -18 16 -18 27 0 11 -12 28 -26 37 -17 12 -24 24 -21
36 4 14 -3 22 -29 33 -27 11 -34 19 -34 42 0 16 5 34 12 41 9 9 8 12 -5 12
-10 0 -20 8 -23 18 -3 9 -11 27 -17 40 -15 32 14 63 42 45 21 -13 61 -6 61 11
0 6 12 22 26 35 23 22 27 23 52 10 44 -22 45 -22 38 -10 -4 7 -5 19 -2 28 6
14 21 15 109 10 56 -4 152 -15 212 -27z"/>
<path d="M2978 3404 c-3 -12 3 -30 16 -46 17 -20 26 -23 46 -17 14 4 18 7 9 8
-17 1 -54 38 -61 61 -3 10 -6 9 -10 -6z"/>
</g>
</svg>
