<?xml version="1.0" standalone="no"?>
<!DOCTYPE svg PUBLIC "-//W3C//DTD SVG 20010904//EN"
 "http://www.w3.org/TR/2001/REC-SVG-20010904/DTD/svg10.dtd">
<svg version="1.0" xmlns="http://www.w3.org/2000/svg"
 width="512.000000pt" height="512.000000pt" viewBox="0 0 512.000000 512.000000"
 preserveAspectRatio="xMidYMid meet">
<metadata>
Created by potrace 1.16, written by Peter Selinger 2001-2019
</metadata>
<g transform="translate(0.000000,512.000000) scale(0.100000,-0.100000)"
fill="#000000" stroke="none">
<path d="M0 2560 l0 -2560 2560 0 2560 0 0 2560 0 2560 -2560 0 -2560 0 0
-2560z m2810 2375 c404 -33 838 -204 1192 -471 110 -83 344 -310 420 -409 233
-300 399 -652 468 -993 44 -216 44 -214 44 -497 1 -285 0 -294 -46 -520 -66
-328 -261 -734 -475 -992 -121 -146 -315 -330 -463 -439 -70 -52 -234 -151
-327 -198 -192 -96 -511 -201 -546 -179 -7 4 -33 6 -60 5 -57 -3 -68 13 -44
64 18 36 34 42 56 22 10 -10 10 -8 0 10 -12 20 -12 25 1 35 8 7 16 30 18 52 3
36 17 58 45 68 6 2 4 16 -6 36 -15 30 -15 40 -2 105 19 94 20 135 6 169 -17
42 -13 82 10 124 12 21 22 56 23 78 1 22 5 46 10 54 5 7 10 39 13 70 2 34 10
60 18 67 13 10 13 13 -1 25 -11 9 -14 22 -10 44 5 22 2 36 -9 45 -23 19 -20
81 4 87 12 3 17 11 14 19 -3 7 2 33 11 56 22 61 36 206 20 219 -19 16 -22 55
-12 146 8 65 7 90 -2 109 -10 18 -11 30 -2 49 15 33 15 35 -5 35 -41 0 -74 73
-39 86 8 3 22 21 31 40 9 19 21 34 28 34 7 0 4 5 -5 11 -22 12 -23 38 -2 46
12 4 14 16 8 62 -4 31 -13 60 -20 64 -8 4 -14 13 -14 20 0 7 -7 25 -15 40 -17
34 -10 140 11 158 8 6 14 18 14 25 0 8 12 32 26 54 23 35 25 44 15 66 -17 37
-4 93 24 104 12 5 25 16 28 24 4 9 13 16 22 16 19 0 19 14 1 29 -18 15 -19 91
-1 97 13 5 9 51 -6 60 -21 13 -7 44 27 60 28 14 40 15 61 5 14 -6 28 -10 30
-7 7 7 -40 89 -59 104 -14 10 -18 28 -18 78 0 40 -6 77 -16 95 -8 17 -13 38
-10 46 3 8 -3 27 -14 43 -24 33 -26 82 -6 138 18 50 4 92 -30 92 -28 0 -57 45
-51 78 7 35 -28 86 -67 98 -17 5 -56 6 -86 2 -62 -8 -67 -5 -76 40 -8 40 13
51 50 26 23 -14 26 -14 20 -1 -3 9 -19 20 -35 26 -29 10 -30 12 -34 88 0 12
-4 25 -8 29 -12 12 -8 37 10 56 15 17 15 19 -1 37 -10 11 -16 28 -15 38 1 10
-3 31 -10 47 -9 23 -9 36 0 58 10 25 8 35 -12 76 -13 26 -29 51 -36 55 -7 4
-13 13 -13 20 0 7 -9 18 -20 25 -11 7 -20 19 -20 27 0 8 -5 15 -11 15 -6 0
-23 12 -38 28 -31 31 -47 88 -30 108 9 11 8 14 -2 14 -15 0 -109 97 -109 112
0 19 21 48 35 48 20 0 19 20 -2 35 -10 7 -14 19 -10 29 6 14 15 16 49 11 24
-3 63 -8 88 -10z m-152 -58 c4 -20 -25 -34 -40 -19 -15 15 -1 44 19 40 10 -2
19 -11 21 -21z"/>
<path d="M2730 4860 c-8 -5 -12 -12 -9 -15 4 -3 12 1 19 10 14 17 11 19 -10 5z"/>
<path d="M3514 3022 c-5 -4 -14 -20 -20 -37 -8 -26 -15 -30 -41 -28 -20 2 -33
-3 -37 -12 -3 -8 -13 -15 -22 -15 -10 0 0 -15 29 -44 44 -42 68 -98 49 -110
-13 -8 -4 -42 14 -57 11 -9 14 -8 14 3 0 22 51 65 85 72 19 4 35 16 42 33 15
31 9 43 -21 43 -30 0 -56 30 -59 66 -2 25 2 29 26 32 21 3 27 9 27 28 0 28 -3
29 -31 12 -17 -11 -22 -10 -33 4 -7 9 -16 14 -22 10z"/>
<path d="M3330 2830 c0 -5 5 -10 10 -10 6 0 10 5 10 10 0 6 -4 10 -10 10 -5 0
-10 -4 -10 -10z"/>
</g>
</svg>
