<?xml version="1.0" standalone="no"?>
<!DOCTYPE svg PUBLIC "-//W3C//DTD SVG 20010904//EN"
 "http://www.w3.org/TR/2001/REC-SVG-20010904/DTD/svg10.dtd">
<svg version="1.0" xmlns="http://www.w3.org/2000/svg"
 width="512.000000pt" height="512.000000pt" viewBox="0 0 512.000000 512.000000"
 preserveAspectRatio="xMidYMid meet">
<metadata>
Created by potrace 1.16, written by Peter Selinger 2001-2019
</metadata>
<g transform="translate(0.000000,512.000000) scale(0.100000,-0.100000)"
fill="#000000" stroke="none">
<path d="M0 2560 l0 -2560 2560 0 2560 0 0 2560 0 2560 -2560 0 -2560 0 0
-2560z m1955 2285 c0 -13 -10 -22 -30 -29 -47 -14 -79 -30 -88 -43 -4 -7 -18
-13 -30 -13 -12 0 -31 -7 -41 -15 -11 -8 -32 -15 -46 -15 -15 0 -35 -9 -45
-20 -10 -11 -22 -20 -26 -20 -4 0 -31 -16 -60 -35 -30 -19 -59 -35 -65 -35 -6
0 -30 -14 -54 -31 -30 -22 -49 -29 -66 -25 -31 8 -62 -9 -74 -40 -5 -13 -20
-29 -32 -34 -30 -13 -108 -69 -165 -120 -26 -22 -57 -43 -70 -46 -13 -4 -23
-10 -23 -14 0 -5 -24 -33 -53 -62 -29 -29 -76 -82 -105 -118 -28 -36 -58 -72
-66 -82 -8 -9 -17 -27 -21 -40 -4 -12 -26 -43 -50 -68 -23 -25 -48 -63 -55
-85 -7 -22 -32 -63 -56 -92 -24 -28 -44 -59 -44 -68 0 -9 -7 -29 -15 -46 -9
-16 -17 -45 -19 -63 -1 -19 -13 -49 -27 -68 -14 -18 -31 -49 -39 -68 -7 -19
-24 -48 -37 -63 -13 -16 -23 -41 -23 -57 0 -16 -5 -32 -10 -35 -6 -4 -7 -11
-4 -17 4 -5 2 -20 -4 -31 -23 -47 -43 -183 -46 -304 -2 -70 -8 -146 -14 -168
-12 -42 -11 -162 1 -182 4 -6 10 -53 13 -105 3 -51 11 -120 19 -153 7 -33 19
-86 25 -117 6 -32 16 -60 21 -63 5 -4 9 -27 9 -53 1 -73 53 -279 88 -347 15
-31 58 -170 72 -237 4 -21 12 -43 18 -51 17 -20 44 -106 37 -117 -4 -6 13 -32
37 -59 24 -26 49 -65 57 -86 7 -21 28 -62 45 -89 17 -28 37 -62 44 -76 7 -14
37 -54 67 -90 30 -35 55 -68 55 -72 0 -4 6 -8 13 -8 7 0 32 -27 56 -60 24 -33
49 -60 55 -60 7 0 27 -15 45 -34 34 -35 39 -68 11 -73 -37 -7 -293 231 -434
402 -250 304 -422 673 -501 1075 -26 135 -38 336 -32 530 9 263 37 429 111
656 40 122 64 177 146 339 127 249 244 410 440 605 271 271 561 452 920 576
136 47 165 50 165 19z m-736 -4214 c25 -19 24 -51 -1 -51 -25 1 -61 37 -55 54
8 21 26 20 56 -3z"/>
</g>
</svg>
