<?xml version="1.0" standalone="no"?>
<!DOCTYPE svg PUBLIC "-//W3C//DTD SVG 20010904//EN"
 "http://www.w3.org/TR/2001/REC-SVG-20010904/DTD/svg10.dtd">
<svg version="1.0" xmlns="http://www.w3.org/2000/svg"
 width="512.000000pt" height="512.000000pt" viewBox="0 0 512.000000 512.000000"
 preserveAspectRatio="xMidYMid meet">
<metadata>
Created by potrace 1.16, written by Peter Selinger 2001-2019
</metadata>
<g transform="translate(0.000000,512.000000) scale(0.100000,-0.100000)"
fill="#000000" stroke="none">
<path d="M0 2560 l0 -2560 2560 0 2560 0 0 2560 0 2560 -2560 0 -2560 0 0
-2560z m2962 2361 c462 -78 886 -290 1236 -617 163 -152 352 -398 464 -604
108 -197 202 -477 259 -765 19 -96 20 -651 1 -750 -103 -543 -315 -958 -672
-1315 -294 -295 -609 -486 -984 -599 -169 -50 -233 -60 -242 -37 -3 9 -2 22 4
29 6 6 12 23 14 37 2 16 10 26 24 28 23 3 37 26 55 89 7 23 25 54 40 68 16 14
29 35 29 46 0 13 8 23 20 26 19 5 19 6 3 18 -15 11 -15 15 6 59 12 26 28 49
37 53 9 3 12 12 8 25 -3 10 0 25 6 33 10 12 9 22 -4 49 -22 46 -21 52 14 96
17 21 30 47 30 58 0 11 7 38 15 61 11 32 12 46 3 60 -9 15 -8 26 5 54 10 19
20 63 24 97 4 46 10 64 23 67 19 5 17 49 -6 100 -19 42 -11 131 17 177 14 25
19 44 14 64 -4 18 -1 33 7 40 16 13 15 109 -1 125 -6 6 -11 20 -11 31 0 12 -7
30 -15 41 -15 19 -13 68 5 110 14 33 23 95 26 190 2 50 5 101 7 115 1 14 7 53
11 87 5 35 15 68 22 74 19 16 44 4 44 -21 0 -23 22 -26 40 -5 8 9 27 14 53 13
32 -1 44 3 55 20 8 12 24 22 36 22 19 0 21 6 23 53 1 43 6 55 26 70 22 17 23
22 15 63 -13 61 -6 74 38 74 35 0 36 1 21 18 -10 10 -17 22 -17 26 0 4 -21 32
-46 62 l-47 55 12 42 c7 23 17 49 21 58 4 8 3 23 -2 33 -5 9 -7 24 -4 32 3 8
-1 14 -8 14 -20 0 -76 73 -76 99 0 12 11 27 28 36 27 16 27 16 -21 10 -63 -8
-75 2 -76 70 0 67 -16 128 -36 145 -18 15 -20 61 -2 79 9 11 9 14 0 18 -7 2
-22 20 -34 39 -19 31 -22 33 -34 18 -30 -42 -70 32 -67 126 1 54 -14 77 -53
82 -26 3 -30 7 -28 31 1 23 -2 27 -23 27 -37 0 -57 14 -88 59 -21 30 -27 47
-22 66 5 18 0 35 -15 56 -14 20 -19 38 -15 54 5 19 2 25 -9 25 -23 0 -49 68
-37 94 19 40 21 54 6 60 -8 3 -14 14 -14 24 0 10 -6 24 -12 30 -10 10 -10 17
0 32 10 16 9 27 -7 62 -11 24 -22 52 -25 64 -4 13 -19 24 -43 30 -23 5 -42 18
-49 31 -6 13 -18 31 -27 41 -10 10 -17 31 -17 45 0 17 -5 27 -15 27 -19 0 -38
36 -30 60 4 13 2 20 -8 20 -7 0 -27 12 -45 28 -17 15 -39 32 -48 38 -15 8 -16
15 -7 41 10 28 9 30 -8 26 -24 -7 -33 16 -20 50 9 24 16 27 60 27 27 0 101 -9
163 -19z m678 -1836 c18 -21 5 -45 -25 -45 -27 0 -41 20 -31 45 7 19 40 19 56
0z m92 -302 c10 -9 18 -23 18 -31 0 -20 -29 -52 -47 -52 -21 0 -36 50 -24 77
12 27 28 29 53 6z"/>
<path d="M3240 4020 c0 -5 5 -10 10 -10 6 0 10 5 10 10 0 6 -4 10 -10 10 -5 0
-10 -4 -10 -10z"/>
</g>
</svg>
