<?xml version="1.0" standalone="no"?>
<!DOCTYPE svg PUBLIC "-//W3C//DTD SVG 20010904//EN"
 "http://www.w3.org/TR/2001/REC-SVG-20010904/DTD/svg10.dtd">
<svg version="1.0" xmlns="http://www.w3.org/2000/svg"
 width="512.000000pt" height="512.000000pt" viewBox="0 0 512.000000 512.000000"
 preserveAspectRatio="xMidYMid meet">
<metadata>
Created by potrace 1.16, written by Peter Selinger 2001-2019
</metadata>
<g transform="translate(0.000000,512.000000) scale(0.100000,-0.100000)"
fill="#000000" stroke="none">
<path d="M0 2560 l0 -2560 2560 0 2560 0 0 2560 0 2560 -2560 0 -2560 0 0
-2560z m2929 2368 c492 -73 927 -290 1288 -641 217 -212 354 -398 483 -662
112 -228 181 -444 226 -705 26 -150 26 -570 0 -720 -101 -581 -376 -1080 -796
-1443 -192 -165 -298 -235 -525 -347 -210 -103 -445 -180 -568 -186 -37 -1
-72 -6 -78 -9 -15 -10 -39 2 -39 20 0 9 7 18 15 21 8 4 15 14 15 25 0 10 8 22
18 28 16 9 16 11 -1 23 -28 21 -20 82 11 86 14 2 22 10 22 22 0 13 -5 17 -18
13 -25 -6 -59 44 -45 66 6 10 5 24 -4 43 -19 37 -13 61 17 69 14 4 18 7 9 8
-9 1 -24 10 -33 20 -24 27 -13 101 16 109 18 4 18 5 -4 16 -31 15 -37 56 -9
63 27 7 27 23 1 23 -27 0 -36 26 -17 48 9 9 17 37 19 62 2 38 7 46 26 48 28 4
29 20 0 24 -33 4 -47 51 -27 87 12 20 13 31 5 44 -8 12 -8 22 1 36 10 16 9 20
-2 25 -21 8 -18 44 4 58 10 6 17 18 14 25 -3 8 4 24 16 37 19 20 20 24 7 29
-23 9 -20 30 13 89 28 53 29 86 2 103 -6 3 -11 17 -11 30 0 13 -5 35 -11 49
-9 19 -9 29 0 39 6 8 13 44 15 81 2 36 9 73 15 80 19 23 26 113 10 132 -13 16
-22 128 -19 247 0 26 -6 62 -14 80 -14 32 -14 86 0 179 5 36 3 54 -10 72 -22
34 -20 45 12 83 29 34 75 52 86 34 9 -14 36 -14 36 -1 0 6 -9 10 -20 10 -35 0
-36 29 -1 60 17 16 31 36 31 44 0 21 57 59 77 52 13 -5 14 -4 3 9 -7 8 -10 28
-8 43 4 29 4 29 -35 20 -45 -10 -61 -3 -54 23 3 12 -6 30 -24 50 -16 17 -29
39 -29 49 0 20 27 47 55 52 14 2 19 10 17 26 -2 13 3 25 13 28 12 5 13 9 4 20
-18 22 4 64 34 64 13 0 28 -5 34 -11 7 -7 12 -4 16 10 4 16 -2 24 -21 34 -28
13 -29 19 -20 116 3 30 -3 41 -54 92 -32 32 -67 63 -79 69 -29 16 -22 54 12
58 22 3 25 7 21 27 -3 19 1 27 21 34 37 14 41 28 12 47 -14 9 -25 23 -25 30 0
8 -11 19 -25 24 -25 10 -33 34 -15 45 12 7 4 25 -11 25 -5 0 -9 -9 -9 -20 0
-11 -8 -28 -17 -37 -10 -10 -18 -31 -18 -48 0 -28 -2 -30 -43 -32 -48 -1 -68
20 -38 42 15 12 13 16 -18 46 -34 31 -35 36 -34 98 1 71 -11 115 -35 124 -35
13 -62 112 -33 123 8 3 11 15 8 29 -3 17 1 27 12 31 13 5 14 9 5 20 -6 8 -9
24 -6 36 4 13 -2 32 -15 51 -18 25 -19 34 -10 65 10 32 9 39 -8 57 -11 12 -20
33 -20 47 0 14 -7 31 -15 38 -8 7 -15 21 -15 32 0 10 -16 33 -36 50 -24 21
-34 38 -32 53 2 15 -8 31 -30 50 -27 23 -32 33 -27 55 4 20 0 33 -20 52 -20
20 -24 32 -19 52 3 14 10 29 16 32 5 3 13 17 18 30 13 32 43 31 70 -3 19 -25
20 -26 15 -6 -4 13 -3 28 0 33 9 15 106 10 254 -12z"/>
<path d="M3195 3040 c3 -5 12 -10 20 -10 8 0 17 5 20 10 4 6 -5 10 -20 10 -15
0 -24 -4 -20 -10z"/>
</g>
</svg>
